ISO-10303-21;
HEADER;
/* Generated by software containing ST-Developer
 * from STEP Tools, Inc. (www.steptools.com) 
 */
/* OPTION: using custom renumber hook */

FILE_DESCRIPTION(
/* description */ ('STEP AP242 Edition 2',
'CAx-IF Rec.Pracs.---Representation and Presentation of Product Manufa
cturing Information (PMI)---4.0---2014-10-13',
'CAx-IF Rec.Pracs.---3D Tessellated Geometry---0.4---2014-09-14','2;1',
'CAx-IF Rec.Pracs.---User Defined Attributes---1.5---2016-08-15'),
/* implementation_level */ '2;1');

FILE_NAME(
/* name */ 'Pneuma_101 - TPU_Grommet',
/* time_stamp */ '2026-04-29T18:06:27Z',
/* author */ (''),
/* organization */ (''),
/* preprocessor_version */ 'ST-DEVELOPER v20',
/* originating_system */ 'ONSHAPE BY PTC INC, 1.214',
/* authorisation */ '  ');

FILE_SCHEMA (('AP242_MANAGED_MODEL_BASED_3D_ENGINEERING_MIM_LF { 1 0 10303 442 3 1 4 }'));
ENDSEC;

DATA;
#10=SHAPE_REPRESENTATION_RELATIONSHIP('','',#467,#11);
#11=ADVANCED_BREP_SHAPE_REPRESENTATION('',(#465),#813);
#12=B_SPLINE_CURVE_WITH_KNOTS('',3,(#784,#785,#786,#787),.UNSPECIFIED.,
 .F.,.F.,(4,4),(0.0303402419784266,0.0338639618465288),.UNSPECIFIED.);
#13=B_SPLINE_CURVE_WITH_KNOTS('',3,(#797,#798,#799,#800),.UNSPECIFIED.,
 .F.,.F.,(4,4),(0.00541209087944615,0.00893581060687099),.UNSPECIFIED.);
#14=CYLINDRICAL_SURFACE('',#496,0.00467712149115319);
#15=CYLINDRICAL_SURFACE('',#499,0.0054771214911532);
#16=CYLINDRICAL_SURFACE('',#516,0.0035);
#17=CYLINDRICAL_SURFACE('',#521,0.0075);
#18=CYLINDRICAL_SURFACE('',#522,0.0065);
#19=PLANE('',#474);
#20=PLANE('',#476);
#21=PLANE('',#478);
#22=PLANE('',#481);
#23=PLANE('',#492);
#24=PLANE('',#495);
#25=PLANE('',#498);
#26=PLANE('',#501);
#27=PLANE('',#502);
#28=PLANE('',#503);
#29=PLANE('',#509);
#30=PLANE('',#511);
#31=PLANE('',#517);
#32=PLANE('',#520);
#33=CIRCLE('',#470,0.0037);
#34=CIRCLE('',#471,0.0106214477658558);
#35=CIRCLE('',#472,0.0035);
#36=CIRCLE('',#473,0.0106214477656839);
#37=CIRCLE('',#475,0.0272492963885193);
#38=CIRCLE('',#477,0.0272492963881758);
#39=CIRCLE('',#479,0.0235838614698437);
#40=CIRCLE('',#480,0.0235838614706286);
#41=CIRCLE('',#482,0.0235838614694667);
#42=CIRCLE('',#483,0.0235838614685038);
#43=CIRCLE('',#485,0.0037);
#44=CIRCLE('',#486,0.0106214477634988);
#45=CIRCLE('',#487,0.0035);
#46=CIRCLE('',#488,0.0106214477637523);
#47=CIRCLE('',#490,0.0065);
#48=CIRCLE('',#491,0.0063);
#49=CIRCLE('',#493,0.0054771214911532);
#50=CIRCLE('',#494,0.00467712149115319);
#51=CIRCLE('',#497,0.00467712149115319);
#52=CIRCLE('',#500,0.0054771214911532);
#53=CIRCLE('',#505,0.0065);
#54=CIRCLE('',#506,6.57431663772727);
#55=CIRCLE('',#507,0.00559738498065954);
#56=CIRCLE('',#508,6.5743143162771);
#57=CIRCLE('',#510,10.2607555247514);
#58=CIRCLE('',#512,10.2607555247514);
#59=CIRCLE('',#514,0.0075);
#60=CIRCLE('',#515,0.0065);
#61=CIRCLE('',#518,0.0075);
#62=CIRCLE('',#519,0.00602680985981823);
#63=ORIENTED_EDGE('',*,*,#195,.F.);
#64=ORIENTED_EDGE('',*,*,#196,.T.);
#65=ORIENTED_EDGE('',*,*,#197,.F.);
#66=ORIENTED_EDGE('',*,*,#198,.F.);
#67=ORIENTED_EDGE('',*,*,#199,.F.);
#68=ORIENTED_EDGE('',*,*,#200,.F.);
#69=ORIENTED_EDGE('',*,*,#201,.F.);
#70=ORIENTED_EDGE('',*,*,#202,.F.);
#71=ORIENTED_EDGE('',*,*,#203,.T.);
#72=ORIENTED_EDGE('',*,*,#204,.F.);
#73=ORIENTED_EDGE('',*,*,#205,.F.);
#74=ORIENTED_EDGE('',*,*,#206,.T.);
#75=ORIENTED_EDGE('',*,*,#207,.T.);
#76=ORIENTED_EDGE('',*,*,#208,.F.);
#77=ORIENTED_EDGE('',*,*,#209,.F.);
#78=ORIENTED_EDGE('',*,*,#210,.T.);
#79=ORIENTED_EDGE('',*,*,#211,.F.);
#80=ORIENTED_EDGE('',*,*,#212,.F.);
#81=ORIENTED_EDGE('',*,*,#213,.F.);
#82=ORIENTED_EDGE('',*,*,#214,.F.);
#83=ORIENTED_EDGE('',*,*,#215,.F.);
#84=ORIENTED_EDGE('',*,*,#216,.F.);
#85=ORIENTED_EDGE('',*,*,#217,.F.);
#86=ORIENTED_EDGE('',*,*,#218,.T.);
#87=ORIENTED_EDGE('',*,*,#219,.F.);
#88=ORIENTED_EDGE('',*,*,#220,.F.);
#89=ORIENTED_EDGE('',*,*,#221,.F.);
#90=ORIENTED_EDGE('',*,*,#222,.F.);
#91=ORIENTED_EDGE('',*,*,#223,.F.);
#92=ORIENTED_EDGE('',*,*,#213,.T.);
#93=ORIENTED_EDGE('',*,*,#224,.T.);
#94=ORIENTED_EDGE('',*,*,#209,.T.);
#95=ORIENTED_EDGE('',*,*,#225,.F.);
#96=ORIENTED_EDGE('',*,*,#226,.F.);
#97=ORIENTED_EDGE('',*,*,#227,.T.);
#98=ORIENTED_EDGE('',*,*,#228,.F.);
#99=ORIENTED_EDGE('',*,*,#229,.F.);
#100=ORIENTED_EDGE('',*,*,#230,.T.);
#101=ORIENTED_EDGE('',*,*,#231,.T.);
#102=ORIENTED_EDGE('',*,*,#232,.F.);
#103=ORIENTED_EDGE('',*,*,#230,.F.);
#104=ORIENTED_EDGE('',*,*,#233,.T.);
#105=ORIENTED_EDGE('',*,*,#234,.F.);
#106=ORIENTED_EDGE('',*,*,#233,.F.);
#107=ORIENTED_EDGE('',*,*,#229,.T.);
#108=ORIENTED_EDGE('',*,*,#235,.T.);
#109=ORIENTED_EDGE('',*,*,#236,.F.);
#110=ORIENTED_EDGE('',*,*,#235,.F.);
#111=ORIENTED_EDGE('',*,*,#228,.T.);
#112=ORIENTED_EDGE('',*,*,#237,.T.);
#113=ORIENTED_EDGE('',*,*,#238,.T.);
#114=ORIENTED_EDGE('',*,*,#237,.F.);
#115=ORIENTED_EDGE('',*,*,#227,.F.);
#116=ORIENTED_EDGE('',*,*,#232,.T.);
#117=ORIENTED_EDGE('',*,*,#239,.T.);
#118=ORIENTED_EDGE('',*,*,#218,.F.);
#119=ORIENTED_EDGE('',*,*,#240,.T.);
#120=ORIENTED_EDGE('',*,*,#226,.T.);
#121=ORIENTED_EDGE('',*,*,#238,.F.);
#122=ORIENTED_EDGE('',*,*,#231,.F.);
#123=ORIENTED_EDGE('',*,*,#234,.T.);
#124=ORIENTED_EDGE('',*,*,#236,.T.);
#125=ORIENTED_EDGE('',*,*,#241,.F.);
#126=ORIENTED_EDGE('',*,*,#200,.T.);
#127=ORIENTED_EDGE('',*,*,#242,.F.);
#128=ORIENTED_EDGE('',*,*,#220,.T.);
#129=ORIENTED_EDGE('',*,*,#243,.T.);
#130=ORIENTED_EDGE('',*,*,#198,.T.);
#131=ORIENTED_EDGE('',*,*,#244,.F.);
#132=ORIENTED_EDGE('',*,*,#222,.T.);
#133=ORIENTED_EDGE('',*,*,#245,.F.);
#134=ORIENTED_EDGE('',*,*,#215,.T.);
#135=ORIENTED_EDGE('',*,*,#246,.T.);
#136=ORIENTED_EDGE('',*,*,#247,.F.);
#137=ORIENTED_EDGE('',*,*,#248,.F.);
#138=ORIENTED_EDGE('',*,*,#211,.T.);
#139=ORIENTED_EDGE('',*,*,#249,.F.);
#140=ORIENTED_EDGE('',*,*,#195,.T.);
#141=ORIENTED_EDGE('',*,*,#241,.T.);
#142=ORIENTED_EDGE('',*,*,#219,.T.);
#143=ORIENTED_EDGE('',*,*,#239,.F.);
#144=ORIENTED_EDGE('',*,*,#225,.T.);
#145=ORIENTED_EDGE('',*,*,#212,.T.);
#146=ORIENTED_EDGE('',*,*,#248,.T.);
#147=ORIENTED_EDGE('',*,*,#250,.T.);
#148=ORIENTED_EDGE('',*,*,#251,.T.);
#149=ORIENTED_EDGE('',*,*,#202,.T.);
#150=ORIENTED_EDGE('',*,*,#252,.T.);
#151=ORIENTED_EDGE('',*,*,#244,.T.);
#152=ORIENTED_EDGE('',*,*,#197,.T.);
#153=ORIENTED_EDGE('',*,*,#253,.F.);
#154=ORIENTED_EDGE('',*,*,#254,.F.);
#155=ORIENTED_EDGE('',*,*,#208,.T.);
#156=ORIENTED_EDGE('',*,*,#255,.T.);
#157=ORIENTED_EDGE('',*,*,#256,.F.);
#158=ORIENTED_EDGE('',*,*,#246,.F.);
#159=ORIENTED_EDGE('',*,*,#214,.T.);
#160=ORIENTED_EDGE('',*,*,#223,.T.);
#161=ORIENTED_EDGE('',*,*,#240,.F.);
#162=ORIENTED_EDGE('',*,*,#217,.T.);
#163=ORIENTED_EDGE('',*,*,#257,.T.);
#164=ORIENTED_EDGE('',*,*,#205,.T.);
#165=ORIENTED_EDGE('',*,*,#254,.T.);
#166=ORIENTED_EDGE('',*,*,#258,.F.);
#167=ORIENTED_EDGE('',*,*,#252,.F.);
#168=ORIENTED_EDGE('',*,*,#201,.T.);
#169=ORIENTED_EDGE('',*,*,#242,.T.);
#170=ORIENTED_EDGE('',*,*,#199,.T.);
#171=ORIENTED_EDGE('',*,*,#243,.F.);
#172=ORIENTED_EDGE('',*,*,#221,.T.);
#173=ORIENTED_EDGE('',*,*,#255,.F.);
#174=ORIENTED_EDGE('',*,*,#207,.F.);
#175=ORIENTED_EDGE('',*,*,#259,.F.);
#176=ORIENTED_EDGE('',*,*,#203,.F.);
#177=ORIENTED_EDGE('',*,*,#251,.F.);
#178=ORIENTED_EDGE('',*,*,#260,.T.);
#179=ORIENTED_EDGE('',*,*,#253,.T.);
#180=ORIENTED_EDGE('',*,*,#196,.F.);
#181=ORIENTED_EDGE('',*,*,#249,.T.);
#182=ORIENTED_EDGE('',*,*,#258,.T.);
#183=ORIENTED_EDGE('',*,*,#259,.T.);
#184=ORIENTED_EDGE('',*,*,#206,.F.);
#185=ORIENTED_EDGE('',*,*,#257,.F.);
#186=ORIENTED_EDGE('',*,*,#204,.T.);
#187=ORIENTED_EDGE('',*,*,#224,.F.);
#188=ORIENTED_EDGE('',*,*,#216,.T.);
#189=ORIENTED_EDGE('',*,*,#245,.T.);
#190=ORIENTED_EDGE('',*,*,#210,.F.);
#191=ORIENTED_EDGE('',*,*,#256,.T.);
#192=ORIENTED_EDGE('',*,*,#260,.F.);
#193=ORIENTED_EDGE('',*,*,#250,.F.);
#194=ORIENTED_EDGE('',*,*,#247,.T.);
#195=EDGE_CURVE('',#261,#262,#305,.T.);
#196=EDGE_CURVE('',#261,#263,#33,.T.);
#197=EDGE_CURVE('',#264,#263,#306,.T.);
#198=EDGE_CURVE('',#265,#264,#34,.T.);
#199=EDGE_CURVE('',#266,#265,#35,.T.);
#200=EDGE_CURVE('',#262,#266,#36,.T.);
#201=EDGE_CURVE('',#267,#268,#37,.T.);
#202=EDGE_CURVE('',#269,#267,#307,.T.);
#203=EDGE_CURVE('',#269,#270,#308,.T.);
#204=EDGE_CURVE('',#268,#270,#309,.T.);
#205=EDGE_CURVE('',#271,#272,#38,.T.);
#206=EDGE_CURVE('',#271,#273,#310,.T.);
#207=EDGE_CURVE('',#273,#274,#311,.T.);
#208=EDGE_CURVE('',#272,#274,#312,.T.);
#209=EDGE_CURVE('',#275,#276,#39,.T.);
#210=EDGE_CURVE('',#275,#277,#313,.T.);
#211=EDGE_CURVE('',#278,#277,#40,.T.);
#212=EDGE_CURVE('',#276,#278,#314,.T.);
#213=EDGE_CURVE('',#279,#280,#41,.T.);
#214=EDGE_CURVE('',#281,#279,#315,.T.);
#215=EDGE_CURVE('',#282,#281,#42,.T.);
#216=EDGE_CURVE('',#280,#282,#316,.T.);
#217=EDGE_CURVE('',#283,#284,#317,.T.);
#218=EDGE_CURVE('',#283,#285,#43,.T.);
#219=EDGE_CURVE('',#286,#285,#318,.T.);
#220=EDGE_CURVE('',#287,#286,#44,.T.);
#221=EDGE_CURVE('',#288,#287,#45,.T.);
#222=EDGE_CURVE('',#284,#288,#46,.T.);
#223=EDGE_CURVE('',#279,#289,#319,.T.);
#224=EDGE_CURVE('',#280,#275,#47,.T.);
#225=EDGE_CURVE('',#290,#276,#320,.T.);
#226=EDGE_CURVE('',#289,#290,#48,.T.);
#227=EDGE_CURVE('',#291,#292,#49,.T.);
#228=EDGE_CURVE('',#293,#292,#321,.T.);
#229=EDGE_CURVE('',#294,#293,#50,.T.);
#230=EDGE_CURVE('',#294,#291,#322,.T.);
#231=EDGE_CURVE('',#295,#296,#323,.T.);
#232=EDGE_CURVE('',#291,#296,#324,.T.);
#233=EDGE_CURVE('',#294,#295,#325,.T.);
#234=EDGE_CURVE('',#295,#297,#51,.T.);
#235=EDGE_CURVE('',#293,#297,#326,.T.);
#236=EDGE_CURVE('',#297,#298,#327,.T.);
#237=EDGE_CURVE('',#292,#298,#328,.T.);
#238=EDGE_CURVE('',#296,#298,#52,.T.);
#239=EDGE_CURVE('',#290,#285,#329,.T.);
#240=EDGE_CURVE('',#283,#289,#330,.T.);
#241=EDGE_CURVE('',#262,#286,#331,.T.);
#242=EDGE_CURVE('',#287,#266,#332,.T.);
#243=EDGE_CURVE('',#288,#265,#333,.T.);
#244=EDGE_CURVE('',#284,#264,#334,.T.);
#245=EDGE_CURVE('',#282,#277,#53,.T.);
#246=EDGE_CURVE('',#281,#299,#54,.T.);
#247=EDGE_CURVE('',#300,#299,#55,.T.);
#248=EDGE_CURVE('',#278,#300,#56,.T.);
#249=EDGE_CURVE('',#261,#301,#335,.T.);
#250=EDGE_CURVE('',#300,#302,#12,.T.);
#251=EDGE_CURVE('',#302,#269,#336,.T.);
#252=EDGE_CURVE('',#267,#301,#57,.T.);
#253=EDGE_CURVE('',#303,#263,#337,.T.);
#254=EDGE_CURVE('',#272,#303,#58,.T.);
#255=EDGE_CURVE('',#274,#304,#338,.T.);
#256=EDGE_CURVE('',#299,#304,#13,.T.);
#257=EDGE_CURVE('',#268,#271,#59,.T.);
#258=EDGE_CURVE('',#301,#303,#60,.T.);
#259=EDGE_CURVE('',#270,#273,#61,.T.);
#260=EDGE_CURVE('',#302,#304,#62,.T.);
#261=VERTEX_POINT('',#673);
#262=VERTEX_POINT('',#674);
#263=VERTEX_POINT('',#676);
#264=VERTEX_POINT('',#678);
#265=VERTEX_POINT('',#680);
#266=VERTEX_POINT('',#682);
#267=VERTEX_POINT('',#686);
#268=VERTEX_POINT('',#687);
#269=VERTEX_POINT('',#689);
#270=VERTEX_POINT('',#691);
#271=VERTEX_POINT('',#695);
#272=VERTEX_POINT('',#696);
#273=VERTEX_POINT('',#698);
#274=VERTEX_POINT('',#700);
#275=VERTEX_POINT('',#704);
#276=VERTEX_POINT('',#705);
#277=VERTEX_POINT('',#707);
#278=VERTEX_POINT('',#709);
#279=VERTEX_POINT('',#713);
#280=VERTEX_POINT('',#714);
#281=VERTEX_POINT('',#716);
#282=VERTEX_POINT('',#718);
#283=VERTEX_POINT('',#722);
#284=VERTEX_POINT('',#723);
#285=VERTEX_POINT('',#725);
#286=VERTEX_POINT('',#727);
#287=VERTEX_POINT('',#729);
#288=VERTEX_POINT('',#731);
#289=VERTEX_POINT('',#735);
#290=VERTEX_POINT('',#738);
#291=VERTEX_POINT('',#742);
#292=VERTEX_POINT('',#743);
#293=VERTEX_POINT('',#745);
#294=VERTEX_POINT('',#747);
#295=VERTEX_POINT('',#751);
#296=VERTEX_POINT('',#752);
#297=VERTEX_POINT('',#757);
#298=VERTEX_POINT('',#761);
#299=VERTEX_POINT('',#777);
#300=VERTEX_POINT('',#779);
#301=VERTEX_POINT('',#783);
#302=VERTEX_POINT('',#788);
#303=VERTEX_POINT('',#793);
#304=VERTEX_POINT('',#796);
#305=LINE('',#672,#339);
#306=LINE('',#677,#340);
#307=LINE('',#688,#341);
#308=LINE('',#690,#342);
#309=LINE('',#692,#343);
#310=LINE('',#697,#344);
#311=LINE('',#699,#345);
#312=LINE('',#701,#346);
#313=LINE('',#706,#347);
#314=LINE('',#710,#348);
#315=LINE('',#715,#349);
#316=LINE('',#719,#350);
#317=LINE('',#721,#351);
#318=LINE('',#726,#352);
#319=LINE('',#734,#353);
#320=LINE('',#737,#354);
#321=LINE('',#744,#355);
#322=LINE('',#748,#356);
#323=LINE('',#750,#357);
#324=LINE('',#753,#358);
#325=LINE('',#754,#359);
#326=LINE('',#758,#360);
#327=LINE('',#760,#361);
#328=LINE('',#762,#362);
#329=LINE('',#766,#363);
#330=LINE('',#767,#364);
#331=LINE('',#769,#365);
#332=LINE('',#770,#366);
#333=LINE('',#772,#367);
#334=LINE('',#773,#368);
#335=LINE('',#782,#369);
#336=LINE('',#789,#370);
#337=LINE('',#792,#371);
#338=LINE('',#795,#372);
#339=VECTOR('',#528,1.);
#340=VECTOR('',#531,1.);
#341=VECTOR('',#542,1.);
#342=VECTOR('',#543,1.);
#343=VECTOR('',#544,1.);
#344=VECTOR('',#549,1.);
#345=VECTOR('',#550,1.);
#346=VECTOR('',#551,1.);
#347=VECTOR('',#556,1.);
#348=VECTOR('',#559,1.);
#349=VECTOR('',#564,1.);
#350=VECTOR('',#567,1.);
#351=VECTOR('',#570,1.);
#352=VECTOR('',#573,1.);
#353=VECTOR('',#582,1.);
#354=VECTOR('',#585,1.);
#355=VECTOR('',#592,1.);
#356=VECTOR('',#595,1.);
#357=VECTOR('',#598,1.);
#358=VECTOR('',#599,1.);
#359=VECTOR('',#600,1.);
#360=VECTOR('',#605,1.);
#361=VECTOR('',#608,1.);
#362=VECTOR('',#609,1.);
#363=VECTOR('',#616,1.);
#364=VECTOR('',#617,1.);
#365=VECTOR('',#620,1.);
#366=VECTOR('',#621,1.);
#367=VECTOR('',#624,1.);
#368=VECTOR('',#625,1.);
#369=VECTOR('',#638,1.);
#370=VECTOR('',#639,1.);
#371=VECTOR('',#644,1.);
#372=VECTOR('',#647,1.);
#373=EDGE_LOOP('',(#63,#64,#65,#66,#67,#68));
#374=EDGE_LOOP('',(#69,#70,#71,#72));
#375=EDGE_LOOP('',(#73,#74,#75,#76));
#376=EDGE_LOOP('',(#77,#78,#79,#80));
#377=EDGE_LOOP('',(#81,#82,#83,#84));
#378=EDGE_LOOP('',(#85,#86,#87,#88,#89,#90));
#379=EDGE_LOOP('',(#91,#92,#93,#94,#95,#96));
#380=EDGE_LOOP('',(#97,#98,#99,#100));
#381=EDGE_LOOP('',(#101,#102,#103,#104));
#382=EDGE_LOOP('',(#105,#106,#107,#108));
#383=EDGE_LOOP('',(#109,#110,#111,#112));
#384=EDGE_LOOP('',(#113,#114,#115,#116));
#385=EDGE_LOOP('',(#117,#118,#119,#120));
#386=EDGE_LOOP('',(#121,#122,#123,#124));
#387=EDGE_LOOP('',(#125,#126,#127,#128));
#388=EDGE_LOOP('',(#129,#130,#131,#132));
#389=EDGE_LOOP('',(#133,#134,#135,#136,#137,#138));
#390=EDGE_LOOP('',(#139,#140,#141,#142,#143,#144,#145,#146,#147,#148,#149,
#150));
#391=EDGE_LOOP('',(#151,#152,#153,#154,#155,#156,#157,#158,#159,#160,#161,
#162));
#392=EDGE_LOOP('',(#163,#164,#165,#166,#167,#168));
#393=EDGE_LOOP('',(#169,#170,#171,#172));
#394=EDGE_LOOP('',(#173,#174,#175,#176,#177,#178));
#395=EDGE_LOOP('',(#179,#180,#181,#182));
#396=EDGE_LOOP('',(#183,#184,#185,#186));
#397=EDGE_LOOP('',(#187,#188,#189,#190));
#398=EDGE_LOOP('',(#191,#192,#193,#194));
#399=FACE_BOUND('',#373,.T.);
#400=FACE_BOUND('',#374,.T.);
#401=FACE_BOUND('',#375,.T.);
#402=FACE_BOUND('',#376,.T.);
#403=FACE_BOUND('',#377,.T.);
#404=FACE_BOUND('',#378,.T.);
#405=FACE_BOUND('',#379,.T.);
#406=FACE_BOUND('',#380,.T.);
#407=FACE_BOUND('',#381,.T.);
#408=FACE_BOUND('',#382,.T.);
#409=FACE_BOUND('',#383,.T.);
#410=FACE_BOUND('',#384,.T.);
#411=FACE_BOUND('',#385,.T.);
#412=FACE_BOUND('',#386,.T.);
#413=FACE_BOUND('',#387,.T.);
#414=FACE_BOUND('',#388,.T.);
#415=FACE_BOUND('',#389,.T.);
#416=FACE_BOUND('',#390,.T.);
#417=FACE_BOUND('',#391,.T.);
#418=FACE_BOUND('',#392,.T.);
#419=FACE_BOUND('',#393,.T.);
#420=FACE_BOUND('',#394,.T.);
#421=FACE_BOUND('',#395,.T.);
#422=FACE_BOUND('',#396,.T.);
#423=FACE_BOUND('',#397,.T.);
#424=FACE_BOUND('',#398,.T.);
#425=CONICAL_SURFACE('',#469,0.0035,0.785398163397452);
#426=CONICAL_SURFACE('',#484,0.0035,0.785398163397452);
#427=CONICAL_SURFACE('',#489,0.0063,0.785398163397448);
#428=CONICAL_SURFACE('',#504,0.0061,0.785398163397446);
#429=CONICAL_SURFACE('',#513,0.0065,0.785398163397448);
#430=CONICAL_SURFACE('',#523,0.0059977638454924,0.122173047639603);
#431=ADVANCED_FACE('',(#399),#425,.F.);
#432=ADVANCED_FACE('',(#400),#19,.F.);
#433=ADVANCED_FACE('',(#401),#20,.F.);
#434=ADVANCED_FACE('',(#402),#21,.F.);
#435=ADVANCED_FACE('',(#403),#22,.F.);
#436=ADVANCED_FACE('',(#404),#426,.F.);
#437=ADVANCED_FACE('',(#405),#427,.T.);
#438=ADVANCED_FACE('',(#406),#23,.T.);
#439=ADVANCED_FACE('',(#407),#24,.F.);
#440=ADVANCED_FACE('',(#408),#14,.T.);
#441=ADVANCED_FACE('',(#409),#25,.T.);
#442=ADVANCED_FACE('',(#410),#15,.F.);
#443=ADVANCED_FACE('',(#411,#412),#26,.T.);
#444=ADVANCED_FACE('',(#413),#27,.F.);
#445=ADVANCED_FACE('',(#414),#28,.F.);
#446=ADVANCED_FACE('',(#415),#428,.T.);
#447=ADVANCED_FACE('',(#416),#29,.F.);
#448=ADVANCED_FACE('',(#417),#30,.T.);
#449=ADVANCED_FACE('',(#418),#429,.T.);
#450=ADVANCED_FACE('',(#419),#16,.F.);
#451=ADVANCED_FACE('',(#420),#31,.F.);
#452=ADVANCED_FACE('',(#421),#32,.T.);
#453=ADVANCED_FACE('',(#422),#17,.T.);
#454=ADVANCED_FACE('',(#423),#18,.T.);
#455=ADVANCED_FACE('',(#424),#430,.T.);
#456=CLOSED_SHELL('',(#431,#432,#433,#434,#435,#436,#437,#438,#439,#440,
#441,#442,#443,#444,#445,#446,#447,#448,#449,#450,#451,#452,#453,#454,#455));
#457=STYLED_ITEM('',(#458),#465);
#458=PRESENTATION_STYLE_ASSIGNMENT((#459));
#459=SURFACE_STYLE_USAGE(.BOTH.,#460);
#460=SURFACE_SIDE_STYLE('',(#461));
#461=SURFACE_STYLE_FILL_AREA(#462);
#462=FILL_AREA_STYLE('',(#463));
#463=FILL_AREA_STYLE_COLOUR('',#464);
#464=COLOUR_RGB('',0.262745098039216,0.282352941176471,0.301960784313725);
#465=MANIFOLD_SOLID_BREP('TPU_Grommet',#456);
#466=SHAPE_DEFINITION_REPRESENTATION(#818,#467);
#467=SHAPE_REPRESENTATION('TPU_Grommet',(#468),#813);
#468=AXIS2_PLACEMENT_3D('',#670,#524,#525);
#469=AXIS2_PLACEMENT_3D('',#671,#526,#527);
#470=AXIS2_PLACEMENT_3D('',#675,#529,#530);
#471=AXIS2_PLACEMENT_3D('',#679,#532,#533);
#472=AXIS2_PLACEMENT_3D('',#681,#534,#535);
#473=AXIS2_PLACEMENT_3D('',#683,#536,#537);
#474=AXIS2_PLACEMENT_3D('',#684,#538,#539);
#475=AXIS2_PLACEMENT_3D('',#685,#540,#541);
#476=AXIS2_PLACEMENT_3D('',#693,#545,#546);
#477=AXIS2_PLACEMENT_3D('',#694,#547,#548);
#478=AXIS2_PLACEMENT_3D('',#702,#552,#553);
#479=AXIS2_PLACEMENT_3D('',#703,#554,#555);
#480=AXIS2_PLACEMENT_3D('',#708,#557,#558);
#481=AXIS2_PLACEMENT_3D('',#711,#560,#561);
#482=AXIS2_PLACEMENT_3D('',#712,#562,#563);
#483=AXIS2_PLACEMENT_3D('',#717,#565,#566);
#484=AXIS2_PLACEMENT_3D('',#720,#568,#569);
#485=AXIS2_PLACEMENT_3D('',#724,#571,#572);
#486=AXIS2_PLACEMENT_3D('',#728,#574,#575);
#487=AXIS2_PLACEMENT_3D('',#730,#576,#577);
#488=AXIS2_PLACEMENT_3D('',#732,#578,#579);
#489=AXIS2_PLACEMENT_3D('',#733,#580,#581);
#490=AXIS2_PLACEMENT_3D('',#736,#583,#584);
#491=AXIS2_PLACEMENT_3D('',#739,#586,#587);
#492=AXIS2_PLACEMENT_3D('',#740,#588,#589);
#493=AXIS2_PLACEMENT_3D('',#741,#590,#591);
#494=AXIS2_PLACEMENT_3D('',#746,#593,#594);
#495=AXIS2_PLACEMENT_3D('',#749,#596,#597);
#496=AXIS2_PLACEMENT_3D('',#755,#601,#602);
#497=AXIS2_PLACEMENT_3D('',#756,#603,#604);
#498=AXIS2_PLACEMENT_3D('',#759,#606,#607);
#499=AXIS2_PLACEMENT_3D('',#763,#610,#611);
#500=AXIS2_PLACEMENT_3D('',#764,#612,#613);
#501=AXIS2_PLACEMENT_3D('',#765,#614,#615);
#502=AXIS2_PLACEMENT_3D('',#768,#618,#619);
#503=AXIS2_PLACEMENT_3D('',#771,#622,#623);
#504=AXIS2_PLACEMENT_3D('',#774,#626,#627);
#505=AXIS2_PLACEMENT_3D('',#775,#628,#629);
#506=AXIS2_PLACEMENT_3D('',#776,#630,#631);
#507=AXIS2_PLACEMENT_3D('',#778,#632,#633);
#508=AXIS2_PLACEMENT_3D('',#780,#634,#635);
#509=AXIS2_PLACEMENT_3D('',#781,#636,#637);
#510=AXIS2_PLACEMENT_3D('',#790,#640,#641);
#511=AXIS2_PLACEMENT_3D('',#791,#642,#643);
#512=AXIS2_PLACEMENT_3D('',#794,#645,#646);
#513=AXIS2_PLACEMENT_3D('',#801,#648,#649);
#514=AXIS2_PLACEMENT_3D('',#802,#650,#651);
#515=AXIS2_PLACEMENT_3D('',#803,#652,#653);
#516=AXIS2_PLACEMENT_3D('',#804,#654,#655);
#517=AXIS2_PLACEMENT_3D('',#805,#656,#657);
#518=AXIS2_PLACEMENT_3D('',#806,#658,#659);
#519=AXIS2_PLACEMENT_3D('',#807,#660,#661);
#520=AXIS2_PLACEMENT_3D('',#808,#662,#663);
#521=AXIS2_PLACEMENT_3D('',#809,#664,#665);
#522=AXIS2_PLACEMENT_3D('',#810,#666,#667);
#523=AXIS2_PLACEMENT_3D('',#811,#668,#669);
#524=DIRECTION('',(0.,0.,1.));
#525=DIRECTION('',(1.,0.,0.));
#526=DIRECTION('',(0.,0.,1.));
#527=DIRECTION('',(1.,0.,0.));
#528=DIRECTION('',(0.,0.708286434027282,-0.705925157061935));
#529=DIRECTION('',(0.,0.,1.));
#530=DIRECTION('',(1.,0.,0.));
#531=DIRECTION('',(0.,-0.708286434027282,0.705925157061935));
#532=DIRECTION('',(-0.730243507988747,-0.683186957604058,-5.54557659469312E-12));
#533=DIRECTION('',(0.36597297600404,-0.391180462166365,-0.844417921916663));
#534=DIRECTION('',(0.,0.,1.));
#535=DIRECTION('',(1.,0.,0.));
#536=DIRECTION('',(0.730243508002254,-0.683186957589621,2.4660080222181E-11));
#537=DIRECTION('',(-0.38116230172207,-0.407415998294567,-0.829896080289318));
#538=DIRECTION('',(0.668398637362899,0.743803241167595,0.));
#539=DIRECTION('',(0.,0.,-1.));
#540=DIRECTION('',(0.668398637371811,0.743803241159587,1.69185221388091E-11));
#541=DIRECTION('',(0.425934930857559,-0.3827548895381,0.819803713830355));
#542=DIRECTION('',(0.,0.,1.));
#543=DIRECTION('',(0.743803241167595,-0.668398637362899,0.));
#544=DIRECTION('',(0.,0.,-1.));
#545=DIRECTION('',(-0.668398637362899,0.743803241167595,0.));
#546=DIRECTION('',(0.,0.,-1.));
#547=DIRECTION('',(-0.66839863737556,0.743803241156218,2.4383994823296E-11));
#548=DIRECTION('',(-0.433264129451543,-0.389341075361242,0.8128319144615));
#549=DIRECTION('',(0.,0.,-1.));
#550=DIRECTION('',(0.743803241167595,0.668398637362899,0.));
#551=DIRECTION('',(0.,0.,-1.));
#552=DIRECTION('',(0.662268755296267,0.749266371698566,0.));
#553=DIRECTION('',(0.,0.,1.));
#554=DIRECTION('',(0.662268755292451,0.749266371701938,6.72106814647577E-12));
#555=DIRECTION('',(0.437040965280009,-0.386295964978238,-0.812262655862406));
#556=DIRECTION('',(0.,0.,1.));
#557=DIRECTION('',(0.662268755319245,0.749266371678256,4.33958979861871E-11));
#558=DIRECTION('',(0.42857665112437,-0.378814445787651,0.820257075418197));
#559=DIRECTION('',(0.,0.,1.));
#560=DIRECTION('',(-0.662268755296238,0.749266371698591,0.));
#561=DIRECTION('',(0.,0.,1.));
#562=DIRECTION('',(-0.662268755322015,0.749266371675808,-4.89610574305743E-11));
#563=DIRECTION('',(-0.428576651097943,-0.378814445773206,-0.820257075438676));
#564=DIRECTION('',(0.,0.,-1.));
#565=DIRECTION('',(-0.662268755299386,0.749266371695809,5.96223070914448E-12));
#566=DIRECTION('',(-0.437040965269705,-0.386295964990086,0.812262655862316));
#567=DIRECTION('',(0.,0.,1.));
#568=DIRECTION('',(0.,0.,-1.));
#569=DIRECTION('',(-1.,0.,0.));
#570=DIRECTION('',(0.,0.708286434030279,0.705925157058927));
#571=DIRECTION('',(0.,0.,-1.));
#572=DIRECTION('',(-1.,0.,0.));
#573=DIRECTION('',(0.,-0.708286434030279,-0.705925157058927));
#574=DIRECTION('',(0.730243508000225,-0.683186957591789,-1.96833941238346E-11));
#575=DIRECTION('',(-0.365972975980976,-0.391180462186069,0.844417921917531));
#576=DIRECTION('',(0.,0.,-1.));
#577=DIRECTION('',(-1.,0.,0.));
#578=DIRECTION('',(-0.73024350798853,-0.68318695760429,6.03126738625874E-12));
#579=DIRECTION('',(0.381162301750753,-0.40741599827154,0.829896080287449));
#580=DIRECTION('',(0.,0.,1.));
#581=DIRECTION('',(1.,0.,0.));
#582=DIRECTION('',(0.,0.707507247423,-0.706706088019574));
#583=DIRECTION('',(0.,0.,-1.));
#584=DIRECTION('',(-1.,0.,0.));
#585=DIRECTION('',(0.,-0.707507247423206,0.706706088019368));
#586=DIRECTION('',(0.,0.,-1.));
#587=DIRECTION('',(-1.,0.,0.));
#588=DIRECTION('',(0.,0.,-1.));
#589=DIRECTION('',(1.,0.,0.));
#590=DIRECTION('',(0.,0.,-1.));
#591=DIRECTION('',(-1.,0.,0.));
#592=DIRECTION('',(0.,-1.,0.));
#593=DIRECTION('',(0.,0.,-1.));
#594=DIRECTION('',(-1.,0.,0.));
#595=DIRECTION('',(0.,-1.,0.));
#596=DIRECTION('',(1.,0.,0.));
#597=DIRECTION('',(0.,0.,-1.));
#598=DIRECTION('',(0.,-1.,0.));
#599=DIRECTION('',(0.,0.,-1.));
#600=DIRECTION('',(0.,0.,-1.));
#601=DIRECTION('',(0.,0.,-1.));
#602=DIRECTION('',(-1.,0.,0.));
#603=DIRECTION('',(0.,0.,-1.));
#604=DIRECTION('',(-1.,0.,0.));
#605=DIRECTION('',(0.,0.,-1.));
#606=DIRECTION('',(1.,0.,0.));
#607=DIRECTION('',(0.,0.,-1.));
#608=DIRECTION('',(0.,-1.,0.));
#609=DIRECTION('',(0.,0.,-1.));
#610=DIRECTION('',(0.,0.,-1.));
#611=DIRECTION('',(-1.,0.,0.));
#612=DIRECTION('',(0.,0.,-1.));
#613=DIRECTION('',(-1.,0.,0.));
#614=DIRECTION('',(0.,0.,-1.));
#615=DIRECTION('',(-1.,0.,0.));
#616=DIRECTION('',(0.,1.,0.));
#617=DIRECTION('',(0.,-1.,0.));
#618=DIRECTION('',(0.73024350799141,-0.683186957601211,0.));
#619=DIRECTION('',(0.,0.,1.));
#620=DIRECTION('',(0.,0.,-1.));
#621=DIRECTION('',(0.,0.,1.));
#622=DIRECTION('',(-0.730243507991369,-0.683186957601255,0.));
#623=DIRECTION('',(0.,0.,1.));
#624=DIRECTION('',(0.,0.,1.));
#625=DIRECTION('',(0.,0.,1.));
#626=DIRECTION('',(0.,0.,-1.));
#627=DIRECTION('',(0.,1.,0.));
#628=DIRECTION('',(0.,0.,-1.));
#629=DIRECTION('',(-1.,0.,0.));
#630=DIRECTION('',(-1.,-4.55509081769677E-11,4.56090420519509E-11));
#631=DIRECTION('',(6.44598318427788E-11,-0.706710081594456,0.707503258347803));
#632=DIRECTION('',(0.,0.,1.));
#633=DIRECTION('',(1.,0.,0.));
#634=DIRECTION('',(-1.,4.68484597872779E-11,-4.69082496490704E-11));
#635=DIRECTION('',(-6.62960183188641E-11,-0.706710081613657,0.707503258328623));
#636=DIRECTION('',(1.,0.,0.));
#637=DIRECTION('',(0.,-1.,0.));
#638=DIRECTION('',(0.,-1.,0.));
#639=DIRECTION('',(0.,-1.,0.));
#640=DIRECTION('',(-1.,3.68003845646738E-11,-3.68352867879617E-11));
#641=DIRECTION('',(-5.20682882705872E-11,-0.706811051848614,0.707402386894939));
#642=DIRECTION('',(1.,0.,0.));
#643=DIRECTION('',(0.,-1.,0.));
#644=DIRECTION('',(0.,1.,0.));
#645=DIRECTION('',(-1.,7.9153636724121E-11,-7.92287076217671E-11));
#646=DIRECTION('',(-1.11993242331474E-10,-0.706811051848614,0.707402386894939));
#647=DIRECTION('',(0.,1.,0.));
#648=DIRECTION('',(0.,0.,-1.));
#649=DIRECTION('',(0.,1.,0.));
#650=DIRECTION('',(0.,0.,1.));
#651=DIRECTION('',(0.,-1.,0.));
#652=DIRECTION('',(0.,0.,1.));
#653=DIRECTION('',(0.,-1.,0.));
#654=DIRECTION('',(0.,0.,1.));
#655=DIRECTION('',(0.,-1.,0.));
#656=DIRECTION('',(0.,0.,1.));
#657=DIRECTION('',(1.,0.,0.));
#658=DIRECTION('',(0.,0.,1.));
#659=DIRECTION('',(0.,-1.,0.));
#660=DIRECTION('',(0.,0.,1.));
#661=DIRECTION('',(1.,0.,0.));
#662=DIRECTION('',(0.,0.,1.));
#663=DIRECTION('',(1.,0.,0.));
#664=DIRECTION('',(0.,0.,-1.));
#665=DIRECTION('',(0.,1.,0.));
#666=DIRECTION('',(0.,0.,1.));
#667=DIRECTION('',(0.,-1.,0.));
#668=DIRECTION('',(0.,0.,1.));
#669=DIRECTION('',(0.,-1.,0.));
#670=CARTESIAN_POINT('',(0.,0.,0.));
#671=CARTESIAN_POINT('',(-0.047,0.0385,0.1044));
#672=CARTESIAN_POINT('',(-0.0467,0.0348351372531585,0.104577121491153));
#673=CARTESIAN_POINT('',(-0.0467,0.0348121822170828,0.1046));
#674=CARTESIAN_POINT('',(-0.0467,0.0348580922892342,0.104554242982306));
#675=CARTESIAN_POINT('',(-0.047,0.0385,0.1046));
#676=CARTESIAN_POINT('',(-0.0473,0.0348121822170828,0.1046));
#677=CARTESIAN_POINT('',(-0.0473,0.0348351372531585,0.104577121491153));
#678=CARTESIAN_POINT('',(-0.0473,0.0348580922892342,0.104554242982306));
#679=CARTESIAN_POINT('',(-0.0513484954783314,0.0391854400338289,0.11336894085019));
#680=CARTESIAN_POINT('',(-0.0474613326299897,0.0350305371879055,0.1044));
#681=CARTESIAN_POINT('',(-0.047,0.0385,0.1044));
#682=CARTESIAN_POINT('',(-0.0465386673700104,0.0350305371879055,0.1044));
#683=CARTESIAN_POINT('',(-0.0426515045220111,0.0391854400340239,0.113368940850045));
#684=CARTESIAN_POINT('',(-0.0465002844950574,0.0310166662232586,0.1046));
#685=CARTESIAN_POINT('',(-0.0583064271731611,0.0416259365818201,0.0814509022487918));
#686=CARTESIAN_POINT('',(-0.0467,0.0311961351526415,0.103789976627364));
#687=CARTESIAN_POINT('',(-0.0465002844950574,0.0310166662232586,0.1036));
#688=CARTESIAN_POINT('',(-0.0467,0.0311961351526415,0.0796));
#689=CARTESIAN_POINT('',(-0.0467,0.0311961351526415,0.1032));
#690=CARTESIAN_POINT('',(-0.0465002844950574,0.0310166662232586,0.1032));
#691=CARTESIAN_POINT('',(-0.0465002844950574,0.0310166662232586,0.1032));
#692=CARTESIAN_POINT('',(-0.0465002844950574,0.0310166662232586,0.1046));
#693=CARTESIAN_POINT('',(-0.0473,0.0311961351526415,0.1046));
#694=CARTESIAN_POINT('',(-0.0356935728271526,0.0416259365818682,0.0814509022490702));
#695=CARTESIAN_POINT('',(-0.0474997155049427,0.0310166662232586,0.1036));
#696=CARTESIAN_POINT('',(-0.0473,0.0311961351526415,0.103789976627364));
#697=CARTESIAN_POINT('',(-0.0474997155049427,0.0310166662232586,0.1046));
#698=CARTESIAN_POINT('',(-0.0474997155049427,0.0310166662232586,0.1032));
#699=CARTESIAN_POINT('',(-0.0473,0.0311961351526415,0.1032));
#700=CARTESIAN_POINT('',(-0.0473,0.0311961351526415,0.1032));
#701=CARTESIAN_POINT('',(-0.0473,0.0311961351526415,0.1032));
#702=CARTESIAN_POINT('',(-0.0467,0.0321956732023189,0.099));
#703=CARTESIAN_POINT('',(-0.0568074923697743,0.0411295806130083,0.117556289952986));
#704=CARTESIAN_POINT('',(-0.0465003787879638,0.0320192300886019,0.0984));
#705=CARTESIAN_POINT('',(-0.0467,0.0321956732023248,0.0982114607161802));
#706=CARTESIAN_POINT('',(-0.0465003787879638,0.0320192300886019,0.099));
#707=CARTESIAN_POINT('',(-0.0465003787879638,0.0320192300886019,0.0988));
#708=CARTESIAN_POINT('',(-0.0568074923696631,0.0411295806148478,0.0796437100468624));
#709=CARTESIAN_POINT('',(-0.0467,0.0321956732023189,0.0989885392838139));
#710=CARTESIAN_POINT('',(-0.0467,0.0321956732023189,0.0796));
#711=CARTESIAN_POINT('',(-0.0474996212120363,0.0320192300886019,0.099));
#712=CARTESIAN_POINT('',(-0.0371925076314581,0.041129580614067,0.117556289952682));
#713=CARTESIAN_POINT('',(-0.0473,0.0321956732023189,0.0982114607161861));
#714=CARTESIAN_POINT('',(-0.0474996212120363,0.0320192300886019,0.0984));
#715=CARTESIAN_POINT('',(-0.0473,0.0321956732023189,0.0984));
#716=CARTESIAN_POINT('',(-0.0473,0.032195673202326,0.098988539283821));
#717=CARTESIAN_POINT('',(-0.0371925076310545,0.04112958061277,0.0796437100481042));
#718=CARTESIAN_POINT('',(-0.0474996212120363,0.0320192300886019,0.0988));
#719=CARTESIAN_POINT('',(-0.0474996212120363,0.0320192300886019,0.099));
#720=CARTESIAN_POINT('',(-0.047,0.0385,0.0984));
#721=CARTESIAN_POINT('',(-0.0473,0.0348351372531585,0.0982228785088468));
#722=CARTESIAN_POINT('',(-0.0473,0.0348121822170828,0.0982));
#723=CARTESIAN_POINT('',(-0.0473,0.0348580922892342,0.0982457570176936));
#724=CARTESIAN_POINT('',(-0.047,0.0385,0.0982));
#725=CARTESIAN_POINT('',(-0.0467,0.0348121822170828,0.0982));
#726=CARTESIAN_POINT('',(-0.0467,0.0348351372531585,0.0982228785088468));
#727=CARTESIAN_POINT('',(-0.0467,0.0348580922892342,0.0982457570176936));
#728=CARTESIAN_POINT('',(-0.0426515045227763,0.0391854400331162,0.0894310591517907));
#729=CARTESIAN_POINT('',(-0.0465386673700104,0.0350305371879055,0.0984));
#730=CARTESIAN_POINT('',(-0.047,0.0385,0.0984));
#731=CARTESIAN_POINT('',(-0.0474613326299897,0.0350305371879055,0.0984));
#732=CARTESIAN_POINT('',(-0.0513484954775572,0.0391854400329924,0.0894310591515777));
#733=CARTESIAN_POINT('',(-0.047,0.0385,0.0982));
#734=CARTESIAN_POINT('',(-0.0473,0.032201410056649,0.098205730358093));
#735=CARTESIAN_POINT('',(-0.0473,0.0322071469109791,0.0982));
#736=CARTESIAN_POINT('',(-0.047,0.0385,0.0984));
#737=CARTESIAN_POINT('',(-0.0467,0.0322014100566519,0.0982057303580901));
#738=CARTESIAN_POINT('',(-0.0467,0.0322071469109791,0.0982));
#739=CARTESIAN_POINT('',(-0.047,0.0385,0.0982));
#740=CARTESIAN_POINT('',(-0.047,0.0385034633838504,0.099));
#741=CARTESIAN_POINT('',(-0.047,0.0385,0.099));
#742=CARTESIAN_POINT('',(-0.0482,0.0331559509892917,0.099));
#743=CARTESIAN_POINT('',(-0.0458,0.0331559509892917,0.099));
#744=CARTESIAN_POINT('',(-0.0458,0.0335676953437018,0.099));
#745=CARTESIAN_POINT('',(-0.0458,0.0339794396981119,0.099));
#746=CARTESIAN_POINT('',(-0.047,0.0385,0.099));
#747=CARTESIAN_POINT('',(-0.0482,0.0339794396981119,0.099));
#748=CARTESIAN_POINT('',(-0.0482,0.0335676953437018,0.099));
#749=CARTESIAN_POINT('',(-0.0482,0.0335676953437018,0.099));
#750=CARTESIAN_POINT('',(-0.0482,0.0335676953437018,0.0982));
#751=CARTESIAN_POINT('',(-0.0482,0.0339794396981119,0.0982));
#752=CARTESIAN_POINT('',(-0.0482,0.0331559509892917,0.0982));
#753=CARTESIAN_POINT('',(-0.0482,0.0331559509892917,0.099));
#754=CARTESIAN_POINT('',(-0.0482,0.0339794396981119,0.099));
#755=CARTESIAN_POINT('',(-0.047,0.0385,0.099));
#756=CARTESIAN_POINT('',(-0.047,0.0385,0.0982));
#757=CARTESIAN_POINT('',(-0.0458,0.0339794396981119,0.0982));
#758=CARTESIAN_POINT('',(-0.0458,0.0339794396981119,0.099));
#759=CARTESIAN_POINT('',(-0.0458,0.0335676953437018,0.099));
#760=CARTESIAN_POINT('',(-0.0458,0.0335676953437018,0.0982));
#761=CARTESIAN_POINT('',(-0.0458,0.0331559509892917,0.0982));
#762=CARTESIAN_POINT('',(-0.0458,0.0331559509892917,0.099));
#763=CARTESIAN_POINT('',(-0.047,0.0385,0.099));
#764=CARTESIAN_POINT('',(-0.047,0.0385,0.0982));
#765=CARTESIAN_POINT('',(-0.0618710678118655,0.0015,0.0982));
#766=CARTESIAN_POINT('',(-0.0467,0.0336309657032331,0.0982));
#767=CARTESIAN_POINT('',(-0.0473,0.0015,0.0982));
#768=CARTESIAN_POINT('',(-0.0465386673700104,0.0350305371879055,0.1));
#769=CARTESIAN_POINT('',(-0.0467,0.0348580922892342,0.0796));
#770=CARTESIAN_POINT('',(-0.0465386673700104,0.0350305371879055,0.1));
#771=CARTESIAN_POINT('',(-0.0473,0.0348580922892342,0.1));
#772=CARTESIAN_POINT('',(-0.0474613326299897,0.0350305371879055,0.1));
#773=CARTESIAN_POINT('',(-0.0473,0.0348580922892342,0.1046));
#774=CARTESIAN_POINT('',(-0.047,0.0385,0.0992));
#775=CARTESIAN_POINT('',(-0.047,0.0385,0.0988));
#776=CARTESIAN_POINT('',(-0.0473000004237794,4.67833152067835,-4.55236190331839));
#777=CARTESIAN_POINT('',(-0.0473,0.0329106602696103,0.0997026150193405));
#778=CARTESIAN_POINT('',(-0.047,0.0385,0.0997026150193405));
#779=CARTESIAN_POINT('',(-0.0467,0.0329106602696103,0.0997026150193405));
#780=CARTESIAN_POINT('',(-0.0466999995641491,4.67832988021234,-4.55236026075875));
#781=CARTESIAN_POINT('',(-0.0467,0.0336309657032331,0.0796));
#782=CARTESIAN_POINT('',(-0.0467,0.0336309657032331,0.1046));
#783=CARTESIAN_POINT('',(-0.0467,0.0320069267677009,0.1046));
#784=CARTESIAN_POINT('',(-0.0467,0.0329106602696103,0.0997026150193405));
#785=CARTESIAN_POINT('',(-0.0467,0.0327673128254867,0.100868408230556));
#786=CARTESIAN_POINT('',(-0.0467,0.0326239809065829,0.102034203352124));
#787=CARTESIAN_POINT('',(-0.0467,0.0324806614078952,0.1032));
#788=CARTESIAN_POINT('',(-0.0467,0.0324806614078952,0.1032));
#789=CARTESIAN_POINT('',(-0.0467,0.0336309657032331,0.1032));
#790=CARTESIAN_POINT('',(-0.04669999946574,7.28361154036367,-7.15469297292722));
#791=CARTESIAN_POINT('',(-0.0473,0.0336309657032331,0.0796));
#792=CARTESIAN_POINT('',(-0.0473,0.0385,0.1046));
#793=CARTESIAN_POINT('',(-0.0473,0.0320069267677009,0.1046));
#794=CARTESIAN_POINT('',(-0.0472999988508647,7.28361154036367,-7.15469297292722));
#795=CARTESIAN_POINT('',(-0.0473,0.0385,0.1032));
#796=CARTESIAN_POINT('',(-0.0473,0.0324806614078952,0.1032));
#797=CARTESIAN_POINT('',(-0.0473,0.0329106602696103,0.0997026150193405));
#798=CARTESIAN_POINT('',(-0.0473,0.0327673128254232,0.100868408231072));
#799=CARTESIAN_POINT('',(-0.0473,0.0326239809065685,0.102034203352242));
#800=CARTESIAN_POINT('',(-0.0473,0.0324806614078952,0.1032));
#801=CARTESIAN_POINT('',(-0.047,0.0385,0.1046));
#802=CARTESIAN_POINT('',(-0.047,0.0385,0.1036));
#803=CARTESIAN_POINT('',(-0.047,0.0385,0.1046));
#804=CARTESIAN_POINT('',(-0.047,0.0385,0.1));
#805=CARTESIAN_POINT('',(-0.047,0.0385,0.1032));
#806=CARTESIAN_POINT('',(-0.047,0.0385,0.1032));
#807=CARTESIAN_POINT('',(-0.047,0.0385,0.1032));
#808=CARTESIAN_POINT('',(-0.047,0.0385,0.1046));
#809=CARTESIAN_POINT('',(-0.047,0.0385,0.1046));
#810=CARTESIAN_POINT('',(-0.047,0.0385,0.099));
#811=CARTESIAN_POINT('',(-0.047,0.0385,0.102963439196978));
#812=MECHANICAL_DESIGN_GEOMETRIC_PRESENTATION_REPRESENTATION('',(#457),
#813);
#813=(
GEOMETRIC_REPRESENTATION_CONTEXT(3)
GLOBAL_UNCERTAINTY_ASSIGNED_CONTEXT((#814))
GLOBAL_UNIT_ASSIGNED_CONTEXT((#817,#816,#815))
REPRESENTATION_CONTEXT('TPU_Grommet','TOP_LEVEL_ASSEMBLY_PART')
);
#814=UNCERTAINTY_MEASURE_WITH_UNIT(LENGTH_MEASURE(1.E-6),#817,
'DISTANCE_ACCURACY_VALUE','Maximum Tolerance applied to model');
#815=(
NAMED_UNIT(*)
SI_UNIT($,.STERADIAN.)
SOLID_ANGLE_UNIT()
);
#816=(
NAMED_UNIT(*)
PLANE_ANGLE_UNIT()
SI_UNIT($,.RADIAN.)
);
#817=(
LENGTH_UNIT()
NAMED_UNIT(*)
SI_UNIT($,.METRE.)
);
#818=PRODUCT_DEFINITION_SHAPE('','',#819);
#819=PRODUCT_DEFINITION('','',#821,#820);
#820=PRODUCT_DEFINITION_CONTEXT('',#827,'design');
#821=PRODUCT_DEFINITION_FORMATION_WITH_SPECIFIED_SOURCE('','',#823,
 .NOT_KNOWN.);
#822=PRODUCT_RELATED_PRODUCT_CATEGORY('','',(#823));
#823=PRODUCT('TPU_Grommet','TPU_Grommet','TPU_Grommet',(#825));
#824=PRODUCT_CATEGORY('','');
#825=PRODUCT_CONTEXT('',#827,'mechanical');
#826=APPLICATION_PROTOCOL_DEFINITION('international standard',
'ap242_managed_model_based_3d_engineering',2020,#827);
#827=APPLICATION_CONTEXT('managed model based 3d engineering');
ENDSEC;
END-ISO-10303-21;
