ISO-10303-21;
HEADER;
/* Generated by software containing ST-Developer
 * from STEP Tools, Inc. (www.steptools.com) 
 */
/* OPTION: using custom renumber hook */

FILE_DESCRIPTION(
/* description */ ('STEP AP242 Edition 2',
'CAx-IF Rec.Pracs.---Representation and Presentation of Product Manufa
cturing Information (PMI)---4.0---2014-10-13',
'CAx-IF Rec.Pracs.---3D Tessellated Geometry---0.4---2014-09-14','2;1',
'CAx-IF Rec.Pracs.---User Defined Attributes---1.5---2016-08-15'),
/* implementation_level */ '2;1');

FILE_NAME(
/* name */ 'Pneuma_101 - Table_Mount_TPU',
/* time_stamp */ '2026-04-29T18:03:13Z',
/* author */ (''),
/* organization */ (''),
/* preprocessor_version */ 'ST-DEVELOPER v20',
/* originating_system */ 'ONSHAPE BY PTC INC, 1.214',
/* authorisation */ '  ');

FILE_SCHEMA (('AP242_MANAGED_MODEL_BASED_3D_ENGINEERING_MIM_LF { 1 0 10303 442 3 1 4 }'));
ENDSEC;

DATA;
#10=SHAPE_REPRESENTATION_RELATIONSHIP('','',#747,#11);
#11=ADVANCED_BREP_SHAPE_REPRESENTATION('',(#745),#1401);
#12=B_SPLINE_SURFACE_WITH_KNOTS('',3,1,((#1066,#1067),(#1068,#1069),(#1070,
#1071),(#1072,#1073)),.SURF_OF_LINEAR_EXTRUSION.,.F.,.F.,.F.,(4,4),(2,2),
(6.4008463975951E-13,0.99999999999935),(0.,1.),.PIECEWISE_BEZIER_KNOTS.);
#13=B_SPLINE_SURFACE_WITH_KNOTS('',3,1,((#1080,#1081),(#1082,#1083),(#1084,
#1085),(#1086,#1087)),.SURF_OF_LINEAR_EXTRUSION.,.F.,.F.,.F.,(4,4),(2,2),
(6.50444203905466E-13,0.999999999999351),(0.,1.),
 .PIECEWISE_BEZIER_KNOTS.);
#14=B_SPLINE_SURFACE_WITH_KNOTS('',3,1,((#1092,#1093),(#1094,#1095),(#1096,
#1097),(#1098,#1099)),.SURF_OF_LINEAR_EXTRUSION.,.F.,.F.,.F.,(4,4),(2,2),
(6.44022543788657E-13,0.999999999999349),(0.,1.),
 .PIECEWISE_BEZIER_KNOTS.);
#15=B_SPLINE_SURFACE_WITH_KNOTS('',3,1,((#1106,#1107),(#1108,#1109),(#1110,
#1111),(#1112,#1113)),.SURF_OF_LINEAR_EXTRUSION.,.F.,.F.,.F.,(4,4),(2,2),
(6.51198191130497E-13,0.999999999999355),(0.,1.),
 .PIECEWISE_BEZIER_KNOTS.);
#16=B_SPLINE_SURFACE_WITH_KNOTS('',3,1,((#1124,#1125),(#1126,#1127),(#1128,
#1129),(#1130,#1131)),.SURF_OF_LINEAR_EXTRUSION.,.F.,.F.,.F.,(4,4),(2,2),
(6.45109987873869E-13,0.999999999999349),(0.,1.),
 .PIECEWISE_BEZIER_KNOTS.);
#17=B_SPLINE_SURFACE_WITH_KNOTS('',3,1,((#1133,#1134),(#1135,#1136),(#1137,
#1138),(#1139,#1140)),.SURF_OF_LINEAR_EXTRUSION.,.F.,.F.,.F.,(4,4),(2,2),
(6.52743174461728E-13,0.99999999999935),(0.,1.),
 .PIECEWISE_BEZIER_KNOTS.);
#18=B_SPLINE_SURFACE_WITH_KNOTS('',3,1,((#1143,#1144),(#1145,#1146),(#1147,
#1148),(#1149,#1150)),.SURF_OF_LINEAR_EXTRUSION.,.F.,.F.,.F.,(4,4),(2,2),
(6.47863030135023E-13,0.99999999999935),(0.,1.),
 .PIECEWISE_BEZIER_KNOTS.);
#19=B_SPLINE_SURFACE_WITH_KNOTS('',3,1,((#1152,#1153),(#1154,#1155),(#1156,
#1157),(#1158,#1159)),.SURF_OF_LINEAR_EXTRUSION.,.F.,.F.,.F.,(4,4),(2,2),
(6.47660907745017E-13,0.999999999999354),(0.,1.),
 .PIECEWISE_BEZIER_KNOTS.);
#20=B_SPLINE_SURFACE_WITH_KNOTS('',3,1,((#1204,#1205),(#1206,#1207),(#1208,
#1209),(#1210,#1211),(#1212,#1213),(#1214,#1215),(#1216,#1217)),
 .SURF_OF_LINEAR_EXTRUSION.,.F.,.F.,.F.,(4,1,1,1,4),(2,2),(-2.75716851249554E-9,
0.249999998621416,0.5,0.750000001378584,1.00000000275717),(0.,1.),
 .UNSPECIFIED.);
#21=B_SPLINE_SURFACE_WITH_KNOTS('',3,1,((#1227,#1228),(#1229,#1230),(#1231,
#1232),(#1233,#1234),(#1235,#1236),(#1237,#1238),(#1239,#1240)),
 .SURF_OF_LINEAR_EXTRUSION.,.F.,.F.,.F.,(4,1,1,1,4),(2,2),(-2.75716435272616E-9,
0.249999998621418,0.5,0.750000001378581,1.00000000275716),(0.,1.),
 .UNSPECIFIED.);
#22=B_SPLINE_SURFACE_WITH_KNOTS('',3,1,((#1250,#1251),(#1252,#1253),(#1254,
#1255),(#1256,#1257),(#1258,#1259),(#1260,#1261),(#1262,#1263)),
 .SURF_OF_LINEAR_EXTRUSION.,.F.,.F.,.F.,(4,1,1,1,4),(2,2),(-2.4111079744155E-9,
0.249999998794445,0.499999999999997,0.75000000120555,1.0000000024111),(0.,
1.),.UNSPECIFIED.);
#23=B_SPLINE_SURFACE_WITH_KNOTS('',3,1,((#1265,#1266),(#1267,#1268),(#1269,
#1270),(#1271,#1272),(#1273,#1274),(#1275,#1276),(#1277,#1278)),
 .SURF_OF_LINEAR_EXTRUSION.,.F.,.F.,.F.,(4,1,1,1,4),(2,2),(-2.41111099300852E-9,
0.249999998794446,0.500000000000002,0.750000001205559,1.00000000241112),
(0.,1.),.UNSPECIFIED.);
#24=B_SPLINE_SURFACE_WITH_KNOTS('',3,1,((#1279,#1280),(#1281,#1282),(#1283,
#1284),(#1285,#1286),(#1287,#1288),(#1289,#1290),(#1291,#1292)),
 .SURF_OF_LINEAR_EXTRUSION.,.F.,.F.,.F.,(4,1,1,1,4),(2,2),(-2.41110835891055E-9,
0.249999998794447,0.500000000000002,0.750000001205557,1.00000000241111),
(0.,1.),.UNSPECIFIED.);
#25=B_SPLINE_SURFACE_WITH_KNOTS('',3,1,((#1304,#1305),(#1306,#1307),(#1308,
#1309),(#1310,#1311),(#1312,#1313),(#1314,#1315),(#1316,#1317)),
 .SURF_OF_LINEAR_EXTRUSION.,.F.,.F.,.F.,(4,1,1,1,4),(2,2),(-2.41111135811159E-9,
0.249999998794445,0.500000000000001,0.750000001205557,1.00000000241111),
(0.,1.),.UNSPECIFIED.);
#26=B_SPLINE_SURFACE_WITH_KNOTS('',3,1,((#1333,#1334),(#1335,#1336),(#1337,
#1338),(#1339,#1340),(#1341,#1342),(#1343,#1344),(#1345,#1346)),
 .SURF_OF_LINEAR_EXTRUSION.,.F.,.F.,.F.,(4,1,1,1,4),(2,2),(-2.75717364613364E-9,
0.249999998621412,0.499999999999997,0.750000001378583,1.00000000275717),
(0.,1.),.UNSPECIFIED.);
#27=B_SPLINE_SURFACE_WITH_KNOTS('',3,1,((#1358,#1359),(#1360,#1361),(#1362,
#1363),(#1364,#1365),(#1366,#1367),(#1368,#1369),(#1370,#1371)),
 .SURF_OF_LINEAR_EXTRUSION.,.F.,.F.,.F.,(4,1,1,1,4),(2,2),(-2.7571696603714E-9,
0.249999998621414,0.499999999999998,0.750000001378582,1.00000000275717),
(0.,1.),.UNSPECIFIED.);
#28=CYLINDRICAL_SURFACE('',#753,0.00175);
#29=CYLINDRICAL_SURFACE('',#759,0.003);
#30=CYLINDRICAL_SURFACE('',#770,0.0046);
#31=CYLINDRICAL_SURFACE('',#777,0.0046);
#32=CIRCLE('',#752,0.003);
#33=CIRCLE('',#754,0.00175);
#34=CIRCLE('',#755,0.00175);
#35=CIRCLE('',#760,0.003);
#36=CIRCLE('',#767,0.0046);
#37=CIRCLE('',#769,0.0046);
#38=CIRCLE('',#776,0.0046);
#39=CIRCLE('',#778,0.0046);
#40=B_SPLINE_CURVE_WITH_KNOTS('',3,(#929,#930,#931,#932),.UNSPECIFIED.,
 .F.,.F.,(4,4),(0.,1.),.UNSPECIFIED.);
#41=B_SPLINE_CURVE_WITH_KNOTS('',3,(#934,#935,#936,#937),.UNSPECIFIED.,
 .F.,.F.,(4,4),(0.,1.),.UNSPECIFIED.);
#42=B_SPLINE_CURVE_WITH_KNOTS('',3,(#943,#944,#945,#946,#947,#948,#949),
 .UNSPECIFIED.,.F.,.F.,(4,1,1,1,4),(1.00578488582956E-11,0.00139584799300886,
0.00279169597595988,0.00418754395891089,0.00558339194186191),
 .UNSPECIFIED.);
#43=B_SPLINE_CURVE_WITH_KNOTS('',3,(#951,#952,#953,#954,#955,#956,#957),
 .UNSPECIFIED.,.F.,.F.,(4,1,1,1,4),(1.00476253480588E-11,0.00139359894016112,
0.00278719787027462,0.00418079680038812,0.00557439573050162),
 .UNSPECIFIED.);
#44=B_SPLINE_CURVE_WITH_KNOTS('',3,(#966,#967,#968,#969),.UNSPECIFIED.,
 .F.,.F.,(4,4),(0.,1.),.UNSPECIFIED.);
#45=B_SPLINE_CURVE_WITH_KNOTS('',3,(#971,#972,#973,#974),.UNSPECIFIED.,
 .F.,.F.,(4,4),(0.,1.),.UNSPECIFIED.);
#46=B_SPLINE_CURVE_WITH_KNOTS('',3,(#984,#985,#986,#987,#988,#989,#990),
 .UNSPECIFIED.,.F.,.F.,(4,1,1,1,4),(1.00475728472921E-11,0.00139359894016105,
0.00278719787027452,0.004180796800388,0.00557439573050147),
 .UNSPECIFIED.);
#47=B_SPLINE_CURVE_WITH_KNOTS('',3,(#992,#993,#994,#995,#996,#997,#998),
 .UNSPECIFIED.,.F.,.F.,(4,1,1,1,4),(1.00475866167816E-11,0.00139359894016112,
0.00278719787027466,0.00418079680038819,0.00557439573050173),
 .UNSPECIFIED.);
#48=B_SPLINE_CURVE_WITH_KNOTS('',3,(#1048,#1049,#1050,#1051),
 .UNSPECIFIED.,.F.,.F.,(4,4),(0.,1.),.UNSPECIFIED.);
#49=B_SPLINE_CURVE_WITH_KNOTS('',3,(#1053,#1054,#1055,#1056),
 .UNSPECIFIED.,.F.,.F.,(4,4),(0.,1.),.UNSPECIFIED.);
#50=B_SPLINE_CURVE_WITH_KNOTS('',3,(#1057,#1058,#1059,#1060),
 .UNSPECIFIED.,.F.,.F.,(4,4),(0.,1.),.UNSPECIFIED.);
#51=B_SPLINE_CURVE_WITH_KNOTS('',3,(#1062,#1063,#1064,#1065),
 .UNSPECIFIED.,.F.,.F.,(4,4),(0.,1.),.UNSPECIFIED.);
#52=B_SPLINE_CURVE_WITH_KNOTS('',3,(#1076,#1077,#1078,#1079),
 .UNSPECIFIED.,.F.,.F.,(4,4),(0.,1.),.UNSPECIFIED.);
#53=B_SPLINE_CURVE_WITH_KNOTS('',3,(#1088,#1089,#1090,#1091),
 .UNSPECIFIED.,.F.,.F.,(4,4),(0.,1.),.UNSPECIFIED.);
#54=B_SPLINE_CURVE_WITH_KNOTS('',3,(#1100,#1101,#1102,#1103),
 .UNSPECIFIED.,.F.,.F.,(4,4),(0.,1.),.UNSPECIFIED.);
#55=B_SPLINE_CURVE_WITH_KNOTS('',3,(#1114,#1115,#1116,#1117),
 .UNSPECIFIED.,.F.,.F.,(4,4),(0.,1.),.UNSPECIFIED.);
#56=B_SPLINE_CURVE_WITH_KNOTS('',3,(#1189,#1190,#1191,#1192,#1193,#1194,
#1195),.UNSPECIFIED.,.F.,.F.,(4,1,1,1,4),(1.15357637126559E-11,0.00139543926981534,
0.00279087852809491,0.00418631778637448,0.00558175704465406),
 .UNSPECIFIED.);
#57=B_SPLINE_CURVE_WITH_KNOTS('',3,(#1197,#1198,#1199,#1200,#1201,#1202,
#1203),.UNSPECIFIED.,.F.,.F.,(4,1,1,1,4),(1.15258383511657E-11,0.00139355949917619,
0.00278711898682655,0.0041806784744769,0.00557423796212726),
 .UNSPECIFIED.);
#58=B_SPLINE_CURVE_WITH_KNOTS('',3,(#1220,#1221,#1222,#1223,#1224,#1225,
#1226),.UNSPECIFIED.,.F.,.F.,(4,1,1,1,4),(0.,0.25,0.5,0.75,1.),
 .UNSPECIFIED.);
#59=B_SPLINE_CURVE_WITH_KNOTS('',3,(#1241,#1242,#1243,#1244,#1245,#1246,
#1247),.UNSPECIFIED.,.F.,.F.,(4,1,1,1,4),(0.,0.25,0.5,0.75,1.),
 .UNSPECIFIED.);
#60=B_SPLINE_CURVE_WITH_KNOTS('',3,(#1293,#1294,#1295,#1296,#1297,#1298,
#1299),.UNSPECIFIED.,.F.,.F.,(4,1,1,1,4),(0.,0.25,0.5,0.75,1.),
 .UNSPECIFIED.);
#61=B_SPLINE_CURVE_WITH_KNOTS('',3,(#1318,#1319,#1320,#1321,#1322,#1323,
#1324),.UNSPECIFIED.,.F.,.F.,(4,1,1,1,4),(0.,0.25,0.5,0.75,1.),
 .UNSPECIFIED.);
#62=B_SPLINE_CURVE_WITH_KNOTS('',3,(#1349,#1350,#1351,#1352,#1353,#1354,
#1355),.UNSPECIFIED.,.F.,.F.,(4,1,1,1,4),(1.15258280231213E-11,0.00139355949917621,
0.0027871189868266,0.00418067847447698,0.00557423796212737),
 .UNSPECIFIED.);
#63=B_SPLINE_CURVE_WITH_KNOTS('',3,(#1372,#1373,#1374,#1375,#1376,#1377,
#1378),.UNSPECIFIED.,.F.,.F.,(4,1,1,1,4),(1.15258387812899E-11,0.00139355949917621,
0.00278711898682658,0.00418067847447696,0.00557423796212733),
 .UNSPECIFIED.);
#64=ORIENTED_EDGE('',*,*,#268,.F.);
#65=ORIENTED_EDGE('',*,*,#269,.T.);
#66=ORIENTED_EDGE('',*,*,#270,.T.);
#67=ORIENTED_EDGE('',*,*,#271,.T.);
#68=ORIENTED_EDGE('',*,*,#272,.T.);
#69=ORIENTED_EDGE('',*,*,#273,.F.);
#70=ORIENTED_EDGE('',*,*,#274,.T.);
#71=ORIENTED_EDGE('',*,*,#275,.F.);
#72=ORIENTED_EDGE('',*,*,#276,.F.);
#73=ORIENTED_EDGE('',*,*,#277,.F.);
#74=ORIENTED_EDGE('',*,*,#278,.F.);
#75=ORIENTED_EDGE('',*,*,#279,.F.);
#76=ORIENTED_EDGE('',*,*,#280,.T.);
#77=ORIENTED_EDGE('',*,*,#281,.T.);
#78=ORIENTED_EDGE('',*,*,#282,.T.);
#79=ORIENTED_EDGE('',*,*,#283,.T.);
#80=ORIENTED_EDGE('',*,*,#284,.T.);
#81=ORIENTED_EDGE('',*,*,#285,.F.);
#82=ORIENTED_EDGE('',*,*,#286,.F.);
#83=ORIENTED_EDGE('',*,*,#287,.F.);
#84=ORIENTED_EDGE('',*,*,#288,.F.);
#85=ORIENTED_EDGE('',*,*,#289,.T.);
#86=ORIENTED_EDGE('',*,*,#290,.T.);
#87=ORIENTED_EDGE('',*,*,#291,.F.);
#88=ORIENTED_EDGE('',*,*,#292,.F.);
#89=ORIENTED_EDGE('',*,*,#293,.F.);
#90=ORIENTED_EDGE('',*,*,#294,.T.);
#91=ORIENTED_EDGE('',*,*,#295,.T.);
#92=ORIENTED_EDGE('',*,*,#296,.T.);
#93=ORIENTED_EDGE('',*,*,#297,.T.);
#94=ORIENTED_EDGE('',*,*,#270,.F.);
#95=ORIENTED_EDGE('',*,*,#298,.T.);
#96=ORIENTED_EDGE('',*,*,#299,.T.);
#97=ORIENTED_EDGE('',*,*,#289,.F.);
#98=ORIENTED_EDGE('',*,*,#300,.F.);
#99=ORIENTED_EDGE('',*,*,#301,.F.);
#100=ORIENTED_EDGE('',*,*,#282,.F.);
#101=ORIENTED_EDGE('',*,*,#302,.T.);
#102=ORIENTED_EDGE('',*,*,#303,.T.);
#103=ORIENTED_EDGE('',*,*,#304,.T.);
#104=ORIENTED_EDGE('',*,*,#305,.T.);
#105=ORIENTED_EDGE('',*,*,#279,.T.);
#106=ORIENTED_EDGE('',*,*,#306,.T.);
#107=ORIENTED_EDGE('',*,*,#307,.F.);
#108=ORIENTED_EDGE('',*,*,#291,.T.);
#109=ORIENTED_EDGE('',*,*,#308,.T.);
#110=ORIENTED_EDGE('',*,*,#309,.F.);
#111=ORIENTED_EDGE('',*,*,#268,.T.);
#112=ORIENTED_EDGE('',*,*,#310,.T.);
#113=ORIENTED_EDGE('',*,*,#311,.T.);
#114=ORIENTED_EDGE('',*,*,#312,.F.);
#115=ORIENTED_EDGE('',*,*,#293,.T.);
#116=ORIENTED_EDGE('',*,*,#312,.T.);
#117=ORIENTED_EDGE('',*,*,#313,.T.);
#118=ORIENTED_EDGE('',*,*,#314,.T.);
#119=ORIENTED_EDGE('',*,*,#295,.F.);
#120=ORIENTED_EDGE('',*,*,#315,.T.);
#121=ORIENTED_EDGE('',*,*,#316,.T.);
#122=ORIENTED_EDGE('',*,*,#317,.T.);
#123=ORIENTED_EDGE('',*,*,#318,.T.);
#124=ORIENTED_EDGE('',*,*,#296,.F.);
#125=ORIENTED_EDGE('',*,*,#314,.F.);
#126=ORIENTED_EDGE('',*,*,#319,.T.);
#127=ORIENTED_EDGE('',*,*,#317,.F.);
#128=ORIENTED_EDGE('',*,*,#313,.F.);
#129=ORIENTED_EDGE('',*,*,#311,.F.);
#130=ORIENTED_EDGE('',*,*,#303,.F.);
#131=ORIENTED_EDGE('',*,*,#320,.T.);
#132=ORIENTED_EDGE('',*,*,#321,.T.);
#133=ORIENTED_EDGE('',*,*,#315,.F.);
#134=ORIENTED_EDGE('',*,*,#322,.T.);
#135=ORIENTED_EDGE('',*,*,#304,.F.);
#136=ORIENTED_EDGE('',*,*,#316,.F.);
#137=ORIENTED_EDGE('',*,*,#321,.F.);
#138=ORIENTED_EDGE('',*,*,#323,.F.);
#139=ORIENTED_EDGE('',*,*,#288,.T.);
#140=ORIENTED_EDGE('',*,*,#294,.F.);
#141=ORIENTED_EDGE('',*,*,#323,.T.);
#142=ORIENTED_EDGE('',*,*,#309,.T.);
#143=ORIENTED_EDGE('',*,*,#324,.T.);
#144=ORIENTED_EDGE('',*,*,#298,.F.);
#145=ORIENTED_EDGE('',*,*,#269,.F.);
#146=ORIENTED_EDGE('',*,*,#318,.F.);
#147=ORIENTED_EDGE('',*,*,#325,.T.);
#148=ORIENTED_EDGE('',*,*,#271,.F.);
#149=ORIENTED_EDGE('',*,*,#297,.F.);
#150=ORIENTED_EDGE('',*,*,#319,.F.);
#151=ORIENTED_EDGE('',*,*,#310,.F.);
#152=ORIENTED_EDGE('',*,*,#272,.F.);
#153=ORIENTED_EDGE('',*,*,#325,.F.);
#154=ORIENTED_EDGE('',*,*,#301,.T.);
#155=ORIENTED_EDGE('',*,*,#326,.F.);
#156=ORIENTED_EDGE('',*,*,#306,.F.);
#157=ORIENTED_EDGE('',*,*,#278,.T.);
#158=ORIENTED_EDGE('',*,*,#322,.F.);
#159=ORIENTED_EDGE('',*,*,#327,.T.);
#160=ORIENTED_EDGE('',*,*,#280,.F.);
#161=ORIENTED_EDGE('',*,*,#305,.F.);
#162=ORIENTED_EDGE('',*,*,#320,.F.);
#163=ORIENTED_EDGE('',*,*,#302,.F.);
#164=ORIENTED_EDGE('',*,*,#281,.F.);
#165=ORIENTED_EDGE('',*,*,#327,.F.);
#166=ORIENTED_EDGE('',*,*,#328,.F.);
#167=ORIENTED_EDGE('',*,*,#329,.F.);
#168=ORIENTED_EDGE('',*,*,#330,.F.);
#169=ORIENTED_EDGE('',*,*,#331,.F.);
#170=ORIENTED_EDGE('',*,*,#285,.T.);
#171=ORIENTED_EDGE('',*,*,#332,.T.);
#172=ORIENTED_EDGE('',*,*,#333,.T.);
#173=ORIENTED_EDGE('',*,*,#334,.T.);
#174=ORIENTED_EDGE('',*,*,#335,.F.);
#175=ORIENTED_EDGE('',*,*,#336,.F.);
#176=ORIENTED_EDGE('',*,*,#283,.F.);
#177=ORIENTED_EDGE('',*,*,#337,.F.);
#178=ORIENTED_EDGE('',*,*,#338,.F.);
#179=ORIENTED_EDGE('',*,*,#339,.T.);
#180=ORIENTED_EDGE('',*,*,#340,.T.);
#181=ORIENTED_EDGE('',*,*,#333,.F.);
#182=ORIENTED_EDGE('',*,*,#341,.F.);
#183=ORIENTED_EDGE('',*,*,#335,.T.);
#184=ORIENTED_EDGE('',*,*,#342,.F.);
#185=ORIENTED_EDGE('',*,*,#339,.F.);
#186=ORIENTED_EDGE('',*,*,#343,.F.);
#187=ORIENTED_EDGE('',*,*,#344,.F.);
#188=ORIENTED_EDGE('',*,*,#329,.T.);
#189=ORIENTED_EDGE('',*,*,#330,.T.);
#190=ORIENTED_EDGE('',*,*,#344,.T.);
#191=ORIENTED_EDGE('',*,*,#345,.F.);
#192=ORIENTED_EDGE('',*,*,#346,.F.);
#193=ORIENTED_EDGE('',*,*,#347,.F.);
#194=ORIENTED_EDGE('',*,*,#345,.T.);
#195=ORIENTED_EDGE('',*,*,#343,.T.);
#196=ORIENTED_EDGE('',*,*,#338,.T.);
#197=ORIENTED_EDGE('',*,*,#328,.T.);
#198=ORIENTED_EDGE('',*,*,#340,.F.);
#199=ORIENTED_EDGE('',*,*,#334,.F.);
#200=ORIENTED_EDGE('',*,*,#342,.T.);
#201=ORIENTED_EDGE('',*,*,#341,.T.);
#202=ORIENTED_EDGE('',*,*,#332,.F.);
#203=ORIENTED_EDGE('',*,*,#284,.F.);
#204=ORIENTED_EDGE('',*,*,#336,.T.);
#205=ORIENTED_EDGE('',*,*,#347,.T.);
#206=ORIENTED_EDGE('',*,*,#337,.T.);
#207=ORIENTED_EDGE('',*,*,#287,.T.);
#208=ORIENTED_EDGE('',*,*,#348,.F.);
#209=ORIENTED_EDGE('',*,*,#346,.T.);
#210=ORIENTED_EDGE('',*,*,#348,.T.);
#211=ORIENTED_EDGE('',*,*,#286,.T.);
#212=ORIENTED_EDGE('',*,*,#331,.T.);
#213=ORIENTED_EDGE('',*,*,#349,.F.);
#214=ORIENTED_EDGE('',*,*,#350,.F.);
#215=ORIENTED_EDGE('',*,*,#275,.T.);
#216=ORIENTED_EDGE('',*,*,#351,.T.);
#217=ORIENTED_EDGE('',*,*,#352,.F.);
#218=ORIENTED_EDGE('',*,*,#353,.T.);
#219=ORIENTED_EDGE('',*,*,#276,.T.);
#220=ORIENTED_EDGE('',*,*,#350,.T.);
#221=ORIENTED_EDGE('',*,*,#354,.F.);
#222=ORIENTED_EDGE('',*,*,#355,.F.);
#223=ORIENTED_EDGE('',*,*,#273,.T.);
#224=ORIENTED_EDGE('',*,*,#356,.T.);
#225=ORIENTED_EDGE('',*,*,#349,.T.);
#226=ORIENTED_EDGE('',*,*,#357,.T.);
#227=ORIENTED_EDGE('',*,*,#358,.T.);
#228=ORIENTED_EDGE('',*,*,#359,.F.);
#229=ORIENTED_EDGE('',*,*,#359,.T.);
#230=ORIENTED_EDGE('',*,*,#360,.T.);
#231=ORIENTED_EDGE('',*,*,#361,.T.);
#232=ORIENTED_EDGE('',*,*,#352,.T.);
#233=ORIENTED_EDGE('',*,*,#362,.T.);
#234=ORIENTED_EDGE('',*,*,#357,.F.);
#235=ORIENTED_EDGE('',*,*,#351,.F.);
#236=ORIENTED_EDGE('',*,*,#274,.F.);
#237=ORIENTED_EDGE('',*,*,#355,.T.);
#238=ORIENTED_EDGE('',*,*,#363,.F.);
#239=ORIENTED_EDGE('',*,*,#364,.F.);
#240=ORIENTED_EDGE('',*,*,#365,.T.);
#241=ORIENTED_EDGE('',*,*,#356,.F.);
#242=ORIENTED_EDGE('',*,*,#277,.T.);
#243=ORIENTED_EDGE('',*,*,#353,.F.);
#244=ORIENTED_EDGE('',*,*,#361,.F.);
#245=ORIENTED_EDGE('',*,*,#366,.F.);
#246=ORIENTED_EDGE('',*,*,#367,.T.);
#247=ORIENTED_EDGE('',*,*,#363,.T.);
#248=ORIENTED_EDGE('',*,*,#354,.T.);
#249=ORIENTED_EDGE('',*,*,#365,.F.);
#250=ORIENTED_EDGE('',*,*,#368,.T.);
#251=ORIENTED_EDGE('',*,*,#364,.T.);
#252=ORIENTED_EDGE('',*,*,#368,.F.);
#253=ORIENTED_EDGE('',*,*,#367,.F.);
#254=ORIENTED_EDGE('',*,*,#369,.T.);
#255=ORIENTED_EDGE('',*,*,#369,.F.);
#256=ORIENTED_EDGE('',*,*,#366,.T.);
#257=ORIENTED_EDGE('',*,*,#360,.F.);
#258=ORIENTED_EDGE('',*,*,#358,.F.);
#259=ORIENTED_EDGE('',*,*,#362,.F.);
#260=ORIENTED_EDGE('',*,*,#308,.F.);
#261=ORIENTED_EDGE('',*,*,#290,.F.);
#262=ORIENTED_EDGE('',*,*,#299,.F.);
#263=ORIENTED_EDGE('',*,*,#324,.F.);
#264=ORIENTED_EDGE('',*,*,#307,.T.);
#265=ORIENTED_EDGE('',*,*,#326,.T.);
#266=ORIENTED_EDGE('',*,*,#300,.T.);
#267=ORIENTED_EDGE('',*,*,#292,.T.);
#268=EDGE_CURVE('',#370,#371,#438,.T.);
#269=EDGE_CURVE('',#370,#372,#439,.T.);
#270=EDGE_CURVE('',#372,#373,#440,.T.);
#271=EDGE_CURVE('',#373,#374,#40,.T.);
#272=EDGE_CURVE('',#374,#371,#41,.T.);
#273=EDGE_CURVE('',#375,#376,#441,.T.);
#274=EDGE_CURVE('',#375,#377,#442,.T.);
#275=EDGE_CURVE('',#378,#377,#42,.T.);
#276=EDGE_CURVE('',#379,#378,#43,.T.);
#277=EDGE_CURVE('',#376,#379,#443,.T.);
#278=EDGE_CURVE('',#380,#381,#444,.T.);
#279=EDGE_CURVE('',#382,#380,#445,.T.);
#280=EDGE_CURVE('',#382,#383,#44,.T.);
#281=EDGE_CURVE('',#383,#384,#45,.T.);
#282=EDGE_CURVE('',#384,#381,#446,.T.);
#283=EDGE_CURVE('',#385,#386,#447,.T.);
#284=EDGE_CURVE('',#386,#387,#448,.T.);
#285=EDGE_CURVE('',#388,#387,#449,.T.);
#286=EDGE_CURVE('',#389,#388,#46,.T.);
#287=EDGE_CURVE('',#385,#389,#47,.T.);
#288=EDGE_CURVE('',#390,#390,#32,.T.);
#289=EDGE_CURVE('',#391,#392,#450,.T.);
#290=EDGE_CURVE('',#392,#393,#451,.T.);
#291=EDGE_CURVE('',#394,#393,#452,.T.);
#292=EDGE_CURVE('',#391,#394,#453,.T.);
#293=EDGE_CURVE('',#395,#395,#33,.T.);
#294=EDGE_CURVE('',#396,#396,#34,.T.);
#295=EDGE_CURVE('',#397,#398,#454,.T.);
#296=EDGE_CURVE('',#398,#399,#455,.T.);
#297=EDGE_CURVE('',#399,#373,#456,.T.);
#298=EDGE_CURVE('',#372,#400,#457,.T.);
#299=EDGE_CURVE('',#400,#392,#458,.T.);
#300=EDGE_CURVE('',#401,#391,#459,.T.);
#301=EDGE_CURVE('',#381,#401,#460,.T.);
#302=EDGE_CURVE('',#384,#402,#461,.T.);
#303=EDGE_CURVE('',#402,#397,#462,.T.);
#304=EDGE_CURVE('',#403,#404,#463,.T.);
#305=EDGE_CURVE('',#404,#382,#464,.T.);
#306=EDGE_CURVE('',#380,#405,#465,.T.);
#307=EDGE_CURVE('',#394,#405,#466,.T.);
#308=EDGE_CURVE('',#393,#406,#467,.T.);
#309=EDGE_CURVE('',#370,#406,#468,.T.);
#310=EDGE_CURVE('',#371,#407,#469,.T.);
#311=EDGE_CURVE('',#407,#408,#470,.T.);
#312=EDGE_CURVE('',#403,#408,#471,.T.);
#313=EDGE_CURVE('',#408,#409,#48,.T.);
#314=EDGE_CURVE('',#409,#398,#49,.T.);
#315=EDGE_CURVE('',#397,#410,#50,.T.);
#316=EDGE_CURVE('',#410,#403,#51,.T.);
#317=EDGE_CURVE('',#409,#411,#472,.T.);
#318=EDGE_CURVE('',#411,#399,#52,.T.);
#319=EDGE_CURVE('',#407,#411,#53,.T.);
#320=EDGE_CURVE('',#402,#412,#54,.T.);
#321=EDGE_CURVE('',#412,#410,#473,.T.);
#322=EDGE_CURVE('',#412,#404,#55,.T.);
#323=EDGE_CURVE('',#413,#413,#35,.T.);
#324=EDGE_CURVE('',#406,#400,#474,.T.);
#325=EDGE_CURVE('',#411,#374,#475,.T.);
#326=EDGE_CURVE('',#405,#401,#476,.T.);
#327=EDGE_CURVE('',#412,#383,#477,.T.);
#328=EDGE_CURVE('',#414,#415,#478,.T.);
#329=EDGE_CURVE('',#416,#414,#479,.T.);
#330=EDGE_CURVE('',#417,#416,#480,.T.);
#331=EDGE_CURVE('',#388,#417,#481,.T.);
#332=EDGE_CURVE('',#387,#418,#482,.T.);
#333=EDGE_CURVE('',#418,#415,#483,.T.);
#334=EDGE_CURVE('',#419,#420,#484,.T.);
#335=EDGE_CURVE('',#421,#420,#485,.T.);
#336=EDGE_CURVE('',#386,#421,#486,.T.);
#337=EDGE_CURVE('',#422,#385,#487,.T.);
#338=EDGE_CURVE('',#423,#422,#488,.T.);
#339=EDGE_CURVE('',#423,#419,#489,.T.);
#340=EDGE_CURVE('',#420,#415,#36,.T.);
#341=EDGE_CURVE('',#421,#418,#490,.T.);
#342=EDGE_CURVE('',#419,#414,#37,.T.);
#343=EDGE_CURVE('',#424,#423,#56,.T.);
#344=EDGE_CURVE('',#416,#424,#57,.T.);
#345=EDGE_CURVE('',#425,#424,#491,.T.);
#346=EDGE_CURVE('',#417,#425,#58,.F.);
#347=EDGE_CURVE('',#425,#422,#59,.F.);
#348=EDGE_CURVE('',#425,#389,#492,.T.);
#349=EDGE_CURVE('',#426,#427,#60,.F.);
#350=EDGE_CURVE('',#378,#426,#493,.T.);
#351=EDGE_CURVE('',#377,#427,#494,.T.);
#352=EDGE_CURVE('',#428,#426,#61,.F.);
#353=EDGE_CURVE('',#428,#379,#495,.T.);
#354=EDGE_CURVE('',#429,#430,#496,.T.);
#355=EDGE_CURVE('',#375,#429,#497,.T.);
#356=EDGE_CURVE('',#376,#430,#498,.T.);
#357=EDGE_CURVE('',#427,#431,#499,.T.);
#358=EDGE_CURVE('',#431,#432,#62,.T.);
#359=EDGE_CURVE('',#426,#432,#500,.T.);
#360=EDGE_CURVE('',#432,#433,#63,.T.);
#361=EDGE_CURVE('',#433,#428,#501,.T.);
#362=EDGE_CURVE('',#434,#431,#502,.T.);
#363=EDGE_CURVE('',#435,#429,#503,.T.);
#364=EDGE_CURVE('',#434,#435,#504,.T.);
#365=EDGE_CURVE('',#436,#430,#505,.T.);
#366=EDGE_CURVE('',#437,#433,#506,.T.);
#367=EDGE_CURVE('',#437,#436,#507,.T.);
#368=EDGE_CURVE('',#436,#435,#38,.T.);
#369=EDGE_CURVE('',#437,#434,#39,.T.);
#370=VERTEX_POINT('',#923);
#371=VERTEX_POINT('',#924);
#372=VERTEX_POINT('',#926);
#373=VERTEX_POINT('',#928);
#374=VERTEX_POINT('',#933);
#375=VERTEX_POINT('',#939);
#376=VERTEX_POINT('',#940);
#377=VERTEX_POINT('',#942);
#378=VERTEX_POINT('',#950);
#379=VERTEX_POINT('',#958);
#380=VERTEX_POINT('',#962);
#381=VERTEX_POINT('',#963);
#382=VERTEX_POINT('',#965);
#383=VERTEX_POINT('',#970);
#384=VERTEX_POINT('',#975);
#385=VERTEX_POINT('',#978);
#386=VERTEX_POINT('',#979);
#387=VERTEX_POINT('',#981);
#388=VERTEX_POINT('',#983);
#389=VERTEX_POINT('',#991);
#390=VERTEX_POINT('',#1001);
#391=VERTEX_POINT('',#1003);
#392=VERTEX_POINT('',#1004);
#393=VERTEX_POINT('',#1006);
#394=VERTEX_POINT('',#1008);
#395=VERTEX_POINT('',#1012);
#396=VERTEX_POINT('',#1014);
#397=VERTEX_POINT('',#1017);
#398=VERTEX_POINT('',#1018);
#399=VERTEX_POINT('',#1020);
#400=VERTEX_POINT('',#1023);
#401=VERTEX_POINT('',#1026);
#402=VERTEX_POINT('',#1029);
#403=VERTEX_POINT('',#1033);
#404=VERTEX_POINT('',#1034);
#405=VERTEX_POINT('',#1037);
#406=VERTEX_POINT('',#1040);
#407=VERTEX_POINT('',#1043);
#408=VERTEX_POINT('',#1045);
#409=VERTEX_POINT('',#1052);
#410=VERTEX_POINT('',#1061);
#411=VERTEX_POINT('',#1075);
#412=VERTEX_POINT('',#1104);
#413=VERTEX_POINT('',#1120);
#414=VERTEX_POINT('',#1162);
#415=VERTEX_POINT('',#1163);
#416=VERTEX_POINT('',#1165);
#417=VERTEX_POINT('',#1167);
#418=VERTEX_POINT('',#1170);
#419=VERTEX_POINT('',#1174);
#420=VERTEX_POINT('',#1175);
#421=VERTEX_POINT('',#1177);
#422=VERTEX_POINT('',#1180);
#423=VERTEX_POINT('',#1182);
#424=VERTEX_POINT('',#1196);
#425=VERTEX_POINT('',#1219);
#426=VERTEX_POINT('',#1300);
#427=VERTEX_POINT('',#1301);
#428=VERTEX_POINT('',#1325);
#429=VERTEX_POINT('',#1329);
#430=VERTEX_POINT('',#1330);
#431=VERTEX_POINT('',#1348);
#432=VERTEX_POINT('',#1356);
#433=VERTEX_POINT('',#1379);
#434=VERTEX_POINT('',#1383);
#435=VERTEX_POINT('',#1385);
#436=VERTEX_POINT('',#1389);
#437=VERTEX_POINT('',#1391);
#438=LINE('',#922,#508);
#439=LINE('',#925,#509);
#440=LINE('',#927,#510);
#441=LINE('',#938,#511);
#442=LINE('',#941,#512);
#443=LINE('',#959,#513);
#444=LINE('',#961,#514);
#445=LINE('',#964,#515);
#446=LINE('',#976,#516);
#447=LINE('',#977,#517);
#448=LINE('',#980,#518);
#449=LINE('',#982,#519);
#450=LINE('',#1002,#520);
#451=LINE('',#1005,#521);
#452=LINE('',#1007,#522);
#453=LINE('',#1009,#523);
#454=LINE('',#1016,#524);
#455=LINE('',#1019,#525);
#456=LINE('',#1021,#526);
#457=LINE('',#1022,#527);
#458=LINE('',#1024,#528);
#459=LINE('',#1025,#529);
#460=LINE('',#1027,#530);
#461=LINE('',#1028,#531);
#462=LINE('',#1030,#532);
#463=LINE('',#1032,#533);
#464=LINE('',#1035,#534);
#465=LINE('',#1036,#535);
#466=LINE('',#1038,#536);
#467=LINE('',#1039,#537);
#468=LINE('',#1041,#538);
#469=LINE('',#1042,#539);
#470=LINE('',#1044,#540);
#471=LINE('',#1046,#541);
#472=LINE('',#1074,#542);
#473=LINE('',#1105,#543);
#474=LINE('',#1123,#544);
#475=LINE('',#1132,#545);
#476=LINE('',#1142,#546);
#477=LINE('',#1151,#547);
#478=LINE('',#1161,#548);
#479=LINE('',#1164,#549);
#480=LINE('',#1166,#550);
#481=LINE('',#1168,#551);
#482=LINE('',#1169,#552);
#483=LINE('',#1171,#553);
#484=LINE('',#1173,#554);
#485=LINE('',#1176,#555);
#486=LINE('',#1178,#556);
#487=LINE('',#1179,#557);
#488=LINE('',#1181,#558);
#489=LINE('',#1183,#559);
#490=LINE('',#1186,#560);
#491=LINE('',#1218,#561);
#492=LINE('',#1264,#562);
#493=LINE('',#1302,#563);
#494=LINE('',#1303,#564);
#495=LINE('',#1326,#565);
#496=LINE('',#1328,#566);
#497=LINE('',#1331,#567);
#498=LINE('',#1332,#568);
#499=LINE('',#1347,#569);
#500=LINE('',#1357,#570);
#501=LINE('',#1380,#571);
#502=LINE('',#1382,#572);
#503=LINE('',#1384,#573);
#504=LINE('',#1386,#574);
#505=LINE('',#1388,#575);
#506=LINE('',#1390,#576);
#507=LINE('',#1392,#577);
#508=VECTOR('',#786,1.);
#509=VECTOR('',#787,1.);
#510=VECTOR('',#788,1.);
#511=VECTOR('',#789,1.);
#512=VECTOR('',#790,1.);
#513=VECTOR('',#791,1.);
#514=VECTOR('',#794,1.);
#515=VECTOR('',#795,1.);
#516=VECTOR('',#796,1.);
#517=VECTOR('',#797,1.);
#518=VECTOR('',#798,1.);
#519=VECTOR('',#799,1.);
#520=VECTOR('',#804,1.);
#521=VECTOR('',#805,1.);
#522=VECTOR('',#806,1.);
#523=VECTOR('',#807,1.);
#524=VECTOR('',#816,1.);
#525=VECTOR('',#817,1.);
#526=VECTOR('',#818,1.);
#527=VECTOR('',#819,1.);
#528=VECTOR('',#820,1.);
#529=VECTOR('',#821,1.);
#530=VECTOR('',#822,1.);
#531=VECTOR('',#823,1.);
#532=VECTOR('',#824,1.);
#533=VECTOR('',#827,1.);
#534=VECTOR('',#828,1.);
#535=VECTOR('',#829,1.);
#536=VECTOR('',#830,1.);
#537=VECTOR('',#831,1.);
#538=VECTOR('',#832,1.);
#539=VECTOR('',#833,1.);
#540=VECTOR('',#834,1.);
#541=VECTOR('',#835,1.);
#542=VECTOR('',#838,1.);
#543=VECTOR('',#839,1.);
#544=VECTOR('',#848,1.);
#545=VECTOR('',#849,1.);
#546=VECTOR('',#852,1.);
#547=VECTOR('',#853,1.);
#548=VECTOR('',#856,1.);
#549=VECTOR('',#857,1.);
#550=VECTOR('',#858,1.);
#551=VECTOR('',#859,1.);
#552=VECTOR('',#860,1.);
#553=VECTOR('',#861,1.);
#554=VECTOR('',#864,1.);
#555=VECTOR('',#865,1.);
#556=VECTOR('',#866,1.);
#557=VECTOR('',#867,1.);
#558=VECTOR('',#868,1.);
#559=VECTOR('',#869,1.);
#560=VECTOR('',#874,1.);
#561=VECTOR('',#879,1.);
#562=VECTOR('',#884,1.);
#563=VECTOR('',#885,1.);
#564=VECTOR('',#886,1.);
#565=VECTOR('',#887,1.);
#566=VECTOR('',#890,1.);
#567=VECTOR('',#891,1.);
#568=VECTOR('',#892,1.);
#569=VECTOR('',#893,1.);
#570=VECTOR('',#894,1.);
#571=VECTOR('',#895,1.);
#572=VECTOR('',#898,1.);
#573=VECTOR('',#899,1.);
#574=VECTOR('',#900,1.);
#575=VECTOR('',#903,1.);
#576=VECTOR('',#904,1.);
#577=VECTOR('',#905,1.);
#578=EDGE_LOOP('',(#64,#65,#66,#67,#68));
#579=EDGE_LOOP('',(#69,#70,#71,#72,#73));
#580=EDGE_LOOP('',(#74,#75,#76,#77,#78));
#581=EDGE_LOOP('',(#79,#80,#81,#82,#83));
#582=EDGE_LOOP('',(#84));
#583=EDGE_LOOP('',(#85,#86,#87,#88));
#584=EDGE_LOOP('',(#89));
#585=EDGE_LOOP('',(#90));
#586=EDGE_LOOP('',(#91,#92,#93,#94,#95,#96,#97,#98,#99,#100,#101,#102));
#587=EDGE_LOOP('',(#103,#104,#105,#106,#107,#108,#109,#110,#111,#112,#113,
#114));
#588=EDGE_LOOP('',(#115));
#589=EDGE_LOOP('',(#116,#117,#118,#119,#120,#121));
#590=EDGE_LOOP('',(#122,#123,#124,#125));
#591=EDGE_LOOP('',(#126,#127,#128,#129));
#592=EDGE_LOOP('',(#130,#131,#132,#133));
#593=EDGE_LOOP('',(#134,#135,#136,#137));
#594=EDGE_LOOP('',(#138));
#595=EDGE_LOOP('',(#139));
#596=EDGE_LOOP('',(#140));
#597=EDGE_LOOP('',(#141));
#598=EDGE_LOOP('',(#142,#143,#144,#145));
#599=EDGE_LOOP('',(#146,#147,#148,#149));
#600=EDGE_LOOP('',(#150,#151,#152,#153));
#601=EDGE_LOOP('',(#154,#155,#156,#157));
#602=EDGE_LOOP('',(#158,#159,#160,#161));
#603=EDGE_LOOP('',(#162,#163,#164,#165));
#604=EDGE_LOOP('',(#166,#167,#168,#169,#170,#171,#172));
#605=EDGE_LOOP('',(#173,#174,#175,#176,#177,#178,#179));
#606=EDGE_LOOP('',(#180,#181,#182,#183));
#607=EDGE_LOOP('',(#184,#185,#186,#187,#188));
#608=EDGE_LOOP('',(#189,#190,#191,#192));
#609=EDGE_LOOP('',(#193,#194,#195,#196));
#610=EDGE_LOOP('',(#197,#198,#199,#200));
#611=EDGE_LOOP('',(#201,#202,#203,#204));
#612=EDGE_LOOP('',(#205,#206,#207,#208));
#613=EDGE_LOOP('',(#209,#210,#211,#212));
#614=EDGE_LOOP('',(#213,#214,#215,#216));
#615=EDGE_LOOP('',(#217,#218,#219,#220));
#616=EDGE_LOOP('',(#221,#222,#223,#224));
#617=EDGE_LOOP('',(#225,#226,#227,#228));
#618=EDGE_LOOP('',(#229,#230,#231,#232));
#619=EDGE_LOOP('',(#233,#234,#235,#236,#237,#238,#239));
#620=EDGE_LOOP('',(#240,#241,#242,#243,#244,#245,#246));
#621=EDGE_LOOP('',(#247,#248,#249,#250));
#622=EDGE_LOOP('',(#251,#252,#253,#254));
#623=EDGE_LOOP('',(#255,#256,#257,#258,#259));
#624=EDGE_LOOP('',(#260,#261,#262,#263));
#625=EDGE_LOOP('',(#264,#265,#266,#267));
#626=FACE_BOUND('',#578,.T.);
#627=FACE_BOUND('',#579,.T.);
#628=FACE_BOUND('',#580,.T.);
#629=FACE_BOUND('',#581,.T.);
#630=FACE_BOUND('',#582,.T.);
#631=FACE_BOUND('',#583,.T.);
#632=FACE_BOUND('',#584,.T.);
#633=FACE_BOUND('',#585,.T.);
#634=FACE_BOUND('',#586,.T.);
#635=FACE_BOUND('',#587,.T.);
#636=FACE_BOUND('',#588,.T.);
#637=FACE_BOUND('',#589,.T.);
#638=FACE_BOUND('',#590,.T.);
#639=FACE_BOUND('',#591,.T.);
#640=FACE_BOUND('',#592,.T.);
#641=FACE_BOUND('',#593,.T.);
#642=FACE_BOUND('',#594,.T.);
#643=FACE_BOUND('',#595,.T.);
#644=FACE_BOUND('',#596,.T.);
#645=FACE_BOUND('',#597,.T.);
#646=FACE_BOUND('',#598,.T.);
#647=FACE_BOUND('',#599,.T.);
#648=FACE_BOUND('',#600,.T.);
#649=FACE_BOUND('',#601,.T.);
#650=FACE_BOUND('',#602,.T.);
#651=FACE_BOUND('',#603,.T.);
#652=FACE_BOUND('',#604,.T.);
#653=FACE_BOUND('',#605,.T.);
#654=FACE_BOUND('',#606,.T.);
#655=FACE_BOUND('',#607,.T.);
#656=FACE_BOUND('',#608,.T.);
#657=FACE_BOUND('',#609,.T.);
#658=FACE_BOUND('',#610,.T.);
#659=FACE_BOUND('',#611,.T.);
#660=FACE_BOUND('',#612,.T.);
#661=FACE_BOUND('',#613,.T.);
#662=FACE_BOUND('',#614,.T.);
#663=FACE_BOUND('',#615,.T.);
#664=FACE_BOUND('',#616,.T.);
#665=FACE_BOUND('',#617,.T.);
#666=FACE_BOUND('',#618,.T.);
#667=FACE_BOUND('',#619,.T.);
#668=FACE_BOUND('',#620,.T.);
#669=FACE_BOUND('',#621,.T.);
#670=FACE_BOUND('',#622,.T.);
#671=FACE_BOUND('',#623,.T.);
#672=FACE_BOUND('',#624,.T.);
#673=FACE_BOUND('',#625,.T.);
#674=PLANE('',#749);
#675=PLANE('',#750);
#676=PLANE('',#751);
#677=PLANE('',#756);
#678=PLANE('',#757);
#679=PLANE('',#758);
#680=PLANE('',#761);
#681=PLANE('',#762);
#682=PLANE('',#763);
#683=PLANE('',#764);
#684=PLANE('',#765);
#685=PLANE('',#766);
#686=PLANE('',#768);
#687=PLANE('',#771);
#688=PLANE('',#772);
#689=PLANE('',#773);
#690=PLANE('',#774);
#691=PLANE('',#775);
#692=PLANE('',#779);
#693=PLANE('',#780);
#694=PLANE('',#781);
#695=ADVANCED_FACE('',(#626,#627),#674,.T.);
#696=ADVANCED_FACE('',(#628,#629),#675,.T.);
#697=ADVANCED_FACE('',(#630,#631),#676,.T.);
#698=ADVANCED_FACE('',(#632,#633),#28,.F.);
#699=ADVANCED_FACE('',(#634),#677,.F.);
#700=ADVANCED_FACE('',(#635),#678,.T.);
#701=ADVANCED_FACE('',(#636,#637),#679,.F.);
#702=ADVANCED_FACE('',(#638),#12,.T.);
#703=ADVANCED_FACE('',(#639),#13,.T.);
#704=ADVANCED_FACE('',(#640),#14,.T.);
#705=ADVANCED_FACE('',(#641),#15,.T.);
#706=ADVANCED_FACE('',(#642,#643),#29,.F.);
#707=ADVANCED_FACE('',(#644,#645),#680,.T.);
#708=ADVANCED_FACE('',(#646),#681,.F.);
#709=ADVANCED_FACE('',(#647),#16,.F.);
#710=ADVANCED_FACE('',(#648),#17,.F.);
#711=ADVANCED_FACE('',(#649),#682,.T.);
#712=ADVANCED_FACE('',(#650),#18,.F.);
#713=ADVANCED_FACE('',(#651),#19,.F.);
#714=ADVANCED_FACE('',(#652),#683,.T.);
#715=ADVANCED_FACE('',(#653),#684,.F.);
#716=ADVANCED_FACE('',(#654),#685,.F.);
#717=ADVANCED_FACE('',(#655),#686,.T.);
#718=ADVANCED_FACE('',(#656),#20,.F.);
#719=ADVANCED_FACE('',(#657),#21,.F.);
#720=ADVANCED_FACE('',(#658),#30,.T.);
#721=ADVANCED_FACE('',(#659),#687,.F.);
#722=ADVANCED_FACE('',(#660),#22,.T.);
#723=ADVANCED_FACE('',(#661),#23,.T.);
#724=ADVANCED_FACE('',(#662),#24,.T.);
#725=ADVANCED_FACE('',(#663),#25,.T.);
#726=ADVANCED_FACE('',(#664),#688,.T.);
#727=ADVANCED_FACE('',(#665),#26,.F.);
#728=ADVANCED_FACE('',(#666),#27,.F.);
#729=ADVANCED_FACE('',(#667),#689,.F.);
#730=ADVANCED_FACE('',(#668),#690,.T.);
#731=ADVANCED_FACE('',(#669),#691,.F.);
#732=ADVANCED_FACE('',(#670),#31,.T.);
#733=ADVANCED_FACE('',(#671),#692,.T.);
#734=ADVANCED_FACE('',(#672),#693,.F.);
#735=ADVANCED_FACE('',(#673),#694,.T.);
#736=CLOSED_SHELL('',(#695,#696,#697,#698,#699,#700,#701,#702,#703,#704,
#705,#706,#707,#708,#709,#710,#711,#712,#713,#714,#715,#716,#717,#718,#719,
#720,#721,#722,#723,#724,#725,#726,#727,#728,#729,#730,#731,#732,#733,#734,
#735));
#737=STYLED_ITEM('',(#738),#745);
#738=PRESENTATION_STYLE_ASSIGNMENT((#739));
#739=SURFACE_STYLE_USAGE(.BOTH.,#740);
#740=SURFACE_SIDE_STYLE('',(#741));
#741=SURFACE_STYLE_FILL_AREA(#742);
#742=FILL_AREA_STYLE('',(#743));
#743=FILL_AREA_STYLE_COLOUR('',#744);
#744=COLOUR_RGB('',0.262745098039216,0.282352941176471,0.301960784313725);
#745=MANIFOLD_SOLID_BREP('Table_Mount_TPU',#736);
#746=SHAPE_DEFINITION_REPRESENTATION(#1406,#747);
#747=SHAPE_REPRESENTATION('Table_Mount_TPU',(#748),#1401);
#748=AXIS2_PLACEMENT_3D('',#920,#782,#783);
#749=AXIS2_PLACEMENT_3D('',#921,#784,#785);
#750=AXIS2_PLACEMENT_3D('',#960,#792,#793);
#751=AXIS2_PLACEMENT_3D('',#999,#800,#801);
#752=AXIS2_PLACEMENT_3D('',#1000,#802,#803);
#753=AXIS2_PLACEMENT_3D('',#1010,#808,#809);
#754=AXIS2_PLACEMENT_3D('',#1011,#810,#811);
#755=AXIS2_PLACEMENT_3D('',#1013,#812,#813);
#756=AXIS2_PLACEMENT_3D('',#1015,#814,#815);
#757=AXIS2_PLACEMENT_3D('',#1031,#825,#826);
#758=AXIS2_PLACEMENT_3D('',#1047,#836,#837);
#759=AXIS2_PLACEMENT_3D('',#1118,#840,#841);
#760=AXIS2_PLACEMENT_3D('',#1119,#842,#843);
#761=AXIS2_PLACEMENT_3D('',#1121,#844,#845);
#762=AXIS2_PLACEMENT_3D('',#1122,#846,#847);
#763=AXIS2_PLACEMENT_3D('',#1141,#850,#851);
#764=AXIS2_PLACEMENT_3D('',#1160,#854,#855);
#765=AXIS2_PLACEMENT_3D('',#1172,#862,#863);
#766=AXIS2_PLACEMENT_3D('',#1184,#870,#871);
#767=AXIS2_PLACEMENT_3D('',#1185,#872,#873);
#768=AXIS2_PLACEMENT_3D('',#1187,#875,#876);
#769=AXIS2_PLACEMENT_3D('',#1188,#877,#878);
#770=AXIS2_PLACEMENT_3D('',#1248,#880,#881);
#771=AXIS2_PLACEMENT_3D('',#1249,#882,#883);
#772=AXIS2_PLACEMENT_3D('',#1327,#888,#889);
#773=AXIS2_PLACEMENT_3D('',#1381,#896,#897);
#774=AXIS2_PLACEMENT_3D('',#1387,#901,#902);
#775=AXIS2_PLACEMENT_3D('',#1393,#906,#907);
#776=AXIS2_PLACEMENT_3D('',#1394,#908,#909);
#777=AXIS2_PLACEMENT_3D('',#1395,#910,#911);
#778=AXIS2_PLACEMENT_3D('',#1396,#912,#913);
#779=AXIS2_PLACEMENT_3D('',#1397,#914,#915);
#780=AXIS2_PLACEMENT_3D('',#1398,#916,#917);
#781=AXIS2_PLACEMENT_3D('',#1399,#918,#919);
#782=DIRECTION('',(0.,0.,1.));
#783=DIRECTION('',(1.,0.,0.));
#784=DIRECTION('',(0.,0.,-1.));
#785=DIRECTION('',(1.,0.,0.));
#786=DIRECTION('',(1.,0.,0.));
#787=DIRECTION('',(0.,1.,0.));
#788=DIRECTION('',(1.,0.,0.));
#789=DIRECTION('',(0.,1.,0.));
#790=DIRECTION('',(1.,0.,0.));
#791=DIRECTION('',(1.,0.,0.));
#792=DIRECTION('',(0.,0.,-1.));
#793=DIRECTION('',(1.,0.,0.));
#794=DIRECTION('',(0.,1.,0.));
#795=DIRECTION('',(1.,0.,0.));
#796=DIRECTION('',(1.,0.,0.));
#797=DIRECTION('',(1.,0.,0.));
#798=DIRECTION('',(0.,1.,0.));
#799=DIRECTION('',(1.,0.,0.));
#800=DIRECTION('',(0.,0.,-1.));
#801=DIRECTION('',(1.,0.,0.));
#802=DIRECTION('',(0.,0.,-1.));
#803=DIRECTION('',(-1.,0.,0.));
#804=DIRECTION('',(1.,0.,0.));
#805=DIRECTION('',(0.,-1.,0.));
#806=DIRECTION('',(1.,0.,0.));
#807=DIRECTION('',(0.,-1.,0.));
#808=DIRECTION('',(0.,0.,1.));
#809=DIRECTION('',(1.,0.,0.));
#810=DIRECTION('',(0.,0.,-1.));
#811=DIRECTION('',(-1.,0.,0.));
#812=DIRECTION('',(0.,0.,-1.));
#813=DIRECTION('',(-1.,0.,0.));
#814=DIRECTION('',(0.,-1.,0.));
#815=DIRECTION('',(0.,0.,-1.));
#816=DIRECTION('',(1.,0.,0.));
#817=DIRECTION('',(0.,0.,-1.));
#818=DIRECTION('',(0.,0.,-1.));
#819=DIRECTION('',(0.,0.,1.));
#820=DIRECTION('',(-0.707106781186548,0.,0.707106781186548));
#821=DIRECTION('',(0.707106781186548,0.,0.707106781186548));
#822=DIRECTION('',(0.,0.,1.));
#823=DIRECTION('',(0.,0.,1.));
#824=DIRECTION('',(0.,0.,1.));
#825=DIRECTION('',(0.,-1.,0.));
#826=DIRECTION('',(0.,0.,-1.));
#827=DIRECTION('',(0.,0.,-1.));
#828=DIRECTION('',(0.,0.,-1.));
#829=DIRECTION('',(0.,0.,1.));
#830=DIRECTION('',(-0.707106781186548,0.,-0.707106781186548));
#831=DIRECTION('',(0.707106781186548,0.,-0.707106781186548));
#832=DIRECTION('',(0.,0.,1.));
#833=DIRECTION('',(0.,0.,1.));
#834=DIRECTION('',(0.,0.,1.));
#835=DIRECTION('',(1.,0.,0.));
#836=DIRECTION('',(0.,0.,-1.));
#837=DIRECTION('',(1.,0.,0.));
#838=DIRECTION('',(0.,0.,-1.));
#839=DIRECTION('',(0.,0.,1.));
#840=DIRECTION('',(0.,0.,-1.));
#841=DIRECTION('',(-1.,0.,0.));
#842=DIRECTION('',(0.,0.,-1.));
#843=DIRECTION('',(-1.,0.,0.));
#844=DIRECTION('',(0.,0.,-1.));
#845=DIRECTION('',(1.,0.,0.));
#846=DIRECTION('',(1.,0.,0.));
#847=DIRECTION('',(0.,0.,-1.));
#848=DIRECTION('',(0.,1.,0.));
#849=DIRECTION('',(0.,0.,-1.));
#850=DIRECTION('',(1.,0.,0.));
#851=DIRECTION('',(0.,0.,-1.));
#852=DIRECTION('',(0.,1.,0.));
#853=DIRECTION('',(0.,0.,-1.));
#854=DIRECTION('',(0.,-1.,0.));
#855=DIRECTION('',(0.,0.,-1.));
#856=DIRECTION('',(0.,0.,-1.));
#857=DIRECTION('',(1.,0.,0.));
#858=DIRECTION('',(0.,0.,1.));
#859=DIRECTION('',(0.,0.,1.));
#860=DIRECTION('',(0.,0.,1.));
#861=DIRECTION('',(1.,0.,0.));
#862=DIRECTION('',(0.,-1.,0.));
#863=DIRECTION('',(0.,0.,-1.));
#864=DIRECTION('',(0.,0.,-1.));
#865=DIRECTION('',(1.,0.,0.));
#866=DIRECTION('',(0.,0.,1.));
#867=DIRECTION('',(0.,0.,-1.));
#868=DIRECTION('',(0.,0.,-1.));
#869=DIRECTION('',(1.,0.,0.));
#870=DIRECTION('',(0.,0.,-1.));
#871=DIRECTION('',(1.,0.,0.));
#872=DIRECTION('',(0.,0.,-1.));
#873=DIRECTION('',(-1.,0.,0.));
#874=DIRECTION('',(0.,1.,0.));
#875=DIRECTION('',(0.,0.,-1.));
#876=DIRECTION('',(1.,0.,0.));
#877=DIRECTION('',(0.,0.,-1.));
#878=DIRECTION('',(-1.,0.,0.));
#879=DIRECTION('',(0.,0.,1.));
#880=DIRECTION('',(0.,0.,-1.));
#881=DIRECTION('',(-1.,0.,0.));
#882=DIRECTION('',(1.,0.,0.));
#883=DIRECTION('',(0.,0.,-1.));
#884=DIRECTION('',(0.,0.,-1.));
#885=DIRECTION('',(0.,0.,1.));
#886=DIRECTION('',(0.,0.,1.));
#887=DIRECTION('',(0.,0.,-1.));
#888=DIRECTION('',(1.,0.,0.));
#889=DIRECTION('',(0.,0.,-1.));
#890=DIRECTION('',(0.,1.,0.));
#891=DIRECTION('',(0.,0.,1.));
#892=DIRECTION('',(0.,0.,1.));
#893=DIRECTION('',(0.,0.,1.));
#894=DIRECTION('',(0.,0.,1.));
#895=DIRECTION('',(0.,0.,-1.));
#896=DIRECTION('',(0.,-1.,0.));
#897=DIRECTION('',(0.,0.,-1.));
#898=DIRECTION('',(1.,0.,0.));
#899=DIRECTION('',(1.,0.,0.));
#900=DIRECTION('',(0.,0.,-1.));
#901=DIRECTION('',(0.,-1.,0.));
#902=DIRECTION('',(0.,0.,-1.));
#903=DIRECTION('',(1.,0.,0.));
#904=DIRECTION('',(1.,0.,0.));
#905=DIRECTION('',(0.,0.,-1.));
#906=DIRECTION('',(0.,0.,-1.));
#907=DIRECTION('',(1.,0.,0.));
#908=DIRECTION('',(0.,0.,-1.));
#909=DIRECTION('',(-1.,0.,0.));
#910=DIRECTION('',(0.,0.,-1.));
#911=DIRECTION('',(-1.,0.,0.));
#912=DIRECTION('',(0.,0.,-1.));
#913=DIRECTION('',(-1.,0.,0.));
#914=DIRECTION('',(0.,0.,-1.));
#915=DIRECTION('',(1.,0.,0.));
#916=DIRECTION('',(0.707106781186548,0.,0.707106781186548));
#917=DIRECTION('',(0.,1.,0.));
#918=DIRECTION('',(0.707106781186548,0.,-0.707106781186548));
#919=DIRECTION('',(0.,-1.,0.));
#920=CARTESIAN_POINT('',(0.,0.,0.));
#921=CARTESIAN_POINT('',(-0.047,0.0204555706644837,-0.069));
#922=CARTESIAN_POINT('',(-0.047,0.0442,-0.069));
#923=CARTESIAN_POINT('',(-0.035,0.0442,-0.069));
#924=CARTESIAN_POINT('',(-0.0295,0.0442,-0.069));
#925=CARTESIAN_POINT('',(-0.035,0.0159897045612905,-0.069));
#926=CARTESIAN_POINT('',(-0.035,0.0542,-0.069));
#927=CARTESIAN_POINT('',(-0.05825,0.0542,-0.069));
#928=CARTESIAN_POINT('',(-0.0295,0.0542,-0.069));
#929=CARTESIAN_POINT('',(-0.0295,0.0542,-0.069));
#930=CARTESIAN_POINT('',(-0.0261666666666667,0.0542,-0.069));
#931=CARTESIAN_POINT('',(-0.0245,0.0525333333333333,-0.069));
#932=CARTESIAN_POINT('',(-0.0245,0.0492,-0.069));
#933=CARTESIAN_POINT('',(-0.0245,0.0492,-0.069));
#934=CARTESIAN_POINT('',(-0.0245,0.0492,-0.069));
#935=CARTESIAN_POINT('',(-0.0245,0.0458666666666667,-0.069));
#936=CARTESIAN_POINT('',(-0.0261666666666667,0.0442,-0.069));
#937=CARTESIAN_POINT('',(-0.0295,0.0442,-0.069));
#938=CARTESIAN_POINT('',(-0.0334,0.0159897045612905,-0.069));
#939=CARTESIAN_POINT('',(-0.0334,0.0458,-0.069));
#940=CARTESIAN_POINT('',(-0.0334,0.0526,-0.069));
#941=CARTESIAN_POINT('',(-0.047,0.0458,-0.069));
#942=CARTESIAN_POINT('',(-0.0295,0.0458,-0.069));
#943=CARTESIAN_POINT('',(-0.0261,0.0492000000101267,-0.069));
#944=CARTESIAN_POINT('',(-0.0260999999987978,0.048731532330581,-0.069));
#945=CARTESIAN_POINT('',(-0.026166914668017,0.047805635790143,-0.069));
#946=CARTESIAN_POINT('',(-0.0267532006269003,0.0464545679568891,-0.0690000000000001));
#947=CARTESIAN_POINT('',(-0.0281064051300798,0.0458664207389465,-0.069));
#948=CARTESIAN_POINT('',(-0.0290316505977855,0.045799999999399,-0.069));
#949=CARTESIAN_POINT('',(-0.0295000000101266,0.0458,-0.069));
#950=CARTESIAN_POINT('',(-0.0261,0.0492,-0.069));
#951=CARTESIAN_POINT('',(-0.0295000000101266,0.0526,-0.069));
#952=CARTESIAN_POINT('',(-0.0290318134358323,0.0526000000012015,-0.069));
#953=CARTESIAN_POINT('',(-0.0281089567578007,0.0525336838454395,-0.069));
#954=CARTESIAN_POINT('',(-0.0267547211845341,0.051947635564725,-0.069));
#955=CARTESIAN_POINT('',(-0.0261664559140053,0.0505936172435212,-0.069));
#956=CARTESIAN_POINT('',(-0.0260999999993989,0.0496685057613643,-0.069));
#957=CARTESIAN_POINT('',(-0.0261,0.0491999999898734,-0.069));
#958=CARTESIAN_POINT('',(-0.0295,0.0526,-0.069));
#959=CARTESIAN_POINT('',(-0.05825,0.0526,-0.069));
#960=CARTESIAN_POINT('',(-0.047,0.0204555706644837,-0.069));
#961=CARTESIAN_POINT('',(-0.059,0.0204555706644837,-0.069));
#962=CARTESIAN_POINT('',(-0.059,0.0442,-0.069));
#963=CARTESIAN_POINT('',(-0.059,0.0542,-0.069));
#964=CARTESIAN_POINT('',(-0.047,0.0442,-0.069));
#965=CARTESIAN_POINT('',(-0.0645,0.0442,-0.069));
#966=CARTESIAN_POINT('',(-0.0645,0.0442,-0.069));
#967=CARTESIAN_POINT('',(-0.0678333333333333,0.0442,-0.069));
#968=CARTESIAN_POINT('',(-0.0695,0.0458666666666667,-0.069));
#969=CARTESIAN_POINT('',(-0.0695,0.0492,-0.069));
#970=CARTESIAN_POINT('',(-0.0695,0.0492,-0.069));
#971=CARTESIAN_POINT('',(-0.0695,0.0492,-0.069));
#972=CARTESIAN_POINT('',(-0.0695,0.0525333333333333,-0.069));
#973=CARTESIAN_POINT('',(-0.0678333333333333,0.0542,-0.069));
#974=CARTESIAN_POINT('',(-0.0645,0.0542,-0.069));
#975=CARTESIAN_POINT('',(-0.0645,0.0542,-0.069));
#976=CARTESIAN_POINT('',(-0.05825,0.0542,-0.069));
#977=CARTESIAN_POINT('',(-0.047,0.0458,-0.069));
#978=CARTESIAN_POINT('',(-0.0645,0.0458,-0.069));
#979=CARTESIAN_POINT('',(-0.0606,0.0458,-0.069));
#980=CARTESIAN_POINT('',(-0.0606,0.0204555706644837,-0.069));
#981=CARTESIAN_POINT('',(-0.0606,0.0526,-0.069));
#982=CARTESIAN_POINT('',(-0.05825,0.0526,-0.069));
#983=CARTESIAN_POINT('',(-0.0645,0.0526,-0.069));
#984=CARTESIAN_POINT('',(-0.0679,0.0491999999898734,-0.069));
#985=CARTESIAN_POINT('',(-0.0679000000012015,0.0496681865641677,-0.069));
#986=CARTESIAN_POINT('',(-0.0678336838454395,0.0505910432421992,-0.069));
#987=CARTESIAN_POINT('',(-0.0672476355647251,0.051945278815466,-0.069));
#988=CARTESIAN_POINT('',(-0.0658936172435212,0.0525335440859946,-0.069));
#989=CARTESIAN_POINT('',(-0.0649685057613643,0.0526000000006011,-0.069));
#990=CARTESIAN_POINT('',(-0.0644999999898734,0.0526,-0.069));
#991=CARTESIAN_POINT('',(-0.0679,0.0492,-0.069));
#992=CARTESIAN_POINT('',(-0.0644999999898734,0.0458,-0.069));
#993=CARTESIAN_POINT('',(-0.0649681865641678,0.0457999999987985,-0.069));
#994=CARTESIAN_POINT('',(-0.0658910432421994,0.0458663161545606,-0.069));
#995=CARTESIAN_POINT('',(-0.0672452788154659,0.0464523644352751,-0.069));
#996=CARTESIAN_POINT('',(-0.0678335440859948,0.0478063827564788,-0.069));
#997=CARTESIAN_POINT('',(-0.0679000000006011,0.0487314942386358,-0.069));
#998=CARTESIAN_POINT('',(-0.0679,0.0492000000101267,-0.069));
#999=CARTESIAN_POINT('',(-0.047,0.0105,-0.066));
#1000=CARTESIAN_POINT('',(-0.047,0.0492,-0.066));
#1001=CARTESIAN_POINT('',(-0.05,0.0492,-0.066));
#1002=CARTESIAN_POINT('',(-0.05825,0.0542,-0.066));
#1003=CARTESIAN_POINT('',(-0.0574142135623731,0.0542,-0.066));
#1004=CARTESIAN_POINT('',(-0.0365857864376269,0.0542,-0.066));
#1005=CARTESIAN_POINT('',(-0.0365857864376269,0.0105,-0.066));
#1006=CARTESIAN_POINT('',(-0.0365857864376269,0.0442,-0.066));
#1007=CARTESIAN_POINT('',(-0.047,0.0442,-0.066));
#1008=CARTESIAN_POINT('',(-0.0574142135623731,0.0442,-0.066));
#1009=CARTESIAN_POINT('',(-0.0574142135623731,0.0105,-0.066));
#1010=CARTESIAN_POINT('',(-0.047,0.0492,-0.0808));
#1011=CARTESIAN_POINT('',(-0.047,0.0492,-0.062));
#1012=CARTESIAN_POINT('',(-0.04875,0.0492,-0.062));
#1013=CARTESIAN_POINT('',(-0.047,0.0492,-0.065));
#1014=CARTESIAN_POINT('',(-0.04875,0.0492,-0.065));
#1015=CARTESIAN_POINT('',(-0.05825,0.0542,-0.067));
#1016=CARTESIAN_POINT('',(-0.05825,0.0542,-0.062));
#1017=CARTESIAN_POINT('',(-0.0645,0.0542,-0.062));
#1018=CARTESIAN_POINT('',(-0.0295,0.0542,-0.062));
#1019=CARTESIAN_POINT('',(-0.0295,0.0542,-0.0645));
#1020=CARTESIAN_POINT('',(-0.0295,0.0542,-0.067));
#1021=CARTESIAN_POINT('',(-0.0295,0.0542,-0.068));
#1022=CARTESIAN_POINT('',(-0.035,0.0542,-0.07));
#1023=CARTESIAN_POINT('',(-0.035,0.0542,-0.0675857864376269));
#1024=CARTESIAN_POINT('',(-0.0469178932188135,0.0542,-0.0556678932188134));
#1025=CARTESIAN_POINT('',(-0.0583321067811866,0.0542,-0.0669178932188135));
#1026=CARTESIAN_POINT('',(-0.059,0.0542,-0.0675857864376269));
#1027=CARTESIAN_POINT('',(-0.059,0.0542,-0.07));
#1028=CARTESIAN_POINT('',(-0.0645,0.0542,-0.068));
#1029=CARTESIAN_POINT('',(-0.0645,0.0542,-0.067));
#1030=CARTESIAN_POINT('',(-0.0645,0.0542,-0.0645));
#1031=CARTESIAN_POINT('',(-0.047,0.0442,-0.067));
#1032=CARTESIAN_POINT('',(-0.0645,0.0442,-0.0645));
#1033=CARTESIAN_POINT('',(-0.0645,0.0442,-0.062));
#1034=CARTESIAN_POINT('',(-0.0645,0.0442,-0.067));
#1035=CARTESIAN_POINT('',(-0.0645,0.0442,-0.068));
#1036=CARTESIAN_POINT('',(-0.059,0.0442,-0.07));
#1037=CARTESIAN_POINT('',(-0.059,0.0442,-0.0675857864376269));
#1038=CARTESIAN_POINT('',(-0.0577071067811866,0.0442,-0.0662928932188134));
#1039=CARTESIAN_POINT('',(-0.0342928932188135,0.0442,-0.0682928932188134));
#1040=CARTESIAN_POINT('',(-0.035,0.0442,-0.0675857864376269));
#1041=CARTESIAN_POINT('',(-0.035,0.0442,-0.07));
#1042=CARTESIAN_POINT('',(-0.0295,0.0442,-0.068));
#1043=CARTESIAN_POINT('',(-0.0295,0.0442,-0.067));
#1044=CARTESIAN_POINT('',(-0.0295,0.0442,-0.0645));
#1045=CARTESIAN_POINT('',(-0.0295,0.0442,-0.062));
#1046=CARTESIAN_POINT('',(-0.047,0.0442,-0.062));
#1047=CARTESIAN_POINT('',(-0.047,0.0105,-0.062));
#1048=CARTESIAN_POINT('',(-0.0295,0.0442,-0.062));
#1049=CARTESIAN_POINT('',(-0.0261666666666667,0.0442,-0.062));
#1050=CARTESIAN_POINT('',(-0.0245,0.0458666666666667,-0.062));
#1051=CARTESIAN_POINT('',(-0.0245,0.0492,-0.062));
#1052=CARTESIAN_POINT('',(-0.0245,0.0492,-0.062));
#1053=CARTESIAN_POINT('',(-0.0245,0.0492,-0.062));
#1054=CARTESIAN_POINT('',(-0.0245,0.0525333333333333,-0.062));
#1055=CARTESIAN_POINT('',(-0.0261666666666667,0.0542,-0.062));
#1056=CARTESIAN_POINT('',(-0.0295,0.0542,-0.062));
#1057=CARTESIAN_POINT('',(-0.0645,0.0542,-0.062));
#1058=CARTESIAN_POINT('',(-0.0678333333333333,0.0542,-0.062));
#1059=CARTESIAN_POINT('',(-0.0695,0.0525333333333333,-0.062));
#1060=CARTESIAN_POINT('',(-0.0695,0.0492,-0.062));
#1061=CARTESIAN_POINT('',(-0.0695,0.0492,-0.062));
#1062=CARTESIAN_POINT('',(-0.0695,0.0492,-0.062));
#1063=CARTESIAN_POINT('',(-0.0695,0.0458666666666667,-0.062));
#1064=CARTESIAN_POINT('',(-0.0678333333333333,0.0442,-0.062));
#1065=CARTESIAN_POINT('',(-0.0645,0.0442,-0.062));
#1066=CARTESIAN_POINT('',(-0.0245,0.0492000000000065,-0.067));
#1067=CARTESIAN_POINT('',(-0.0245,0.0492000000000065,-0.062));
#1068=CARTESIAN_POINT('',(-0.0245000000000022,0.0525333333333334,-0.067));
#1069=CARTESIAN_POINT('',(-0.0245000000000022,0.0525333333333334,-0.062));
#1070=CARTESIAN_POINT('',(-0.0261666666666667,0.0541999999999978,-0.067));
#1071=CARTESIAN_POINT('',(-0.0261666666666667,0.0541999999999978,-0.062));
#1072=CARTESIAN_POINT('',(-0.0294999999999935,0.0542,-0.067));
#1073=CARTESIAN_POINT('',(-0.0294999999999935,0.0542,-0.062));
#1074=CARTESIAN_POINT('',(-0.0245,0.0492,-0.0645));
#1075=CARTESIAN_POINT('',(-0.0245,0.0492,-0.067));
#1076=CARTESIAN_POINT('',(-0.0245,0.0492,-0.067));
#1077=CARTESIAN_POINT('',(-0.0245,0.0525333333333334,-0.067));
#1078=CARTESIAN_POINT('',(-0.0261666666666667,0.0542,-0.067));
#1079=CARTESIAN_POINT('',(-0.0295,0.0542,-0.067));
#1080=CARTESIAN_POINT('',(-0.0245,0.0491999999999935,-0.062));
#1081=CARTESIAN_POINT('',(-0.0245,0.0491999999999935,-0.067));
#1082=CARTESIAN_POINT('',(-0.0245000000000022,0.0458666666666666,-0.062));
#1083=CARTESIAN_POINT('',(-0.0245000000000022,0.0458666666666666,-0.067));
#1084=CARTESIAN_POINT('',(-0.0261666666666667,0.0442000000000021,-0.062));
#1085=CARTESIAN_POINT('',(-0.0261666666666667,0.0442000000000021,-0.067));
#1086=CARTESIAN_POINT('',(-0.0294999999999935,0.0442,-0.062));
#1087=CARTESIAN_POINT('',(-0.0294999999999935,0.0442,-0.067));
#1088=CARTESIAN_POINT('',(-0.0295,0.0442,-0.067));
#1089=CARTESIAN_POINT('',(-0.0261666666666667,0.0442,-0.067));
#1090=CARTESIAN_POINT('',(-0.0245,0.0458666666666666,-0.067));
#1091=CARTESIAN_POINT('',(-0.0245,0.0492,-0.067));
#1092=CARTESIAN_POINT('',(-0.0695,0.0492000000000065,-0.062));
#1093=CARTESIAN_POINT('',(-0.0695,0.0492000000000065,-0.067));
#1094=CARTESIAN_POINT('',(-0.0694999999999977,0.0525333333333333,-0.062));
#1095=CARTESIAN_POINT('',(-0.0694999999999977,0.0525333333333333,-0.067));
#1096=CARTESIAN_POINT('',(-0.0678333333333331,0.054199999999998,-0.062));
#1097=CARTESIAN_POINT('',(-0.0678333333333331,0.054199999999998,-0.067));
#1098=CARTESIAN_POINT('',(-0.0645000000000065,0.0542,-0.062));
#1099=CARTESIAN_POINT('',(-0.0645000000000065,0.0542,-0.067));
#1100=CARTESIAN_POINT('',(-0.0645,0.0542,-0.067));
#1101=CARTESIAN_POINT('',(-0.0678333333333333,0.0542,-0.067));
#1102=CARTESIAN_POINT('',(-0.0695,0.0525333333333333,-0.067));
#1103=CARTESIAN_POINT('',(-0.0695,0.0492,-0.067));
#1104=CARTESIAN_POINT('',(-0.0695,0.0492,-0.067));
#1105=CARTESIAN_POINT('',(-0.0695,0.0492,-0.0645));
#1106=CARTESIAN_POINT('',(-0.0695,0.0491999999999935,-0.067));
#1107=CARTESIAN_POINT('',(-0.0695,0.0491999999999935,-0.062));
#1108=CARTESIAN_POINT('',(-0.0694999999999978,0.0458666666666668,-0.067));
#1109=CARTESIAN_POINT('',(-0.0694999999999978,0.0458666666666668,-0.062));
#1110=CARTESIAN_POINT('',(-0.0678333333333334,0.0442000000000021,-0.067));
#1111=CARTESIAN_POINT('',(-0.0678333333333334,0.0442000000000021,-0.062));
#1112=CARTESIAN_POINT('',(-0.0645000000000065,0.0442,-0.067));
#1113=CARTESIAN_POINT('',(-0.0645000000000065,0.0442,-0.062));
#1114=CARTESIAN_POINT('',(-0.0695,0.0492,-0.067));
#1115=CARTESIAN_POINT('',(-0.0695,0.0458666666666667,-0.067));
#1116=CARTESIAN_POINT('',(-0.0678333333333333,0.0442,-0.067));
#1117=CARTESIAN_POINT('',(-0.0645,0.0442,-0.067));
#1118=CARTESIAN_POINT('',(-0.047,0.0492,-0.065));
#1119=CARTESIAN_POINT('',(-0.047,0.0492,-0.065));
#1120=CARTESIAN_POINT('',(-0.05,0.0492,-0.065));
#1121=CARTESIAN_POINT('',(-0.047,0.009475,-0.065));
#1122=CARTESIAN_POINT('',(-0.035,0.0159897045612905,-0.07));
#1123=CARTESIAN_POINT('',(-0.035,0.0159897045612905,-0.0675857864376269));
#1124=CARTESIAN_POINT('',(-0.0294999999999935,0.0542,-0.069));
#1125=CARTESIAN_POINT('',(-0.0294999999999935,0.0542,-0.067));
#1126=CARTESIAN_POINT('',(-0.0261666666666667,0.0541999999999979,-0.069));
#1127=CARTESIAN_POINT('',(-0.0261666666666667,0.0541999999999979,-0.067));
#1128=CARTESIAN_POINT('',(-0.0245000000000021,0.0525333333333333,-0.069));
#1129=CARTESIAN_POINT('',(-0.0245000000000021,0.0525333333333333,-0.067));
#1130=CARTESIAN_POINT('',(-0.0245,0.0492000000000065,-0.069));
#1131=CARTESIAN_POINT('',(-0.0245,0.0492000000000065,-0.067));
#1132=CARTESIAN_POINT('',(-0.0245,0.0492,-0.068));
#1133=CARTESIAN_POINT('',(-0.0245,0.0491999999999935,-0.069));
#1134=CARTESIAN_POINT('',(-0.0245,0.0491999999999935,-0.067));
#1135=CARTESIAN_POINT('',(-0.0245000000000021,0.0458666666666668,-0.069));
#1136=CARTESIAN_POINT('',(-0.0245000000000021,0.0458666666666668,-0.067));
#1137=CARTESIAN_POINT('',(-0.0261666666666667,0.0442000000000021,-0.069));
#1138=CARTESIAN_POINT('',(-0.0261666666666667,0.0442000000000021,-0.067));
#1139=CARTESIAN_POINT('',(-0.0294999999999935,0.0442,-0.069));
#1140=CARTESIAN_POINT('',(-0.0294999999999935,0.0442,-0.067));
#1141=CARTESIAN_POINT('',(-0.059,0.0204555706644837,-0.07));
#1142=CARTESIAN_POINT('',(-0.059,0.0204555706644837,-0.0675857864376269));
#1143=CARTESIAN_POINT('',(-0.0645000000000065,0.0442,-0.069));
#1144=CARTESIAN_POINT('',(-0.0645000000000065,0.0442,-0.067));
#1145=CARTESIAN_POINT('',(-0.0678333333333333,0.0442000000000021,-0.069));
#1146=CARTESIAN_POINT('',(-0.0678333333333333,0.0442000000000021,-0.067));
#1147=CARTESIAN_POINT('',(-0.0694999999999979,0.0458666666666668,-0.069));
#1148=CARTESIAN_POINT('',(-0.0694999999999979,0.0458666666666668,-0.067));
#1149=CARTESIAN_POINT('',(-0.0695,0.0491999999999935,-0.069));
#1150=CARTESIAN_POINT('',(-0.0695,0.0491999999999935,-0.067));
#1151=CARTESIAN_POINT('',(-0.0695,0.0492,-0.068));
#1152=CARTESIAN_POINT('',(-0.0695,0.0492000000000065,-0.069));
#1153=CARTESIAN_POINT('',(-0.0695,0.0492000000000065,-0.067));
#1154=CARTESIAN_POINT('',(-0.0694999999999977,0.0525333333333333,-0.069));
#1155=CARTESIAN_POINT('',(-0.0694999999999977,0.0525333333333333,-0.067));
#1156=CARTESIAN_POINT('',(-0.0678333333333333,0.0541999999999979,-0.069));
#1157=CARTESIAN_POINT('',(-0.0678333333333333,0.0541999999999979,-0.067));
#1158=CARTESIAN_POINT('',(-0.0645000000000065,0.0542,-0.069));
#1159=CARTESIAN_POINT('',(-0.0645000000000065,0.0542,-0.067));
#1160=CARTESIAN_POINT('',(-0.05825,0.0526,-0.067));
#1161=CARTESIAN_POINT('',(-0.0500983866769659,0.0526,-0.065));
#1162=CARTESIAN_POINT('',(-0.0500983866769659,0.0526,-0.0636));
#1163=CARTESIAN_POINT('',(-0.0500983866769659,0.0526,-0.0654));
#1164=CARTESIAN_POINT('',(-0.05825,0.0526,-0.0636));
#1165=CARTESIAN_POINT('',(-0.0645,0.0526,-0.0636));
#1166=CARTESIAN_POINT('',(-0.0645,0.0526,-0.0653));
#1167=CARTESIAN_POINT('',(-0.0645,0.0526,-0.067));
#1168=CARTESIAN_POINT('',(-0.0645,0.0526,-0.068));
#1169=CARTESIAN_POINT('',(-0.0606,0.0526,-0.067));
#1170=CARTESIAN_POINT('',(-0.0606,0.0526,-0.0654));
#1171=CARTESIAN_POINT('',(-0.05825,0.0526,-0.0654));
#1172=CARTESIAN_POINT('',(-0.047,0.0458,-0.067));
#1173=CARTESIAN_POINT('',(-0.0500983866769659,0.0458,-0.065));
#1174=CARTESIAN_POINT('',(-0.0500983866769659,0.0458,-0.0636));
#1175=CARTESIAN_POINT('',(-0.0500983866769659,0.0458,-0.0654));
#1176=CARTESIAN_POINT('',(-0.047,0.0458,-0.0654));
#1177=CARTESIAN_POINT('',(-0.0606,0.0458,-0.0654));
#1178=CARTESIAN_POINT('',(-0.0606,0.0458,-0.067));
#1179=CARTESIAN_POINT('',(-0.0645,0.0458,-0.068));
#1180=CARTESIAN_POINT('',(-0.0645,0.0458,-0.067));
#1181=CARTESIAN_POINT('',(-0.0645,0.0458,-0.0653));
#1182=CARTESIAN_POINT('',(-0.0645,0.0458,-0.0636));
#1183=CARTESIAN_POINT('',(-0.047,0.0458,-0.0636));
#1184=CARTESIAN_POINT('',(-0.047,0.0105,-0.0654));
#1185=CARTESIAN_POINT('',(-0.047,0.0492,-0.0654));
#1186=CARTESIAN_POINT('',(-0.0606,0.0204555706644837,-0.0654));
#1187=CARTESIAN_POINT('',(-0.047,0.0105,-0.0636));
#1188=CARTESIAN_POINT('',(-0.047,0.0492,-0.0636));
#1189=CARTESIAN_POINT('',(-0.067899999999982,0.0492000000116177,-0.0636));
#1190=CARTESIAN_POINT('',(-0.0679007284717168,0.0487315496459348,-0.0636));
#1191=CARTESIAN_POINT('',(-0.0678334601198329,0.0478061789129757,-0.0636));
#1192=CARTESIAN_POINT('',(-0.0672469343665944,0.0464547546622434,-0.0636));
#1193=CARTESIAN_POINT('',(-0.0658936899554518,0.0458661412020219,-0.0636));
#1194=CARTESIAN_POINT('',(-0.0649684407808813,0.0457992715438679,-0.0636));
#1195=CARTESIAN_POINT('',(-0.0644999999883823,0.0458000000000181,-0.0636));
#1196=CARTESIAN_POINT('',(-0.0679,0.0492,-0.0636));
#1197=CARTESIAN_POINT('',(-0.0644999999883823,0.0525999999999819,-0.0636));
#1198=CARTESIAN_POINT('',(-0.0649682222570572,0.0526007281170106,-0.0636));
#1199=CARTESIAN_POINT('',(-0.0658910442143664,0.0525339655597818,-0.0636));
#1200=CARTESIAN_POINT('',(-0.0672451284638358,0.0519476221189453,-0.0636));
#1201=CARTESIAN_POINT('',(-0.0678338274596238,0.0505937059270106,-0.0636));
#1202=CARTESIAN_POINT('',(-0.0679007286559959,0.0496685693052306,-0.0636));
#1203=CARTESIAN_POINT('',(-0.0678999999999819,0.0491999999883823,-0.0636));
#1204=CARTESIAN_POINT('',(-0.0678999999999639,0.0491999999767646,-0.0636));
#1205=CARTESIAN_POINT('',(-0.0678999999999639,0.0491999999767646,-0.067));
#1206=CARTESIAN_POINT('',(-0.0679010920761096,0.0499022694614698,-0.0636));
#1207=CARTESIAN_POINT('',(-0.0679010920761096,0.0499022694614698,-0.067));
#1208=CARTESIAN_POINT('',(-0.0677131577657477,0.0510188169010229,-0.0636));
#1209=CARTESIAN_POINT('',(-0.0677131577657477,0.0510188169010229,-0.067));
#1210=CARTESIAN_POINT('',(-0.0671699500584596,0.0518699500584596,-0.0636));
#1211=CARTESIAN_POINT('',(-0.0671699500584596,0.0518699500584596,-0.067));
#1212=CARTESIAN_POINT('',(-0.066318816901023,0.0524131577657477,-0.0636));
#1213=CARTESIAN_POINT('',(-0.066318816901023,0.0524131577657477,-0.067));
#1214=CARTESIAN_POINT('',(-0.0652022694614697,0.0526010920761096,-0.0636));
#1215=CARTESIAN_POINT('',(-0.0652022694614697,0.0526010920761096,-0.067));
#1216=CARTESIAN_POINT('',(-0.0644999999767646,0.0525999999999638,-0.0636));
#1217=CARTESIAN_POINT('',(-0.0644999999767646,0.0525999999999638,-0.067));
#1218=CARTESIAN_POINT('',(-0.0679,0.0492,-0.0653));
#1219=CARTESIAN_POINT('',(-0.0679,0.0492,-0.067));
#1220=CARTESIAN_POINT('',(-0.0678999999999685,0.0491999999797464,-0.067));
#1221=CARTESIAN_POINT('',(-0.0679010920758444,0.0499022694635471,-0.067));
#1222=CARTESIAN_POINT('',(-0.0677131577653821,0.0510188169016864,-0.067));
#1223=CARTESIAN_POINT('',(-0.067169950058385,0.0518699500583855,-0.067));
#1224=CARTESIAN_POINT('',(-0.0663188169016854,0.0524131577653825,-0.067));
#1225=CARTESIAN_POINT('',(-0.0652022694635455,0.0526010920758445,-0.067));
#1226=CARTESIAN_POINT('',(-0.0644999999797446,0.0525999999999684,-0.067));
#1227=CARTESIAN_POINT('',(-0.0678999999999639,0.0492000000232353,-0.067));
#1228=CARTESIAN_POINT('',(-0.0678999999999639,0.0492000000232353,-0.0636));
#1229=CARTESIAN_POINT('',(-0.0679010920761096,0.0484977305385303,-0.067));
#1230=CARTESIAN_POINT('',(-0.0679010920761096,0.0484977305385303,-0.0636));
#1231=CARTESIAN_POINT('',(-0.0677131577657478,0.0473811830989771,-0.067));
#1232=CARTESIAN_POINT('',(-0.0677131577657478,0.0473811830989771,-0.0636));
#1233=CARTESIAN_POINT('',(-0.0671699500584597,0.0465300499415405,-0.067));
#1234=CARTESIAN_POINT('',(-0.0671699500584597,0.0465300499415405,-0.0636));
#1235=CARTESIAN_POINT('',(-0.0663188169010229,0.0459868422342523,-0.067));
#1236=CARTESIAN_POINT('',(-0.0663188169010229,0.0459868422342523,-0.0636));
#1237=CARTESIAN_POINT('',(-0.0652022694614696,0.0457989079238905,-0.067));
#1238=CARTESIAN_POINT('',(-0.0652022694614696,0.0457989079238905,-0.0636));
#1239=CARTESIAN_POINT('',(-0.0644999999767646,0.0458000000000362,-0.067));
#1240=CARTESIAN_POINT('',(-0.0644999999767646,0.0458000000000362,-0.0636));
#1241=CARTESIAN_POINT('',(-0.0644999999797464,0.0458000000000315,-0.067));
#1242=CARTESIAN_POINT('',(-0.0652022694635468,0.0457989079241557,-0.067));
#1243=CARTESIAN_POINT('',(-0.0663188169016862,0.0459868422346178,-0.067));
#1244=CARTESIAN_POINT('',(-0.0671699500583852,0.0465300499416149,-0.067));
#1245=CARTESIAN_POINT('',(-0.0677131577653822,0.0473811830983139,-0.067));
#1246=CARTESIAN_POINT('',(-0.0679010920758444,0.048497730536453,-0.067));
#1247=CARTESIAN_POINT('',(-0.0678999999999685,0.0492000000202535,-0.067));
#1248=CARTESIAN_POINT('',(-0.047,0.0492,-0.065));
#1249=CARTESIAN_POINT('',(-0.0606,0.0204555706644837,-0.07));
#1250=CARTESIAN_POINT('',(-0.0644999999797467,0.0458,-0.069));
#1251=CARTESIAN_POINT('',(-0.0644999999797467,0.0458,-0.067));
#1252=CARTESIAN_POINT('',(-0.0651999999858235,0.0457999999982036,-0.069));
#1253=CARTESIAN_POINT('',(-0.0651999999858235,0.0457999999982036,-0.067));
#1254=CARTESIAN_POINT('',(-0.06631990959042,0.045986254147573,-0.069));
#1255=CARTESIAN_POINT('',(-0.06631990959042,0.045986254147573,-0.067));
#1256=CARTESIAN_POINT('',(-0.0671695298644405,0.0465304701355595,-0.069));
#1257=CARTESIAN_POINT('',(-0.0671695298644405,0.0465304701355595,-0.067));
#1258=CARTESIAN_POINT('',(-0.0677137458524271,0.0473800904095803,-0.069));
#1259=CARTESIAN_POINT('',(-0.0677137458524271,0.0473800904095803,-0.067));
#1260=CARTESIAN_POINT('',(-0.0679000000017964,0.0485000000141764,-0.069));
#1261=CARTESIAN_POINT('',(-0.0679000000017964,0.0485000000141764,-0.067));
#1262=CARTESIAN_POINT('',(-0.0679000000000001,0.0492000000202533,-0.069));
#1263=CARTESIAN_POINT('',(-0.0679000000000001,0.0492000000202533,-0.067));
#1264=CARTESIAN_POINT('',(-0.0679,0.0492,-0.068));
#1265=CARTESIAN_POINT('',(-0.0679,0.0491999999797467,-0.069));
#1266=CARTESIAN_POINT('',(-0.0679,0.0491999999797467,-0.067));
#1267=CARTESIAN_POINT('',(-0.0679000000017964,0.0498999999858236,-0.069));
#1268=CARTESIAN_POINT('',(-0.0679000000017964,0.0498999999858236,-0.067));
#1269=CARTESIAN_POINT('',(-0.0677137458524271,0.0510199095904197,-0.0689999999999999));
#1270=CARTESIAN_POINT('',(-0.0677137458524271,0.0510199095904197,-0.0669999999999999));
#1271=CARTESIAN_POINT('',(-0.0671695298644406,0.0518695298644406,-0.069));
#1272=CARTESIAN_POINT('',(-0.0671695298644406,0.0518695298644406,-0.067));
#1273=CARTESIAN_POINT('',(-0.0663199095904199,0.052413745852427,-0.069));
#1274=CARTESIAN_POINT('',(-0.0663199095904198,0.052413745852427,-0.067));
#1275=CARTESIAN_POINT('',(-0.0651999999858235,0.0526000000017962,-0.069));
#1276=CARTESIAN_POINT('',(-0.0651999999858235,0.0526000000017962,-0.067));
#1277=CARTESIAN_POINT('',(-0.0644999999797467,0.0526,-0.069));
#1278=CARTESIAN_POINT('',(-0.0644999999797467,0.0526,-0.067));
#1279=CARTESIAN_POINT('',(-0.0261,0.0492000000202533,-0.069));
#1280=CARTESIAN_POINT('',(-0.0261,0.0492000000202533,-0.067));
#1281=CARTESIAN_POINT('',(-0.0260999999982036,0.0485000000141764,-0.069));
#1282=CARTESIAN_POINT('',(-0.0260999999982036,0.0485000000141764,-0.067));
#1283=CARTESIAN_POINT('',(-0.026286254147573,0.0473800904095802,-0.069));
#1284=CARTESIAN_POINT('',(-0.026286254147573,0.0473800904095802,-0.067));
#1285=CARTESIAN_POINT('',(-0.0268304701355595,0.0465304701355595,-0.069));
#1286=CARTESIAN_POINT('',(-0.0268304701355595,0.0465304701355595,-0.067));
#1287=CARTESIAN_POINT('',(-0.0276800904095802,0.045986254147573,-0.069));
#1288=CARTESIAN_POINT('',(-0.0276800904095802,0.045986254147573,-0.067));
#1289=CARTESIAN_POINT('',(-0.0288000000141764,0.0457999999982037,-0.069));
#1290=CARTESIAN_POINT('',(-0.0288000000141764,0.0457999999982037,-0.067));
#1291=CARTESIAN_POINT('',(-0.0295000000202533,0.0458000000000001,-0.069));
#1292=CARTESIAN_POINT('',(-0.0295000000202533,0.0458000000000001,-0.067));
#1293=CARTESIAN_POINT('',(-0.0295000000281316,0.0458000000000001,-0.067));
#1294=CARTESIAN_POINT('',(-0.0288000000196909,0.0457999999975049,-0.067));
#1295=CARTESIAN_POINT('',(-0.0276800904113404,0.0459862541466049,-0.067));
#1296=CARTESIAN_POINT('',(-0.0268304701353615,0.0465304701353615,-0.067));
#1297=CARTESIAN_POINT('',(-0.0262862541466049,0.0473800904113404,-0.067));
#1298=CARTESIAN_POINT('',(-0.0260999999975049,0.0485000000196908,-0.067));
#1299=CARTESIAN_POINT('',(-0.0261,0.0492000000281315,-0.067));
#1300=CARTESIAN_POINT('',(-0.0261,0.0492,-0.067));
#1301=CARTESIAN_POINT('',(-0.0295,0.0458,-0.067));
#1302=CARTESIAN_POINT('',(-0.0261,0.0492,-0.068));
#1303=CARTESIAN_POINT('',(-0.0295,0.0458,-0.068));
#1304=CARTESIAN_POINT('',(-0.0295000000202533,0.0526,-0.069));
#1305=CARTESIAN_POINT('',(-0.0295000000202533,0.0526,-0.067));
#1306=CARTESIAN_POINT('',(-0.0288000000141765,0.0526000000017964,-0.069));
#1307=CARTESIAN_POINT('',(-0.0288000000141765,0.0526000000017964,-0.067));
#1308=CARTESIAN_POINT('',(-0.0276800904095802,0.0524137458524271,-0.069));
#1309=CARTESIAN_POINT('',(-0.0276800904095802,0.0524137458524271,-0.067));
#1310=CARTESIAN_POINT('',(-0.0268304701355595,0.0518695298644406,-0.069));
#1311=CARTESIAN_POINT('',(-0.0268304701355595,0.0518695298644406,-0.067));
#1312=CARTESIAN_POINT('',(-0.0262862541475729,0.0510199095904198,-0.069));
#1313=CARTESIAN_POINT('',(-0.0262862541475729,0.0510199095904198,-0.067));
#1314=CARTESIAN_POINT('',(-0.0260999999982037,0.0498999999858236,-0.069));
#1315=CARTESIAN_POINT('',(-0.0260999999982037,0.0498999999858236,-0.067));
#1316=CARTESIAN_POINT('',(-0.0261,0.0491999999797467,-0.069));
#1317=CARTESIAN_POINT('',(-0.0261,0.0491999999797467,-0.067));
#1318=CARTESIAN_POINT('',(-0.0261,0.0491999999718671,-0.067));
#1319=CARTESIAN_POINT('',(-0.0260999999975049,0.0498999999803081,-0.067));
#1320=CARTESIAN_POINT('',(-0.0262862541466046,0.0510199095886591,-0.067));
#1321=CARTESIAN_POINT('',(-0.0268304701353613,0.0518695298646384,-0.067));
#1322=CARTESIAN_POINT('',(-0.0276800904113402,0.0524137458533953,-0.067));
#1323=CARTESIAN_POINT('',(-0.0288000000196909,0.0526000000024952,-0.067));
#1324=CARTESIAN_POINT('',(-0.0295000000281316,0.0526,-0.067));
#1325=CARTESIAN_POINT('',(-0.0295,0.0526,-0.067));
#1326=CARTESIAN_POINT('',(-0.0295,0.0526,-0.068));
#1327=CARTESIAN_POINT('',(-0.0334,0.0159897045612905,-0.07));
#1328=CARTESIAN_POINT('',(-0.0334,0.0159897045612905,-0.0654));
#1329=CARTESIAN_POINT('',(-0.0334,0.0458,-0.0654));
#1330=CARTESIAN_POINT('',(-0.0334,0.0526,-0.0654));
#1331=CARTESIAN_POINT('',(-0.0334,0.0458,-0.067));
#1332=CARTESIAN_POINT('',(-0.0334,0.0526,-0.067));
#1333=CARTESIAN_POINT('',(-0.0261000000000361,0.0492000000232354,-0.0636));
#1334=CARTESIAN_POINT('',(-0.0261000000000361,0.0492000000232354,-0.067));
#1335=CARTESIAN_POINT('',(-0.0260989079238904,0.0484977305385305,-0.0636));
#1336=CARTESIAN_POINT('',(-0.0260989079238904,0.0484977305385305,-0.067));
#1337=CARTESIAN_POINT('',(-0.0262868422342523,0.0473811830989771,-0.0636));
#1338=CARTESIAN_POINT('',(-0.0262868422342523,0.0473811830989771,-0.067));
#1339=CARTESIAN_POINT('',(-0.0268300499415405,0.0465300499415405,-0.0636));
#1340=CARTESIAN_POINT('',(-0.0268300499415405,0.0465300499415405,-0.067));
#1341=CARTESIAN_POINT('',(-0.027681183098977,0.0459868422342523,-0.0636));
#1342=CARTESIAN_POINT('',(-0.027681183098977,0.0459868422342523,-0.067));
#1343=CARTESIAN_POINT('',(-0.0287977305385304,0.0457989079238904,-0.0636));
#1344=CARTESIAN_POINT('',(-0.0287977305385304,0.0457989079238904,-0.067));
#1345=CARTESIAN_POINT('',(-0.0295000000232353,0.0458000000000362,-0.0636));
#1346=CARTESIAN_POINT('',(-0.0295000000232353,0.0458000000000362,-0.067));
#1347=CARTESIAN_POINT('',(-0.0295,0.0458,-0.0653));
#1348=CARTESIAN_POINT('',(-0.0295,0.0458,-0.0636));
#1349=CARTESIAN_POINT('',(-0.0295000000116177,0.0458000000000181,-0.0636));
#1350=CARTESIAN_POINT('',(-0.0290317777429428,0.0457992718829894,-0.0636));
#1351=CARTESIAN_POINT('',(-0.0281089557856336,0.0458660344402182,-0.0636));
#1352=CARTESIAN_POINT('',(-0.0267548715361643,0.0464523778810549,-0.0636));
#1353=CARTESIAN_POINT('',(-0.0261661725403762,0.0478062940729894,-0.0636));
#1354=CARTESIAN_POINT('',(-0.026099271344004,0.0487314306947694,-0.0636));
#1355=CARTESIAN_POINT('',(-0.026100000000018,0.0492000000116177,-0.0636));
#1356=CARTESIAN_POINT('',(-0.0261,0.0492,-0.0636));
#1357=CARTESIAN_POINT('',(-0.0261,0.0492,-0.0653));
#1358=CARTESIAN_POINT('',(-0.0261000000000361,0.0491999999767646,-0.067));
#1359=CARTESIAN_POINT('',(-0.0261000000000361,0.0491999999767646,-0.0636));
#1360=CARTESIAN_POINT('',(-0.0260989079238904,0.0499022694614697,-0.067));
#1361=CARTESIAN_POINT('',(-0.0260989079238904,0.0499022694614697,-0.0636));
#1362=CARTESIAN_POINT('',(-0.0262868422342523,0.0510188169010229,-0.067));
#1363=CARTESIAN_POINT('',(-0.0262868422342523,0.0510188169010229,-0.0636));
#1364=CARTESIAN_POINT('',(-0.0268300499415405,0.0518699500584596,-0.067));
#1365=CARTESIAN_POINT('',(-0.0268300499415405,0.0518699500584596,-0.0636));
#1366=CARTESIAN_POINT('',(-0.0276811830989769,0.0524131577657477,-0.0669999999999999));
#1367=CARTESIAN_POINT('',(-0.0276811830989769,0.0524131577657477,-0.0635999999999999));
#1368=CARTESIAN_POINT('',(-0.0287977305385304,0.0526010920761096,-0.067));
#1369=CARTESIAN_POINT('',(-0.0287977305385304,0.0526010920761096,-0.0636));
#1370=CARTESIAN_POINT('',(-0.0295000000232353,0.0525999999999638,-0.067));
#1371=CARTESIAN_POINT('',(-0.0295000000232353,0.0525999999999638,-0.0636));
#1372=CARTESIAN_POINT('',(-0.0261000000000181,0.0491999999883823,-0.0636));
#1373=CARTESIAN_POINT('',(-0.0260992718829894,0.0496682222570572,-0.0636));
#1374=CARTESIAN_POINT('',(-0.0261660344402182,0.0505910442143664,-0.0636));
#1375=CARTESIAN_POINT('',(-0.0267523778810548,0.0519451284638357,-0.0636));
#1376=CARTESIAN_POINT('',(-0.0281062940729894,0.0525338274596238,-0.0636));
#1377=CARTESIAN_POINT('',(-0.0290314306947694,0.0526007286559959,-0.0636));
#1378=CARTESIAN_POINT('',(-0.0295000000116177,0.0525999999999819,-0.0636));
#1379=CARTESIAN_POINT('',(-0.0295,0.0526,-0.0636));
#1380=CARTESIAN_POINT('',(-0.0295,0.0526,-0.0653));
#1381=CARTESIAN_POINT('',(-0.047,0.0458,-0.067));
#1382=CARTESIAN_POINT('',(-0.047,0.0458,-0.0636));
#1383=CARTESIAN_POINT('',(-0.043901613323034,0.0458,-0.0636));
#1384=CARTESIAN_POINT('',(-0.047,0.0458,-0.0654));
#1385=CARTESIAN_POINT('',(-0.043901613323034,0.0458,-0.0654));
#1386=CARTESIAN_POINT('',(-0.043901613323034,0.0458,-0.065));
#1387=CARTESIAN_POINT('',(-0.05825,0.0526,-0.067));
#1388=CARTESIAN_POINT('',(-0.05825,0.0526,-0.0654));
#1389=CARTESIAN_POINT('',(-0.0439016133230341,0.0526,-0.0654));
#1390=CARTESIAN_POINT('',(-0.05825,0.0526,-0.0636));
#1391=CARTESIAN_POINT('',(-0.0439016133230341,0.0526,-0.0636));
#1392=CARTESIAN_POINT('',(-0.0439016133230341,0.0526,-0.065));
#1393=CARTESIAN_POINT('',(-0.047,0.0105,-0.0654));
#1394=CARTESIAN_POINT('',(-0.047,0.0492,-0.0654));
#1395=CARTESIAN_POINT('',(-0.047,0.0492,-0.065));
#1396=CARTESIAN_POINT('',(-0.047,0.0492,-0.0636));
#1397=CARTESIAN_POINT('',(-0.047,0.0105,-0.0636));
#1398=CARTESIAN_POINT('',(-0.0342928932188135,0.0159897045612905,-0.0682928932188134));
#1399=CARTESIAN_POINT('',(-0.0577071067811866,0.0105,-0.0662928932188134));
#1400=MECHANICAL_DESIGN_GEOMETRIC_PRESENTATION_REPRESENTATION('',(#737),
#1401);
#1401=(
GEOMETRIC_REPRESENTATION_CONTEXT(3)
GLOBAL_UNCERTAINTY_ASSIGNED_CONTEXT((#1402))
GLOBAL_UNIT_ASSIGNED_CONTEXT((#1405,#1404,#1403))
REPRESENTATION_CONTEXT('Table_Mount_TPU','TOP_LEVEL_ASSEMBLY_PART')
);
#1402=UNCERTAINTY_MEASURE_WITH_UNIT(LENGTH_MEASURE(2.E-5),#1405,
'DISTANCE_ACCURACY_VALUE','Maximum Tolerance applied to model');
#1403=(
NAMED_UNIT(*)
SI_UNIT($,.STERADIAN.)
SOLID_ANGLE_UNIT()
);
#1404=(
NAMED_UNIT(*)
PLANE_ANGLE_UNIT()
SI_UNIT($,.RADIAN.)
);
#1405=(
LENGTH_UNIT()
NAMED_UNIT(*)
SI_UNIT($,.METRE.)
);
#1406=PRODUCT_DEFINITION_SHAPE('','',#1407);
#1407=PRODUCT_DEFINITION('','',#1409,#1408);
#1408=PRODUCT_DEFINITION_CONTEXT('',#1415,'design');
#1409=PRODUCT_DEFINITION_FORMATION_WITH_SPECIFIED_SOURCE('','',#1411,
 .NOT_KNOWN.);
#1410=PRODUCT_RELATED_PRODUCT_CATEGORY('','',(#1411));
#1411=PRODUCT('Table_Mount_TPU','Table_Mount_TPU','Table_Mount_TPU',(#1413));
#1412=PRODUCT_CATEGORY('','');
#1413=PRODUCT_CONTEXT('',#1415,'mechanical');
#1414=APPLICATION_PROTOCOL_DEFINITION('international standard',
'ap242_managed_model_based_3d_engineering',2020,#1415);
#1415=APPLICATION_CONTEXT('managed model based 3d engineering');
ENDSEC;
END-ISO-10303-21;
