ISO-10303-21;
HEADER;
/* Generated by software containing ST-Developer
 * from STEP Tools, Inc. (www.steptools.com) 
 */
/* OPTION: using custom renumber hook */

FILE_DESCRIPTION(
/* description */ ('STEP AP242 Edition 2',
'CAx-IF Rec.Pracs.---Representation and Presentation of Product Manufa
cturing Information (PMI)---4.0---2014-10-13',
'CAx-IF Rec.Pracs.---3D Tessellated Geometry---0.4---2014-09-14','2;1',
'CAx-IF Rec.Pracs.---User Defined Attributes---1.5---2016-08-15'),
/* implementation_level */ '2;1');

FILE_NAME(
/* name */ 'Pneuma_101 - Plug_Grommet_TPU',
/* time_stamp */ '2026-04-29T18:05:57Z',
/* author */ (''),
/* organization */ (''),
/* preprocessor_version */ 'ST-DEVELOPER v20',
/* originating_system */ 'ONSHAPE BY PTC INC, 1.214',
/* authorisation */ '  ');

FILE_SCHEMA (('AP242_MANAGED_MODEL_BASED_3D_ENGINEERING_MIM_LF { 1 0 10303 442 3 1 4 }'));
ENDSEC;

DATA;
#10=SHAPE_REPRESENTATION_RELATIONSHIP('','',#545,#11);
#11=ADVANCED_BREP_SHAPE_REPRESENTATION('',(#543),#991);
#12=B_SPLINE_SURFACE_WITH_KNOTS('',3,1,((#958,#959),(#960,#961),(#962,#963),
(#964,#965)),.SURF_OF_LINEAR_EXTRUSION.,.F.,.F.,.F.,(4,4),(2,2),(-1.71446996988778E-13,
0.99999999999989),(0.,1.),.PIECEWISE_BEZIER_KNOTS.);
#13=B_SPLINE_SURFACE_WITH_KNOTS('',3,1,((#966,#967),(#968,#969),(#970,#971),
(#972,#973)),.SURF_OF_LINEAR_EXTRUSION.,.F.,.F.,.F.,(4,4),(2,2),(1.85272086951558E-13,
0.999999999999902),(0.,1.),.PIECEWISE_BEZIER_KNOTS.);
#14=B_SPLINE_SURFACE_WITH_KNOTS('',3,1,((#974,#975),(#976,#977),(#978,#979),
(#980,#981)),.SURF_OF_LINEAR_EXTRUSION.,.F.,.F.,.F.,(4,4),(2,2),(-1.71062111993059E-13,
1.00000000000016),(0.,1.),.PIECEWISE_BEZIER_KNOTS.);
#15=B_SPLINE_SURFACE_WITH_KNOTS('',3,1,((#982,#983),(#984,#985),(#986,#987),
(#988,#989)),.SURF_OF_LINEAR_EXTRUSION.,.F.,.F.,.F.,(4,4),(2,2),(1.78058607525693E-13,
1.00000000000016),(0.,1.),.PIECEWISE_BEZIER_KNOTS.);
#16=CYLINDRICAL_SURFACE('',#559,0.0048);
#17=CYLINDRICAL_SURFACE('',#566,0.0058);
#18=CYLINDRICAL_SURFACE('',#569,0.0062);
#19=CYLINDRICAL_SURFACE('',#576,0.0075);
#20=CYLINDRICAL_SURFACE('',#584,0.004);
#21=LINE('',#779,#45);
#22=LINE('',#786,#46);
#23=LINE('',#788,#47);
#24=LINE('',#795,#48);
#25=LINE('',#797,#49);
#26=LINE('',#804,#50);
#27=LINE('',#809,#51);
#28=LINE('',#813,#52);
#29=LINE('',#814,#53);
#30=LINE('',#818,#54);
#31=LINE('',#819,#55);
#32=LINE('',#823,#56);
#33=LINE('',#824,#57);
#34=LINE('',#828,#58);
#35=LINE('',#853,#59);
#36=LINE('',#860,#60);
#37=LINE('',#861,#61);
#38=LINE('',#868,#62);
#39=LINE('',#869,#63);
#40=LINE('',#876,#64);
#41=LINE('',#877,#65);
#42=LINE('',#884,#66);
#43=LINE('',#896,#67);
#44=LINE('',#904,#68);
#45=VECTOR('',#622,1.);
#46=VECTOR('',#623,1.);
#47=VECTOR('',#626,1.);
#48=VECTOR('',#627,1.);
#49=VECTOR('',#630,1.);
#50=VECTOR('',#631,1.);
#51=VECTOR('',#636,1.);
#52=VECTOR('',#639,1.);
#53=VECTOR('',#640,1.);
#54=VECTOR('',#643,1.);
#55=VECTOR('',#644,1.);
#56=VECTOR('',#647,1.);
#57=VECTOR('',#648,1.);
#58=VECTOR('',#651,1.);
#59=VECTOR('',#682,1.);
#60=VECTOR('',#683,1.);
#61=VECTOR('',#684,1.);
#62=VECTOR('',#685,1.);
#63=VECTOR('',#686,1.);
#64=VECTOR('',#687,1.);
#65=VECTOR('',#688,1.);
#66=VECTOR('',#689,1.);
#67=VECTOR('',#706,1.);
#68=VECTOR('',#707,1.);
#69=PLANE('',#556);
#70=PLANE('',#557);
#71=PLANE('',#558);
#72=PLANE('',#572);
#73=PLANE('',#579);
#74=PLANE('',#581);
#75=PLANE('',#587);
#76=PLANE('',#592);
#77=PLANE('',#593);
#78=PLANE('',#594);
#79=PLANE('',#595);
#80=PLANE('',#596);
#81=PLANE('',#597);
#82=PLANE('',#598);
#83=PLANE('',#599);
#84=CIRCLE('',#548,0.0048);
#85=CIRCLE('',#549,0.004);
#86=CIRCLE('',#551,0.0048);
#87=CIRCLE('',#552,0.004);
#88=CIRCLE('',#554,0.0048);
#89=CIRCLE('',#555,0.004);
#90=CIRCLE('',#560,0.0048);
#91=CIRCLE('',#561,0.0048);
#92=CIRCLE('',#562,0.0048);
#93=CIRCLE('',#563,0.0048);
#94=CIRCLE('',#564,0.0048);
#95=CIRCLE('',#565,0.0048);
#96=CIRCLE('',#567,0.0058);
#97=CIRCLE('',#568,0.0058);
#98=CIRCLE('',#570,0.0062);
#99=CIRCLE('',#571,0.0062);
#100=CIRCLE('',#573,0.006);
#101=CIRCLE('',#574,0.004);
#102=CIRCLE('',#577,0.0075);
#103=CIRCLE('',#578,0.0075);
#104=CIRCLE('',#580,0.0065);
#105=CIRCLE('',#582,0.006);
#106=CIRCLE('',#585,0.004);
#107=CIRCLE('',#588,0.004);
#108=ORIENTED_EDGE('',*,*,#252,.T.);
#109=ORIENTED_EDGE('',*,*,#253,.F.);
#110=ORIENTED_EDGE('',*,*,#254,.F.);
#111=ORIENTED_EDGE('',*,*,#255,.F.);
#112=ORIENTED_EDGE('',*,*,#256,.T.);
#113=ORIENTED_EDGE('',*,*,#257,.F.);
#114=ORIENTED_EDGE('',*,*,#258,.F.);
#115=ORIENTED_EDGE('',*,*,#259,.F.);
#116=ORIENTED_EDGE('',*,*,#260,.T.);
#117=ORIENTED_EDGE('',*,*,#261,.F.);
#118=ORIENTED_EDGE('',*,*,#262,.F.);
#119=ORIENTED_EDGE('',*,*,#263,.F.);
#120=ORIENTED_EDGE('',*,*,#264,.F.);
#121=ORIENTED_EDGE('',*,*,#265,.T.);
#122=ORIENTED_EDGE('',*,*,#266,.F.);
#123=ORIENTED_EDGE('',*,*,#259,.T.);
#124=ORIENTED_EDGE('',*,*,#267,.F.);
#125=ORIENTED_EDGE('',*,*,#268,.T.);
#126=ORIENTED_EDGE('',*,*,#269,.T.);
#127=ORIENTED_EDGE('',*,*,#263,.T.);
#128=ORIENTED_EDGE('',*,*,#270,.T.);
#129=ORIENTED_EDGE('',*,*,#271,.T.);
#130=ORIENTED_EDGE('',*,*,#272,.F.);
#131=ORIENTED_EDGE('',*,*,#255,.T.);
#132=ORIENTED_EDGE('',*,*,#273,.T.);
#133=ORIENTED_EDGE('',*,*,#274,.F.);
#134=ORIENTED_EDGE('',*,*,#275,.T.);
#135=ORIENTED_EDGE('',*,*,#276,.T.);
#136=ORIENTED_EDGE('',*,*,#261,.T.);
#137=ORIENTED_EDGE('',*,*,#277,.F.);
#138=ORIENTED_EDGE('',*,*,#278,.T.);
#139=ORIENTED_EDGE('',*,*,#279,.T.);
#140=ORIENTED_EDGE('',*,*,#257,.T.);
#141=ORIENTED_EDGE('',*,*,#280,.F.);
#142=ORIENTED_EDGE('',*,*,#281,.T.);
#143=ORIENTED_EDGE('',*,*,#282,.T.);
#144=ORIENTED_EDGE('',*,*,#253,.T.);
#145=ORIENTED_EDGE('',*,*,#283,.F.);
#146=ORIENTED_EDGE('',*,*,#284,.T.);
#147=ORIENTED_EDGE('',*,*,#285,.T.);
#148=ORIENTED_EDGE('',*,*,#286,.T.);
#149=ORIENTED_EDGE('',*,*,#287,.T.);
#150=ORIENTED_EDGE('',*,*,#288,.T.);
#151=ORIENTED_EDGE('',*,*,#289,.T.);
#152=ORIENTED_EDGE('',*,*,#290,.T.);
#153=ORIENTED_EDGE('',*,*,#291,.T.);
#154=ORIENTED_EDGE('',*,*,#292,.F.);
#155=ORIENTED_EDGE('',*,*,#288,.F.);
#156=ORIENTED_EDGE('',*,*,#290,.F.);
#157=ORIENTED_EDGE('',*,*,#293,.T.);
#158=ORIENTED_EDGE('',*,*,#294,.T.);
#159=ORIENTED_EDGE('',*,*,#295,.T.);
#160=ORIENTED_EDGE('',*,*,#296,.T.);
#161=ORIENTED_EDGE('',*,*,#297,.F.);
#162=ORIENTED_EDGE('',*,*,#275,.F.);
#163=ORIENTED_EDGE('',*,*,#298,.T.);
#164=ORIENTED_EDGE('',*,*,#299,.T.);
#165=ORIENTED_EDGE('',*,*,#300,.T.);
#166=ORIENTED_EDGE('',*,*,#284,.F.);
#167=ORIENTED_EDGE('',*,*,#301,.F.);
#168=ORIENTED_EDGE('',*,*,#302,.T.);
#169=ORIENTED_EDGE('',*,*,#303,.T.);
#170=ORIENTED_EDGE('',*,*,#281,.F.);
#171=ORIENTED_EDGE('',*,*,#304,.F.);
#172=ORIENTED_EDGE('',*,*,#305,.T.);
#173=ORIENTED_EDGE('',*,*,#306,.F.);
#174=ORIENTED_EDGE('',*,*,#278,.F.);
#175=ORIENTED_EDGE('',*,*,#307,.T.);
#176=ORIENTED_EDGE('',*,*,#308,.T.);
#177=ORIENTED_EDGE('',*,*,#294,.F.);
#178=ORIENTED_EDGE('',*,*,#293,.F.);
#179=ORIENTED_EDGE('',*,*,#307,.F.);
#180=ORIENTED_EDGE('',*,*,#309,.F.);
#181=ORIENTED_EDGE('',*,*,#292,.T.);
#182=ORIENTED_EDGE('',*,*,#286,.F.);
#183=ORIENTED_EDGE('',*,*,#309,.T.);
#184=ORIENTED_EDGE('',*,*,#310,.T.);
#185=ORIENTED_EDGE('',*,*,#311,.T.);
#186=ORIENTED_EDGE('',*,*,#312,.T.);
#187=ORIENTED_EDGE('',*,*,#313,.T.);
#188=ORIENTED_EDGE('',*,*,#273,.F.);
#189=ORIENTED_EDGE('',*,*,#314,.F.);
#190=ORIENTED_EDGE('',*,*,#313,.F.);
#191=ORIENTED_EDGE('',*,*,#315,.T.);
#192=ORIENTED_EDGE('',*,*,#287,.F.);
#193=ORIENTED_EDGE('',*,*,#308,.F.);
#194=ORIENTED_EDGE('',*,*,#289,.F.);
#195=ORIENTED_EDGE('',*,*,#291,.F.);
#196=ORIENTED_EDGE('',*,*,#266,.T.);
#197=ORIENTED_EDGE('',*,*,#316,.T.);
#198=ORIENTED_EDGE('',*,*,#304,.T.);
#199=ORIENTED_EDGE('',*,*,#280,.T.);
#200=ORIENTED_EDGE('',*,*,#256,.F.);
#201=ORIENTED_EDGE('',*,*,#306,.T.);
#202=ORIENTED_EDGE('',*,*,#317,.T.);
#203=ORIENTED_EDGE('',*,*,#264,.T.);
#204=ORIENTED_EDGE('',*,*,#258,.T.);
#205=ORIENTED_EDGE('',*,*,#279,.F.);
#206=ORIENTED_EDGE('',*,*,#269,.F.);
#207=ORIENTED_EDGE('',*,*,#318,.T.);
#208=ORIENTED_EDGE('',*,*,#295,.F.);
#209=ORIENTED_EDGE('',*,*,#277,.T.);
#210=ORIENTED_EDGE('',*,*,#260,.F.);
#211=ORIENTED_EDGE('',*,*,#297,.T.);
#212=ORIENTED_EDGE('',*,*,#319,.T.);
#213=ORIENTED_EDGE('',*,*,#267,.T.);
#214=ORIENTED_EDGE('',*,*,#262,.T.);
#215=ORIENTED_EDGE('',*,*,#276,.F.);
#216=ORIENTED_EDGE('',*,*,#312,.F.);
#217=ORIENTED_EDGE('',*,*,#320,.T.);
#218=ORIENTED_EDGE('',*,*,#298,.F.);
#219=ORIENTED_EDGE('',*,*,#274,.T.);
#220=ORIENTED_EDGE('',*,*,#315,.F.);
#221=ORIENTED_EDGE('',*,*,#300,.F.);
#222=ORIENTED_EDGE('',*,*,#321,.T.);
#223=ORIENTED_EDGE('',*,*,#310,.F.);
#224=ORIENTED_EDGE('',*,*,#314,.T.);
#225=ORIENTED_EDGE('',*,*,#285,.F.);
#226=ORIENTED_EDGE('',*,*,#272,.T.);
#227=ORIENTED_EDGE('',*,*,#322,.T.);
#228=ORIENTED_EDGE('',*,*,#301,.T.);
#229=ORIENTED_EDGE('',*,*,#283,.T.);
#230=ORIENTED_EDGE('',*,*,#252,.F.);
#231=ORIENTED_EDGE('',*,*,#303,.F.);
#232=ORIENTED_EDGE('',*,*,#323,.T.);
#233=ORIENTED_EDGE('',*,*,#270,.F.);
#234=ORIENTED_EDGE('',*,*,#254,.T.);
#235=ORIENTED_EDGE('',*,*,#282,.F.);
#236=ORIENTED_EDGE('',*,*,#296,.F.);
#237=ORIENTED_EDGE('',*,*,#318,.F.);
#238=ORIENTED_EDGE('',*,*,#268,.F.);
#239=ORIENTED_EDGE('',*,*,#319,.F.);
#240=ORIENTED_EDGE('',*,*,#299,.F.);
#241=ORIENTED_EDGE('',*,*,#320,.F.);
#242=ORIENTED_EDGE('',*,*,#311,.F.);
#243=ORIENTED_EDGE('',*,*,#321,.F.);
#244=ORIENTED_EDGE('',*,*,#305,.F.);
#245=ORIENTED_EDGE('',*,*,#316,.F.);
#246=ORIENTED_EDGE('',*,*,#265,.F.);
#247=ORIENTED_EDGE('',*,*,#317,.F.);
#248=ORIENTED_EDGE('',*,*,#302,.F.);
#249=ORIENTED_EDGE('',*,*,#322,.F.);
#250=ORIENTED_EDGE('',*,*,#271,.F.);
#251=ORIENTED_EDGE('',*,*,#323,.F.);
#252=EDGE_CURVE('',#324,#325,#376,.T.);
#253=EDGE_CURVE('',#326,#325,#84,.T.);
#254=EDGE_CURVE('',#327,#326,#377,.T.);
#255=EDGE_CURVE('',#324,#327,#85,.F.);
#256=EDGE_CURVE('',#328,#329,#378,.T.);
#257=EDGE_CURVE('',#330,#329,#86,.T.);
#258=EDGE_CURVE('',#331,#330,#379,.T.);
#259=EDGE_CURVE('',#328,#331,#87,.F.);
#260=EDGE_CURVE('',#332,#333,#380,.T.);
#261=EDGE_CURVE('',#334,#333,#88,.T.);
#262=EDGE_CURVE('',#335,#334,#381,.T.);
#263=EDGE_CURVE('',#332,#335,#89,.F.);
#264=EDGE_CURVE('',#336,#331,#21,.T.);
#265=EDGE_CURVE('',#336,#337,#382,.T.);
#266=EDGE_CURVE('',#328,#337,#22,.T.);
#267=EDGE_CURVE('',#338,#335,#23,.T.);
#268=EDGE_CURVE('',#338,#339,#383,.T.);
#269=EDGE_CURVE('',#339,#332,#24,.T.);
#270=EDGE_CURVE('',#327,#340,#25,.T.);
#271=EDGE_CURVE('',#340,#341,#384,.T.);
#272=EDGE_CURVE('',#324,#341,#26,.T.);
#273=EDGE_CURVE('',#342,#343,#90,.T.);
#274=EDGE_CURVE('',#344,#343,#27,.T.);
#275=EDGE_CURVE('',#344,#345,#91,.T.);
#276=EDGE_CURVE('',#345,#334,#28,.T.);
#277=EDGE_CURVE('',#346,#333,#29,.T.);
#278=EDGE_CURVE('',#346,#347,#92,.T.);
#279=EDGE_CURVE('',#347,#330,#30,.T.);
#280=EDGE_CURVE('',#348,#329,#31,.T.);
#281=EDGE_CURVE('',#348,#349,#93,.T.);
#282=EDGE_CURVE('',#349,#326,#32,.T.);
#283=EDGE_CURVE('',#350,#325,#33,.T.);
#284=EDGE_CURVE('',#350,#351,#94,.T.);
#285=EDGE_CURVE('',#351,#342,#34,.T.);
#286=EDGE_CURVE('',#352,#352,#95,.T.);
#287=EDGE_CURVE('',#353,#353,#96,.F.);
#288=EDGE_CURVE('',#354,#354,#97,.F.);
#289=EDGE_CURVE('',#355,#355,#98,.F.);
#290=EDGE_CURVE('',#356,#356,#99,.T.);
#291=EDGE_CURVE('',#357,#357,#100,.T.);
#292=EDGE_CURVE('',#358,#358,#101,.T.);
#293=EDGE_CURVE('',#359,#359,#102,.F.);
#294=EDGE_CURVE('',#360,#360,#103,.T.);
#295=EDGE_CURVE('',#346,#361,#35,.T.);
#296=EDGE_CURVE('',#361,#362,#385,.T.);
#297=EDGE_CURVE('',#345,#362,#36,.T.);
#298=EDGE_CURVE('',#344,#363,#37,.T.);
#299=EDGE_CURVE('',#363,#364,#386,.T.);
#300=EDGE_CURVE('',#364,#351,#38,.T.);
#301=EDGE_CURVE('',#365,#350,#39,.T.);
#302=EDGE_CURVE('',#365,#366,#387,.T.);
#303=EDGE_CURVE('',#366,#349,#40,.T.);
#304=EDGE_CURVE('',#367,#348,#41,.T.);
#305=EDGE_CURVE('',#367,#368,#388,.T.);
#306=EDGE_CURVE('',#347,#368,#42,.T.);
#307=EDGE_CURVE('',#369,#369,#104,.T.);
#308=EDGE_CURVE('',#370,#370,#105,.T.);
#309=EDGE_CURVE('',#371,#371,#106,.T.);
#310=EDGE_CURVE('',#372,#373,#43,.T.);
#311=EDGE_CURVE('',#373,#374,#389,.T.);
#312=EDGE_CURVE('',#374,#375,#44,.T.);
#313=EDGE_CURVE('',#375,#372,#107,.F.);
#314=EDGE_CURVE('',#372,#342,#390,.T.);
#315=EDGE_CURVE('',#375,#343,#391,.T.);
#316=EDGE_CURVE('',#337,#367,#392,.T.);
#317=EDGE_CURVE('',#368,#336,#393,.T.);
#318=EDGE_CURVE('',#339,#361,#394,.T.);
#319=EDGE_CURVE('',#362,#338,#395,.T.);
#320=EDGE_CURVE('',#374,#363,#396,.T.);
#321=EDGE_CURVE('',#364,#373,#397,.T.);
#322=EDGE_CURVE('',#341,#365,#398,.T.);
#323=EDGE_CURVE('',#366,#340,#399,.T.);
#324=VERTEX_POINT('',#738);
#325=VERTEX_POINT('',#739);
#326=VERTEX_POINT('',#741);
#327=VERTEX_POINT('',#746);
#328=VERTEX_POINT('',#753);
#329=VERTEX_POINT('',#754);
#330=VERTEX_POINT('',#756);
#331=VERTEX_POINT('',#761);
#332=VERTEX_POINT('',#768);
#333=VERTEX_POINT('',#769);
#334=VERTEX_POINT('',#771);
#335=VERTEX_POINT('',#776);
#336=VERTEX_POINT('',#780);
#337=VERTEX_POINT('',#785);
#338=VERTEX_POINT('',#789);
#339=VERTEX_POINT('',#794);
#340=VERTEX_POINT('',#798);
#341=VERTEX_POINT('',#803);
#342=VERTEX_POINT('',#807);
#343=VERTEX_POINT('',#808);
#344=VERTEX_POINT('',#810);
#345=VERTEX_POINT('',#812);
#346=VERTEX_POINT('',#815);
#347=VERTEX_POINT('',#817);
#348=VERTEX_POINT('',#820);
#349=VERTEX_POINT('',#822);
#350=VERTEX_POINT('',#825);
#351=VERTEX_POINT('',#827);
#352=VERTEX_POINT('',#830);
#353=VERTEX_POINT('',#833);
#354=VERTEX_POINT('',#835);
#355=VERTEX_POINT('',#838);
#356=VERTEX_POINT('',#840);
#357=VERTEX_POINT('',#843);
#358=VERTEX_POINT('',#845);
#359=VERTEX_POINT('',#849);
#360=VERTEX_POINT('',#851);
#361=VERTEX_POINT('',#854);
#362=VERTEX_POINT('',#859);
#363=VERTEX_POINT('',#862);
#364=VERTEX_POINT('',#867);
#365=VERTEX_POINT('',#870);
#366=VERTEX_POINT('',#875);
#367=VERTEX_POINT('',#878);
#368=VERTEX_POINT('',#883);
#369=VERTEX_POINT('',#886);
#370=VERTEX_POINT('',#889);
#371=VERTEX_POINT('',#893);
#372=VERTEX_POINT('',#897);
#373=VERTEX_POINT('',#898);
#374=VERTEX_POINT('',#903);
#375=VERTEX_POINT('',#905);
#376=B_SPLINE_CURVE_WITH_KNOTS('',3,(#734,#735,#736,#737),.UNSPECIFIED.,
 .F.,.F.,(4,4),(0.,0.00113196119200461),.UNSPECIFIED.);
#377=B_SPLINE_CURVE_WITH_KNOTS('',3,(#742,#743,#744,#745),.UNSPECIFIED.,
 .F.,.F.,(4,4),(0.,0.0011319611920046),.UNSPECIFIED.);
#378=B_SPLINE_CURVE_WITH_KNOTS('',3,(#749,#750,#751,#752),.UNSPECIFIED.,
 .F.,.F.,(4,4),(0.,0.0011319611920046),.UNSPECIFIED.);
#379=B_SPLINE_CURVE_WITH_KNOTS('',3,(#757,#758,#759,#760),.UNSPECIFIED.,
 .F.,.F.,(4,4),(0.,0.00113196119200457),.UNSPECIFIED.);
#380=B_SPLINE_CURVE_WITH_KNOTS('',3,(#764,#765,#766,#767),.UNSPECIFIED.,
 .F.,.F.,(4,4),(0.,0.00113196119200457),.UNSPECIFIED.);
#381=B_SPLINE_CURVE_WITH_KNOTS('',3,(#772,#773,#774,#775),.UNSPECIFIED.,
 .F.,.F.,(4,4),(0.,0.0011319611920046),.UNSPECIFIED.);
#382=B_SPLINE_CURVE_WITH_KNOTS('',3,(#781,#782,#783,#784),.UNSPECIFIED.,
 .F.,.F.,(4,4),(0.,1.),.UNSPECIFIED.);
#383=B_SPLINE_CURVE_WITH_KNOTS('',3,(#790,#791,#792,#793),.UNSPECIFIED.,
 .F.,.F.,(4,4),(0.,1.),.UNSPECIFIED.);
#384=B_SPLINE_CURVE_WITH_KNOTS('',3,(#799,#800,#801,#802),.UNSPECIFIED.,
 .F.,.F.,(4,4),(0.,1.),.UNSPECIFIED.);
#385=B_SPLINE_CURVE_WITH_KNOTS('',3,(#855,#856,#857,#858),.UNSPECIFIED.,
 .F.,.F.,(4,4),(0.,1.),.UNSPECIFIED.);
#386=B_SPLINE_CURVE_WITH_KNOTS('',3,(#863,#864,#865,#866),.UNSPECIFIED.,
 .F.,.F.,(4,4),(0.,1.),.UNSPECIFIED.);
#387=B_SPLINE_CURVE_WITH_KNOTS('',3,(#871,#872,#873,#874),.UNSPECIFIED.,
 .F.,.F.,(4,4),(0.,1.),.UNSPECIFIED.);
#388=B_SPLINE_CURVE_WITH_KNOTS('',3,(#879,#880,#881,#882),.UNSPECIFIED.,
 .F.,.F.,(4,4),(0.,1.),.UNSPECIFIED.);
#389=B_SPLINE_CURVE_WITH_KNOTS('',3,(#899,#900,#901,#902),.UNSPECIFIED.,
 .F.,.F.,(4,4),(0.,1.),.UNSPECIFIED.);
#390=B_SPLINE_CURVE_WITH_KNOTS('',3,(#908,#909,#910,#911),.UNSPECIFIED.,
 .F.,.F.,(4,4),(0.,0.00113196119200454),.UNSPECIFIED.);
#391=B_SPLINE_CURVE_WITH_KNOTS('',3,(#912,#913,#914,#915),.UNSPECIFIED.,
 .F.,.F.,(4,4),(0.,0.0011319611920046),.UNSPECIFIED.);
#392=B_SPLINE_CURVE_WITH_KNOTS('',3,(#919,#920,#921,#922),.UNSPECIFIED.,
 .F.,.F.,(4,4),(0.,1.),.UNSPECIFIED.);
#393=B_SPLINE_CURVE_WITH_KNOTS('',3,(#924,#925,#926,#927),.UNSPECIFIED.,
 .F.,.F.,(4,4),(0.,1.),.UNSPECIFIED.);
#394=B_SPLINE_CURVE_WITH_KNOTS('',3,(#929,#930,#931,#932),.UNSPECIFIED.,
 .F.,.F.,(4,4),(0.,1.),.UNSPECIFIED.);
#395=B_SPLINE_CURVE_WITH_KNOTS('',3,(#934,#935,#936,#937),.UNSPECIFIED.,
 .F.,.F.,(4,4),(0.,1.),.UNSPECIFIED.);
#396=B_SPLINE_CURVE_WITH_KNOTS('',3,(#939,#940,#941,#942),.UNSPECIFIED.,
 .F.,.F.,(4,4),(0.,1.),.UNSPECIFIED.);
#397=B_SPLINE_CURVE_WITH_KNOTS('',3,(#944,#945,#946,#947),.UNSPECIFIED.,
 .F.,.F.,(4,4),(0.,1.),.UNSPECIFIED.);
#398=B_SPLINE_CURVE_WITH_KNOTS('',3,(#949,#950,#951,#952),.UNSPECIFIED.,
 .F.,.F.,(4,4),(0.,1.),.UNSPECIFIED.);
#399=B_SPLINE_CURVE_WITH_KNOTS('',3,(#954,#955,#956,#957),.UNSPECIFIED.,
 .F.,.F.,(4,4),(0.,1.),.UNSPECIFIED.);
#400=EDGE_LOOP('',(#108,#109,#110,#111));
#401=EDGE_LOOP('',(#112,#113,#114,#115));
#402=EDGE_LOOP('',(#116,#117,#118,#119));
#403=EDGE_LOOP('',(#120,#121,#122,#123));
#404=EDGE_LOOP('',(#124,#125,#126,#127));
#405=EDGE_LOOP('',(#128,#129,#130,#131));
#406=EDGE_LOOP('',(#132,#133,#134,#135,#136,#137,#138,#139,#140,#141,#142,
#143,#144,#145,#146,#147));
#407=EDGE_LOOP('',(#148));
#408=EDGE_LOOP('',(#149));
#409=EDGE_LOOP('',(#150));
#410=EDGE_LOOP('',(#151));
#411=EDGE_LOOP('',(#152));
#412=EDGE_LOOP('',(#153));
#413=EDGE_LOOP('',(#154));
#414=EDGE_LOOP('',(#155));
#415=EDGE_LOOP('',(#156));
#416=EDGE_LOOP('',(#157));
#417=EDGE_LOOP('',(#158));
#418=EDGE_LOOP('',(#159,#160,#161,#162,#163,#164,#165,#166,#167,#168,#169,
#170,#171,#172,#173,#174));
#419=EDGE_LOOP('',(#175));
#420=EDGE_LOOP('',(#176));
#421=EDGE_LOOP('',(#177));
#422=EDGE_LOOP('',(#178));
#423=EDGE_LOOP('',(#179));
#424=EDGE_LOOP('',(#180));
#425=EDGE_LOOP('',(#181));
#426=EDGE_LOOP('',(#182));
#427=EDGE_LOOP('',(#183));
#428=EDGE_LOOP('',(#184,#185,#186,#187));
#429=EDGE_LOOP('',(#188,#189,#190,#191));
#430=EDGE_LOOP('',(#192));
#431=EDGE_LOOP('',(#193));
#432=EDGE_LOOP('',(#194));
#433=EDGE_LOOP('',(#195));
#434=EDGE_LOOP('',(#196,#197,#198,#199,#200));
#435=EDGE_LOOP('',(#201,#202,#203,#204,#205));
#436=EDGE_LOOP('',(#206,#207,#208,#209,#210));
#437=EDGE_LOOP('',(#211,#212,#213,#214,#215));
#438=EDGE_LOOP('',(#216,#217,#218,#219,#220));
#439=EDGE_LOOP('',(#221,#222,#223,#224,#225));
#440=EDGE_LOOP('',(#226,#227,#228,#229,#230));
#441=EDGE_LOOP('',(#231,#232,#233,#234,#235));
#442=EDGE_LOOP('',(#236,#237,#238,#239));
#443=EDGE_LOOP('',(#240,#241,#242,#243));
#444=EDGE_LOOP('',(#244,#245,#246,#247));
#445=EDGE_LOOP('',(#248,#249,#250,#251));
#446=FACE_BOUND('',#400,.T.);
#447=FACE_BOUND('',#401,.T.);
#448=FACE_BOUND('',#402,.T.);
#449=FACE_BOUND('',#403,.T.);
#450=FACE_BOUND('',#404,.T.);
#451=FACE_BOUND('',#405,.T.);
#452=FACE_BOUND('',#406,.T.);
#453=FACE_BOUND('',#407,.T.);
#454=FACE_BOUND('',#408,.T.);
#455=FACE_BOUND('',#409,.T.);
#456=FACE_BOUND('',#410,.T.);
#457=FACE_BOUND('',#411,.T.);
#458=FACE_BOUND('',#412,.T.);
#459=FACE_BOUND('',#413,.T.);
#460=FACE_BOUND('',#414,.T.);
#461=FACE_BOUND('',#415,.T.);
#462=FACE_BOUND('',#416,.T.);
#463=FACE_BOUND('',#417,.T.);
#464=FACE_BOUND('',#418,.T.);
#465=FACE_BOUND('',#419,.T.);
#466=FACE_BOUND('',#420,.T.);
#467=FACE_BOUND('',#421,.T.);
#468=FACE_BOUND('',#422,.T.);
#469=FACE_BOUND('',#423,.T.);
#470=FACE_BOUND('',#424,.T.);
#471=FACE_BOUND('',#425,.T.);
#472=FACE_BOUND('',#426,.T.);
#473=FACE_BOUND('',#427,.T.);
#474=FACE_BOUND('',#428,.T.);
#475=FACE_BOUND('',#429,.T.);
#476=FACE_BOUND('',#430,.T.);
#477=FACE_BOUND('',#431,.T.);
#478=FACE_BOUND('',#432,.T.);
#479=FACE_BOUND('',#433,.T.);
#480=FACE_BOUND('',#434,.T.);
#481=FACE_BOUND('',#435,.T.);
#482=FACE_BOUND('',#436,.T.);
#483=FACE_BOUND('',#437,.T.);
#484=FACE_BOUND('',#438,.T.);
#485=FACE_BOUND('',#439,.T.);
#486=FACE_BOUND('',#440,.T.);
#487=FACE_BOUND('',#441,.T.);
#488=FACE_BOUND('',#442,.T.);
#489=FACE_BOUND('',#443,.T.);
#490=FACE_BOUND('',#444,.T.);
#491=FACE_BOUND('',#445,.T.);
#492=CONICAL_SURFACE('',#547,0.004,0.785398163397448);
#493=CONICAL_SURFACE('',#550,0.004,0.785398163397448);
#494=CONICAL_SURFACE('',#553,0.004,0.785398163397448);
#495=CONICAL_SURFACE('',#575,0.0064,0.785398163397448);
#496=CONICAL_SURFACE('',#583,0.0065,0.785398163397448);
#497=CONICAL_SURFACE('',#586,0.004,0.785398163397448);
#498=CONICAL_SURFACE('',#589,0.004,0.785398163397448);
#499=CONICAL_SURFACE('',#590,0.006,0.785398163397434);
#500=CONICAL_SURFACE('',#591,0.006,0.785398163397463);
#501=ADVANCED_FACE('',(#446),#492,.F.);
#502=ADVANCED_FACE('',(#447),#493,.F.);
#503=ADVANCED_FACE('',(#448),#494,.F.);
#504=ADVANCED_FACE('',(#449),#69,.F.);
#505=ADVANCED_FACE('',(#450),#70,.F.);
#506=ADVANCED_FACE('',(#451),#71,.F.);
#507=ADVANCED_FACE('',(#452,#453),#16,.F.);
#508=ADVANCED_FACE('',(#454,#455),#17,.T.);
#509=ADVANCED_FACE('',(#456,#457),#18,.T.);
#510=ADVANCED_FACE('',(#458,#459),#72,.T.);
#511=ADVANCED_FACE('',(#460,#461),#495,.T.);
#512=ADVANCED_FACE('',(#462,#463),#19,.T.);
#513=ADVANCED_FACE('',(#464,#465),#73,.T.);
#514=ADVANCED_FACE('',(#466,#467),#74,.F.);
#515=ADVANCED_FACE('',(#468,#469),#496,.T.);
#516=ADVANCED_FACE('',(#470,#471),#20,.F.);
#517=ADVANCED_FACE('',(#472,#473),#497,.F.);
#518=ADVANCED_FACE('',(#474),#75,.F.);
#519=ADVANCED_FACE('',(#475),#498,.F.);
#520=ADVANCED_FACE('',(#476,#477),#499,.T.);
#521=ADVANCED_FACE('',(#478,#479),#500,.T.);
#522=ADVANCED_FACE('',(#480),#76,.F.);
#523=ADVANCED_FACE('',(#481),#77,.F.);
#524=ADVANCED_FACE('',(#482),#78,.T.);
#525=ADVANCED_FACE('',(#483),#79,.F.);
#526=ADVANCED_FACE('',(#484),#80,.T.);
#527=ADVANCED_FACE('',(#485),#81,.T.);
#528=ADVANCED_FACE('',(#486),#82,.F.);
#529=ADVANCED_FACE('',(#487),#83,.T.);
#530=ADVANCED_FACE('',(#488),#12,.T.);
#531=ADVANCED_FACE('',(#489),#13,.T.);
#532=ADVANCED_FACE('',(#490),#14,.T.);
#533=ADVANCED_FACE('',(#491),#15,.T.);
#534=CLOSED_SHELL('',(#501,#502,#503,#504,#505,#506,#507,#508,#509,#510,
#511,#512,#513,#514,#515,#516,#517,#518,#519,#520,#521,#522,#523,#524,#525,
#526,#527,#528,#529,#530,#531,#532,#533));
#535=STYLED_ITEM('',(#536),#543);
#536=PRESENTATION_STYLE_ASSIGNMENT((#537));
#537=SURFACE_STYLE_USAGE(.BOTH.,#538);
#538=SURFACE_SIDE_STYLE('',(#539));
#539=SURFACE_STYLE_FILL_AREA(#540);
#540=FILL_AREA_STYLE('',(#541));
#541=FILL_AREA_STYLE_COLOUR('',#542);
#542=COLOUR_RGB('',0.262745098039216,0.282352941176471,0.301960784313725);
#543=MANIFOLD_SOLID_BREP('Plug_Grommet_TPU',#534);
#544=SHAPE_DEFINITION_REPRESENTATION(#996,#545);
#545=SHAPE_REPRESENTATION('Plug_Grommet_TPU',(#546),#991);
#546=AXIS2_PLACEMENT_3D('',#732,#600,#601);
#547=AXIS2_PLACEMENT_3D('',#733,#602,#603);
#548=AXIS2_PLACEMENT_3D('',#740,#604,#605);
#549=AXIS2_PLACEMENT_3D('',#747,#606,#607);
#550=AXIS2_PLACEMENT_3D('',#748,#608,#609);
#551=AXIS2_PLACEMENT_3D('',#755,#610,#611);
#552=AXIS2_PLACEMENT_3D('',#762,#612,#613);
#553=AXIS2_PLACEMENT_3D('',#763,#614,#615);
#554=AXIS2_PLACEMENT_3D('',#770,#616,#617);
#555=AXIS2_PLACEMENT_3D('',#777,#618,#619);
#556=AXIS2_PLACEMENT_3D('',#778,#620,#621);
#557=AXIS2_PLACEMENT_3D('',#787,#624,#625);
#558=AXIS2_PLACEMENT_3D('',#796,#628,#629);
#559=AXIS2_PLACEMENT_3D('',#805,#632,#633);
#560=AXIS2_PLACEMENT_3D('',#806,#634,#635);
#561=AXIS2_PLACEMENT_3D('',#811,#637,#638);
#562=AXIS2_PLACEMENT_3D('',#816,#641,#642);
#563=AXIS2_PLACEMENT_3D('',#821,#645,#646);
#564=AXIS2_PLACEMENT_3D('',#826,#649,#650);
#565=AXIS2_PLACEMENT_3D('',#829,#652,#653);
#566=AXIS2_PLACEMENT_3D('',#831,#654,#655);
#567=AXIS2_PLACEMENT_3D('',#832,#656,#657);
#568=AXIS2_PLACEMENT_3D('',#834,#658,#659);
#569=AXIS2_PLACEMENT_3D('',#836,#660,#661);
#570=AXIS2_PLACEMENT_3D('',#837,#662,#663);
#571=AXIS2_PLACEMENT_3D('',#839,#664,#665);
#572=AXIS2_PLACEMENT_3D('',#841,#666,#667);
#573=AXIS2_PLACEMENT_3D('',#842,#668,#669);
#574=AXIS2_PLACEMENT_3D('',#844,#670,#671);
#575=AXIS2_PLACEMENT_3D('',#846,#672,#673);
#576=AXIS2_PLACEMENT_3D('',#847,#674,#675);
#577=AXIS2_PLACEMENT_3D('',#848,#676,#677);
#578=AXIS2_PLACEMENT_3D('',#850,#678,#679);
#579=AXIS2_PLACEMENT_3D('',#852,#680,#681);
#580=AXIS2_PLACEMENT_3D('',#885,#690,#691);
#581=AXIS2_PLACEMENT_3D('',#887,#692,#693);
#582=AXIS2_PLACEMENT_3D('',#888,#694,#695);
#583=AXIS2_PLACEMENT_3D('',#890,#696,#697);
#584=AXIS2_PLACEMENT_3D('',#891,#698,#699);
#585=AXIS2_PLACEMENT_3D('',#892,#700,#701);
#586=AXIS2_PLACEMENT_3D('',#894,#702,#703);
#587=AXIS2_PLACEMENT_3D('',#895,#704,#705);
#588=AXIS2_PLACEMENT_3D('',#906,#708,#709);
#589=AXIS2_PLACEMENT_3D('',#907,#710,#711);
#590=AXIS2_PLACEMENT_3D('',#916,#712,#713);
#591=AXIS2_PLACEMENT_3D('',#917,#714,#715);
#592=AXIS2_PLACEMENT_3D('',#918,#716,#717);
#593=AXIS2_PLACEMENT_3D('',#923,#718,#719);
#594=AXIS2_PLACEMENT_3D('',#928,#720,#721);
#595=AXIS2_PLACEMENT_3D('',#933,#722,#723);
#596=AXIS2_PLACEMENT_3D('',#938,#724,#725);
#597=AXIS2_PLACEMENT_3D('',#943,#726,#727);
#598=AXIS2_PLACEMENT_3D('',#948,#728,#729);
#599=AXIS2_PLACEMENT_3D('',#953,#730,#731);
#600=DIRECTION('',(0.,0.,1.));
#601=DIRECTION('',(1.,0.,0.));
#602=DIRECTION('',(0.,0.,-1.));
#603=DIRECTION('',(-1.,0.,0.));
#604=DIRECTION('',(0.,0.,1.));
#605=DIRECTION('',(1.,0.,0.));
#606=DIRECTION('',(0.,0.,1.));
#607=DIRECTION('',(1.,0.,0.));
#608=DIRECTION('',(0.,0.,-1.));
#609=DIRECTION('',(-1.,0.,0.));
#610=DIRECTION('',(0.,0.,1.));
#611=DIRECTION('',(1.,0.,0.));
#612=DIRECTION('',(0.,0.,1.));
#613=DIRECTION('',(1.,0.,0.));
#614=DIRECTION('',(0.,0.,-1.));
#615=DIRECTION('',(-1.,0.,0.));
#616=DIRECTION('',(0.,0.,1.));
#617=DIRECTION('',(1.,0.,0.));
#618=DIRECTION('',(0.,0.,1.));
#619=DIRECTION('',(1.,0.,0.));
#620=DIRECTION('',(0.,0.,1.));
#621=DIRECTION('',(1.,0.,0.));
#622=DIRECTION('',(1.,0.,0.));
#623=DIRECTION('',(0.,-1.,0.));
#624=DIRECTION('',(0.,0.,1.));
#625=DIRECTION('',(1.,0.,0.));
#626=DIRECTION('',(0.,-1.,0.));
#627=DIRECTION('',(1.,0.,0.));
#628=DIRECTION('',(0.,0.,1.));
#629=DIRECTION('',(1.,0.,0.));
#630=DIRECTION('',(0.,-1.,0.));
#631=DIRECTION('',(1.,0.,0.));
#632=DIRECTION('',(0.,0.,-1.));
#633=DIRECTION('',(-1.,0.,0.));
#634=DIRECTION('',(0.,0.,1.));
#635=DIRECTION('',(1.,0.,0.));
#636=DIRECTION('',(0.,0.,-1.));
#637=DIRECTION('',(0.,0.,1.));
#638=DIRECTION('',(1.,0.,0.));
#639=DIRECTION('',(0.,0.,-1.));
#640=DIRECTION('',(0.,0.,-1.));
#641=DIRECTION('',(0.,0.,1.));
#642=DIRECTION('',(1.,0.,0.));
#643=DIRECTION('',(0.,0.,-1.));
#644=DIRECTION('',(0.,0.,-1.));
#645=DIRECTION('',(0.,0.,1.));
#646=DIRECTION('',(1.,0.,0.));
#647=DIRECTION('',(0.,0.,-1.));
#648=DIRECTION('',(0.,0.,-1.));
#649=DIRECTION('',(0.,0.,1.));
#650=DIRECTION('',(1.,0.,0.));
#651=DIRECTION('',(0.,0.,-1.));
#652=DIRECTION('',(0.,0.,-1.));
#653=DIRECTION('',(-1.,0.,0.));
#654=DIRECTION('',(0.,0.,1.));
#655=DIRECTION('',(1.,0.,0.));
#656=DIRECTION('',(0.,0.,1.));
#657=DIRECTION('',(1.,0.,0.));
#658=DIRECTION('',(0.,0.,-1.));
#659=DIRECTION('',(-1.,0.,0.));
#660=DIRECTION('',(0.,0.,1.));
#661=DIRECTION('',(1.,0.,0.));
#662=DIRECTION('',(0.,0.,-1.));
#663=DIRECTION('',(-1.,0.,0.));
#664=DIRECTION('',(0.,0.,-1.));
#665=DIRECTION('',(-1.,0.,0.));
#666=DIRECTION('',(0.,0.,-1.));
#667=DIRECTION('',(1.,0.,0.));
#668=DIRECTION('',(0.,0.,-1.));
#669=DIRECTION('',(-1.,0.,0.));
#670=DIRECTION('',(0.,0.,-1.));
#671=DIRECTION('',(-1.,0.,0.));
#672=DIRECTION('',(0.,0.,-1.));
#673=DIRECTION('',(-1.,0.,0.));
#674=DIRECTION('',(0.,0.,-1.));
#675=DIRECTION('',(-1.,0.,0.));
#676=DIRECTION('',(0.,0.,1.));
#677=DIRECTION('',(1.,0.,0.));
#678=DIRECTION('',(0.,0.,1.));
#679=DIRECTION('',(1.,0.,0.));
#680=DIRECTION('',(0.,0.,1.));
#681=DIRECTION('',(1.,0.,0.));
#682=DIRECTION('',(-1.,0.,0.));
#683=DIRECTION('',(0.,1.,0.));
#684=DIRECTION('',(0.,1.,0.));
#685=DIRECTION('',(-1.,0.,0.));
#686=DIRECTION('',(-1.,0.,0.));
#687=DIRECTION('',(0.,1.,0.));
#688=DIRECTION('',(0.,1.,0.));
#689=DIRECTION('',(-1.,0.,0.));
#690=DIRECTION('',(0.,0.,1.));
#691=DIRECTION('',(1.,0.,0.));
#692=DIRECTION('',(0.,0.,1.));
#693=DIRECTION('',(1.,0.,0.));
#694=DIRECTION('',(0.,0.,1.));
#695=DIRECTION('',(1.,0.,0.));
#696=DIRECTION('',(0.,0.,-1.));
#697=DIRECTION('',(-1.,0.,0.));
#698=DIRECTION('',(0.,0.,-1.));
#699=DIRECTION('',(-1.,0.,0.));
#700=DIRECTION('',(0.,0.,-1.));
#701=DIRECTION('',(-1.,0.,0.));
#702=DIRECTION('',(0.,0.,1.));
#703=DIRECTION('',(1.,0.,0.));
#704=DIRECTION('',(0.,0.,1.));
#705=DIRECTION('',(1.,0.,0.));
#706=DIRECTION('',(1.,0.,0.));
#707=DIRECTION('',(0.,-1.,0.));
#708=DIRECTION('',(0.,0.,1.));
#709=DIRECTION('',(1.,0.,0.));
#710=DIRECTION('',(0.,0.,-1.));
#711=DIRECTION('',(-1.,0.,0.));
#712=DIRECTION('',(0.,0.,1.));
#713=DIRECTION('',(1.,0.,0.));
#714=DIRECTION('',(0.,0.,1.));
#715=DIRECTION('',(1.,0.,0.));
#716=DIRECTION('',(1.,0.,0.));
#717=DIRECTION('',(0.,0.,-1.));
#718=DIRECTION('',(0.,1.,0.));
#719=DIRECTION('',(0.,0.,1.));
#720=DIRECTION('',(0.,1.,0.));
#721=DIRECTION('',(0.,0.,1.));
#722=DIRECTION('',(1.,0.,0.));
#723=DIRECTION('',(0.,0.,-1.));
#724=DIRECTION('',(1.,0.,0.));
#725=DIRECTION('',(0.,0.,-1.));
#726=DIRECTION('',(0.,1.,0.));
#727=DIRECTION('',(0.,0.,1.));
#728=DIRECTION('',(0.,1.,0.));
#729=DIRECTION('',(0.,0.,1.));
#730=DIRECTION('',(1.,0.,0.));
#731=DIRECTION('',(0.,0.,-1.));
#732=CARTESIAN_POINT('',(0.,0.,0.));
#733=CARTESIAN_POINT('',(-0.047,0.0585,0.1036));
#734=CARTESIAN_POINT('',(-0.0509949968710876,0.0587,0.1036));
#735=CARTESIAN_POINT('',(-0.0512619695943047,0.0587,0.10333336120152));
#736=CARTESIAN_POINT('',(-0.051528909834088,0.0587,0.103066689885717));
#737=CARTESIAN_POINT('',(-0.0517958315233127,0.0587,0.1028));
#738=CARTESIAN_POINT('',(-0.0509949968710876,0.0587,0.1036));
#739=CARTESIAN_POINT('',(-0.0517958315233127,0.0587,0.1028));
#740=CARTESIAN_POINT('',(-0.047,0.0585,0.1028));
#741=CARTESIAN_POINT('',(-0.0472,0.0632958315233127,0.1028));
#742=CARTESIAN_POINT('',(-0.0472,0.0624949968710876,0.1036));
#743=CARTESIAN_POINT('',(-0.0472,0.0627619695943047,0.10333336120152));
#744=CARTESIAN_POINT('',(-0.0472,0.063028909834088,0.103066689885717));
#745=CARTESIAN_POINT('',(-0.0472,0.0632958315233127,0.1028));
#746=CARTESIAN_POINT('',(-0.0472,0.0624949968710876,0.1036));
#747=CARTESIAN_POINT('',(-0.047,0.0585,0.1036));
#748=CARTESIAN_POINT('',(-0.047,0.0585,0.1036));
#749=CARTESIAN_POINT('',(-0.0468,0.0624949968710876,0.1036));
#750=CARTESIAN_POINT('',(-0.0468,0.0627619695943047,0.10333336120152));
#751=CARTESIAN_POINT('',(-0.0468,0.063028909834088,0.103066689885717));
#752=CARTESIAN_POINT('',(-0.0468,0.0632958315233127,0.1028));
#753=CARTESIAN_POINT('',(-0.0468,0.0624949968710876,0.1036));
#754=CARTESIAN_POINT('',(-0.0468,0.0632958315233127,0.1028));
#755=CARTESIAN_POINT('',(-0.047,0.0585,0.1028));
#756=CARTESIAN_POINT('',(-0.0422041684766873,0.0587,0.1028));
#757=CARTESIAN_POINT('',(-0.0430050031289124,0.0587,0.1036));
#758=CARTESIAN_POINT('',(-0.0427380304056952,0.0587,0.10333336120152));
#759=CARTESIAN_POINT('',(-0.042471090165912,0.0587,0.103066689885717));
#760=CARTESIAN_POINT('',(-0.0422041684766873,0.0587,0.1028));
#761=CARTESIAN_POINT('',(-0.0430050031289124,0.0587,0.1036));
#762=CARTESIAN_POINT('',(-0.047,0.0585,0.1036));
#763=CARTESIAN_POINT('',(-0.047,0.0585,0.1036));
#764=CARTESIAN_POINT('',(-0.0430050031289124,0.0583,0.1036));
#765=CARTESIAN_POINT('',(-0.0427380304056952,0.0583,0.10333336120152));
#766=CARTESIAN_POINT('',(-0.042471090165912,0.0583,0.103066689885717));
#767=CARTESIAN_POINT('',(-0.0422041684766873,0.0583,0.1028));
#768=CARTESIAN_POINT('',(-0.0430050031289124,0.0583,0.1036));
#769=CARTESIAN_POINT('',(-0.0422041684766873,0.0583,0.1028));
#770=CARTESIAN_POINT('',(-0.047,0.0585,0.1028));
#771=CARTESIAN_POINT('',(-0.0468,0.0537041684766873,0.1028));
#772=CARTESIAN_POINT('',(-0.0468,0.0545050031289124,0.1036));
#773=CARTESIAN_POINT('',(-0.0468,0.0542380304056953,0.10333336120152));
#774=CARTESIAN_POINT('',(-0.0468,0.053971090165912,0.103066689885717));
#775=CARTESIAN_POINT('',(-0.0468,0.0537041684766873,0.1028));
#776=CARTESIAN_POINT('',(-0.0468,0.0545050031289124,0.1036));
#777=CARTESIAN_POINT('',(-0.047,0.0585,0.1036));
#778=CARTESIAN_POINT('',(-0.047,0.0585,0.1036));
#779=CARTESIAN_POINT('',(-0.0392348044746102,0.0587,0.1036));
#780=CARTESIAN_POINT('',(-0.0462,0.0587,0.1036));
#781=CARTESIAN_POINT('',(-0.0461999999999998,0.0587000000000002,0.1036));
#782=CARTESIAN_POINT('',(-0.0465999999999998,0.0587000000000002,0.1036));
#783=CARTESIAN_POINT('',(-0.0467999999999998,0.0589000000000002,0.1036));
#784=CARTESIAN_POINT('',(-0.0467999999999998,0.0593000000000002,0.1036));
#785=CARTESIAN_POINT('',(-0.0468,0.0593,0.1036));
#786=CARTESIAN_POINT('',(-0.0468,0.0671016753144943,0.1036));
#787=CARTESIAN_POINT('',(-0.047,0.0585,0.1036));
#788=CARTESIAN_POINT('',(-0.0468,0.0498983246855059,0.1036));
#789=CARTESIAN_POINT('',(-0.0468,0.0577,0.1036));
#790=CARTESIAN_POINT('',(-0.0467999999999998,0.0577000000000002,0.1036));
#791=CARTESIAN_POINT('',(-0.0467999999999998,0.0581000000000002,0.1036));
#792=CARTESIAN_POINT('',(-0.0465999999999998,0.0583000000000002,0.1036));
#793=CARTESIAN_POINT('',(-0.0461999999999998,0.0583000000000002,0.1036));
#794=CARTESIAN_POINT('',(-0.0462,0.0583,0.1036));
#795=CARTESIAN_POINT('',(-0.0392348044746102,0.0583,0.1036));
#796=CARTESIAN_POINT('',(-0.047,0.0585,0.1036));
#797=CARTESIAN_POINT('',(-0.0472,0.0671016753144943,0.1036));
#798=CARTESIAN_POINT('',(-0.0472,0.0593,0.1036));
#799=CARTESIAN_POINT('',(-0.0471999999999998,0.0593000000000002,0.1036));
#800=CARTESIAN_POINT('',(-0.0471999999999998,0.0589000000000001,0.1036));
#801=CARTESIAN_POINT('',(-0.0473999999999998,0.0587000000000001,0.1036));
#802=CARTESIAN_POINT('',(-0.0477999999999998,0.0587000000000001,0.1036));
#803=CARTESIAN_POINT('',(-0.0478,0.0587,0.1036));
#804=CARTESIAN_POINT('',(-0.0547651955253896,0.0587,0.1036));
#805=CARTESIAN_POINT('',(-0.047,0.0585,0.124));
#806=CARTESIAN_POINT('',(-0.047,0.0585,0.1028));
#807=CARTESIAN_POINT('',(-0.0517958315233127,0.0583,0.1028));
#808=CARTESIAN_POINT('',(-0.0472,0.0537041684766873,0.1028));
#809=CARTESIAN_POINT('',(-0.0472,0.0537041684766873,0.1286));
#810=CARTESIAN_POINT('',(-0.0472,0.0537041684766873,0.1046));
#811=CARTESIAN_POINT('',(-0.047,0.0585,0.1046));
#812=CARTESIAN_POINT('',(-0.0468,0.0537041684766873,0.1046));
#813=CARTESIAN_POINT('',(-0.0468,0.0537041684766873,0.1286));
#814=CARTESIAN_POINT('',(-0.0422041684766873,0.0583,0.1286));
#815=CARTESIAN_POINT('',(-0.0422041684766873,0.0583,0.1046));
#816=CARTESIAN_POINT('',(-0.047,0.0585,0.1046));
#817=CARTESIAN_POINT('',(-0.0422041684766873,0.0587,0.1046));
#818=CARTESIAN_POINT('',(-0.0422041684766873,0.0587,0.1286));
#819=CARTESIAN_POINT('',(-0.0468,0.0632958315233127,0.1286));
#820=CARTESIAN_POINT('',(-0.0468,0.0632958315233127,0.1046));
#821=CARTESIAN_POINT('',(-0.047,0.0585,0.1046));
#822=CARTESIAN_POINT('',(-0.0472,0.0632958315233127,0.1046));
#823=CARTESIAN_POINT('',(-0.0472,0.0632958315233127,0.1286));
#824=CARTESIAN_POINT('',(-0.0517958315233127,0.0587,0.1286));
#825=CARTESIAN_POINT('',(-0.0517958315233127,0.0587,0.1046));
#826=CARTESIAN_POINT('',(-0.047,0.0585,0.1046));
#827=CARTESIAN_POINT('',(-0.0517958315233127,0.0583,0.1046));
#828=CARTESIAN_POINT('',(-0.0517958315233127,0.0583,0.1286));
#829=CARTESIAN_POINT('',(-0.047,0.0585,0.1002));
#830=CARTESIAN_POINT('',(-0.0518,0.0585,0.1002));
#831=CARTESIAN_POINT('',(-0.047,0.0585,0.1));
#832=CARTESIAN_POINT('',(-0.047,0.0585,0.103));
#833=CARTESIAN_POINT('',(-0.0412,0.0585,0.103));
#834=CARTESIAN_POINT('',(-0.047,0.0585,0.1002));
#835=CARTESIAN_POINT('',(-0.0528,0.0585,0.1002));
#836=CARTESIAN_POINT('',(-0.047,0.0585,0.099));
#837=CARTESIAN_POINT('',(-0.047,0.0585,0.0992));
#838=CARTESIAN_POINT('',(-0.0532,0.0585,0.0992));
#839=CARTESIAN_POINT('',(-0.047,0.0585,0.0998));
#840=CARTESIAN_POINT('',(-0.0532,0.0585,0.0998));
#841=CARTESIAN_POINT('',(-0.047,0.0585,0.099));
#842=CARTESIAN_POINT('',(-0.047,0.0585,0.099));
#843=CARTESIAN_POINT('',(-0.053,0.0585,0.099));
#844=CARTESIAN_POINT('',(-0.047,0.0585,0.099));
#845=CARTESIAN_POINT('',(-0.051,0.0585,0.099));
#846=CARTESIAN_POINT('',(-0.047,0.0585,0.0996));
#847=CARTESIAN_POINT('',(-0.047,0.0585,0.1046));
#848=CARTESIAN_POINT('',(-0.047,0.0585,0.1036));
#849=CARTESIAN_POINT('',(-0.0395,0.0585,0.1036));
#850=CARTESIAN_POINT('',(-0.047,0.0585,0.1032));
#851=CARTESIAN_POINT('',(-0.0395,0.0585,0.1032));
#852=CARTESIAN_POINT('',(-0.047,0.0585,0.1046));
#853=CARTESIAN_POINT('',(-0.047,0.0583,0.1046));
#854=CARTESIAN_POINT('',(-0.0462,0.0583,0.1046));
#855=CARTESIAN_POINT('',(-0.0461999999999998,0.0583000000000001,0.1046));
#856=CARTESIAN_POINT('',(-0.0465999999999998,0.0583000000000001,0.1046));
#857=CARTESIAN_POINT('',(-0.0467999999999998,0.0581000000000001,0.1046));
#858=CARTESIAN_POINT('',(-0.0467999999999998,0.0577000000000001,0.1046));
#859=CARTESIAN_POINT('',(-0.0468,0.0577,0.1046));
#860=CARTESIAN_POINT('',(-0.0468,0.0585,0.1046));
#861=CARTESIAN_POINT('',(-0.0472,0.0585,0.1046));
#862=CARTESIAN_POINT('',(-0.0472,0.0577,0.1046));
#863=CARTESIAN_POINT('',(-0.0471999999999998,0.0577000000000001,0.1046));
#864=CARTESIAN_POINT('',(-0.0471999999999998,0.0581000000000001,0.1046));
#865=CARTESIAN_POINT('',(-0.0473999999999998,0.0583000000000002,0.1046));
#866=CARTESIAN_POINT('',(-0.0477999999999998,0.0583000000000002,0.1046));
#867=CARTESIAN_POINT('',(-0.0478,0.0583,0.1046));
#868=CARTESIAN_POINT('',(-0.047,0.0583,0.1046));
#869=CARTESIAN_POINT('',(-0.047,0.0587,0.1046));
#870=CARTESIAN_POINT('',(-0.0478,0.0587,0.1046));
#871=CARTESIAN_POINT('',(-0.0477999999999998,0.0587000000000001,0.1046));
#872=CARTESIAN_POINT('',(-0.0473999999999998,0.0587000000000001,0.1046));
#873=CARTESIAN_POINT('',(-0.0471999999999998,0.0589000000000001,0.1046));
#874=CARTESIAN_POINT('',(-0.0471999999999998,0.0593000000000001,0.1046));
#875=CARTESIAN_POINT('',(-0.0472,0.0593,0.1046));
#876=CARTESIAN_POINT('',(-0.0472,0.0585,0.1046));
#877=CARTESIAN_POINT('',(-0.0468,0.0585,0.1046));
#878=CARTESIAN_POINT('',(-0.0468,0.0593,0.1046));
#879=CARTESIAN_POINT('',(-0.0467999999999998,0.0593000000000001,0.1046));
#880=CARTESIAN_POINT('',(-0.0467999999999998,0.0589000000000001,0.1046));
#881=CARTESIAN_POINT('',(-0.0465999999999998,0.0587000000000002,0.1046));
#882=CARTESIAN_POINT('',(-0.0461999999999998,0.0587000000000002,0.1046));
#883=CARTESIAN_POINT('',(-0.0462,0.0587,0.1046));
#884=CARTESIAN_POINT('',(-0.047,0.0587,0.1046));
#885=CARTESIAN_POINT('',(-0.047,0.0585,0.1046));
#886=CARTESIAN_POINT('',(-0.0405,0.0585,0.1046));
#887=CARTESIAN_POINT('',(-0.047,0.0585,0.1032));
#888=CARTESIAN_POINT('',(-0.047,0.0585,0.1032));
#889=CARTESIAN_POINT('',(-0.041,0.0585,0.1032));
#890=CARTESIAN_POINT('',(-0.047,0.0585,0.1046));
#891=CARTESIAN_POINT('',(-0.047,0.0585,0.0994));
#892=CARTESIAN_POINT('',(-0.047,0.0585,0.0994));
#893=CARTESIAN_POINT('',(-0.051,0.0585,0.0994));
#894=CARTESIAN_POINT('',(-0.047,0.0585,0.0994));
#895=CARTESIAN_POINT('',(-0.047,0.0585,0.1036));
#896=CARTESIAN_POINT('',(-0.0547651955253896,0.0583,0.1036));
#897=CARTESIAN_POINT('',(-0.0509949968710877,0.0583,0.1036));
#898=CARTESIAN_POINT('',(-0.0478,0.0583,0.1036));
#899=CARTESIAN_POINT('',(-0.0477999999999998,0.0583000000000002,0.1036));
#900=CARTESIAN_POINT('',(-0.0473999999999998,0.0583000000000002,0.1036));
#901=CARTESIAN_POINT('',(-0.0471999999999998,0.0581000000000002,0.1036));
#902=CARTESIAN_POINT('',(-0.0471999999999998,0.0577000000000002,0.1036));
#903=CARTESIAN_POINT('',(-0.0472,0.0577,0.1036));
#904=CARTESIAN_POINT('',(-0.0472,0.0498983246855059,0.1036));
#905=CARTESIAN_POINT('',(-0.0472,0.0545050031289124,0.1036));
#906=CARTESIAN_POINT('',(-0.047,0.0585,0.1036));
#907=CARTESIAN_POINT('',(-0.047,0.0585,0.1036));
#908=CARTESIAN_POINT('',(-0.0509949968710877,0.0583,0.1036));
#909=CARTESIAN_POINT('',(-0.0512619695943048,0.0583,0.10333336120152));
#910=CARTESIAN_POINT('',(-0.051528909834088,0.0583,0.103066689885717));
#911=CARTESIAN_POINT('',(-0.0517958315233127,0.0583,0.1028));
#912=CARTESIAN_POINT('',(-0.0472,0.0545050031289124,0.1036));
#913=CARTESIAN_POINT('',(-0.0472,0.0542380304056953,0.10333336120152));
#914=CARTESIAN_POINT('',(-0.0472,0.053971090165912,0.103066689885717));
#915=CARTESIAN_POINT('',(-0.0472,0.0537041684766873,0.1028));
#916=CARTESIAN_POINT('',(-0.047,0.0585,0.1032));
#917=CARTESIAN_POINT('',(-0.047,0.0585,0.099));
#918=CARTESIAN_POINT('',(-0.0468,0.0671016753144943,0.1286));
#919=CARTESIAN_POINT('',(-0.0468,0.0593000000000002,0.1036));
#920=CARTESIAN_POINT('',(-0.0468,0.0593000000000002,0.103933333333333));
#921=CARTESIAN_POINT('',(-0.0468,0.0593000000000002,0.104266666666667));
#922=CARTESIAN_POINT('',(-0.0468,0.0593000000000002,0.1046));
#923=CARTESIAN_POINT('',(-0.0392348044746102,0.0587,0.1286));
#924=CARTESIAN_POINT('',(-0.0461999999999998,0.0587,0.1046));
#925=CARTESIAN_POINT('',(-0.0461999999999998,0.0587,0.104266666666667));
#926=CARTESIAN_POINT('',(-0.0461999999999998,0.0587,0.103933333333333));
#927=CARTESIAN_POINT('',(-0.0461999999999998,0.0587,0.1036));
#928=CARTESIAN_POINT('',(-0.0392348044746102,0.0583,0.1286));
#929=CARTESIAN_POINT('',(-0.0461999999999998,0.0583,0.1036));
#930=CARTESIAN_POINT('',(-0.0461999999999998,0.0583,0.103933333333333));
#931=CARTESIAN_POINT('',(-0.0461999999999998,0.0583,0.104266666666667));
#932=CARTESIAN_POINT('',(-0.0461999999999998,0.0583,0.1046));
#933=CARTESIAN_POINT('',(-0.0468,0.0498983246855059,0.1286));
#934=CARTESIAN_POINT('',(-0.0468,0.0577000000000001,0.1046));
#935=CARTESIAN_POINT('',(-0.0468,0.0577000000000001,0.104266666666667));
#936=CARTESIAN_POINT('',(-0.0468,0.0577000000000001,0.103933333333333));
#937=CARTESIAN_POINT('',(-0.0468,0.0577000000000001,0.1036));
#938=CARTESIAN_POINT('',(-0.0472,0.0498983246855059,0.1286));
#939=CARTESIAN_POINT('',(-0.0472,0.0577000000000001,0.1036));
#940=CARTESIAN_POINT('',(-0.0472,0.0577000000000001,0.103933333333333));
#941=CARTESIAN_POINT('',(-0.0472,0.0577000000000001,0.104266666666667));
#942=CARTESIAN_POINT('',(-0.0472,0.0577000000000002,0.1046));
#943=CARTESIAN_POINT('',(-0.0547651955253896,0.0583,0.1286));
#944=CARTESIAN_POINT('',(-0.0477999999999998,0.0583,0.1046));
#945=CARTESIAN_POINT('',(-0.0477999999999998,0.0583,0.104266666666667));
#946=CARTESIAN_POINT('',(-0.0477999999999998,0.0583,0.103933333333333));
#947=CARTESIAN_POINT('',(-0.0477999999999997,0.0583,0.1036));
#948=CARTESIAN_POINT('',(-0.0547651955253896,0.0587,0.1286));
#949=CARTESIAN_POINT('',(-0.0477999999999997,0.0587,0.1036));
#950=CARTESIAN_POINT('',(-0.0477999999999998,0.0587,0.103933333333333));
#951=CARTESIAN_POINT('',(-0.0477999999999998,0.0587,0.104266666666667));
#952=CARTESIAN_POINT('',(-0.0477999999999998,0.0587,0.1046));
#953=CARTESIAN_POINT('',(-0.0472,0.0671016753144943,0.1286));
#954=CARTESIAN_POINT('',(-0.0472,0.0593000000000002,0.1046));
#955=CARTESIAN_POINT('',(-0.0472,0.0593000000000002,0.104266666666667));
#956=CARTESIAN_POINT('',(-0.0472,0.0593000000000002,0.103933333333333));
#957=CARTESIAN_POINT('',(-0.0472,0.0593000000000002,0.1036));
#958=CARTESIAN_POINT('',(-0.0461999999999998,0.0583,0.1036));
#959=CARTESIAN_POINT('',(-0.0461999999999998,0.0583,0.1046));
#960=CARTESIAN_POINT('',(-0.0465999999999998,0.0583,0.1036));
#961=CARTESIAN_POINT('',(-0.0465999999999998,0.0583,0.1046));
#962=CARTESIAN_POINT('',(-0.0467999999999999,0.0581000000000002,0.1036));
#963=CARTESIAN_POINT('',(-0.0467999999999999,0.0581000000000002,0.1046));
#964=CARTESIAN_POINT('',(-0.0468,0.0577000000000001,0.1036));
#965=CARTESIAN_POINT('',(-0.0468,0.0577000000000001,0.1046));
#966=CARTESIAN_POINT('',(-0.0477999999999998,0.0583,0.1046));
#967=CARTESIAN_POINT('',(-0.0477999999999998,0.0583,0.1036));
#968=CARTESIAN_POINT('',(-0.0474,0.0582999999999999,0.1046));
#969=CARTESIAN_POINT('',(-0.0474,0.0582999999999999,0.1036));
#970=CARTESIAN_POINT('',(-0.0472000000000001,0.0581,0.1046));
#971=CARTESIAN_POINT('',(-0.0472000000000001,0.0581,0.1036));
#972=CARTESIAN_POINT('',(-0.0472,0.0577000000000001,0.1046));
#973=CARTESIAN_POINT('',(-0.0472,0.0577000000000001,0.1036));
#974=CARTESIAN_POINT('',(-0.0461999999999998,0.0587,0.1046));
#975=CARTESIAN_POINT('',(-0.0461999999999998,0.0587,0.1036));
#976=CARTESIAN_POINT('',(-0.0465999999999999,0.0586999999999999,0.1046));
#977=CARTESIAN_POINT('',(-0.0465999999999999,0.0586999999999999,0.1036));
#978=CARTESIAN_POINT('',(-0.0468,0.0589,0.1046));
#979=CARTESIAN_POINT('',(-0.0468,0.0589,0.1036));
#980=CARTESIAN_POINT('',(-0.0468,0.0593000000000002,0.1046));
#981=CARTESIAN_POINT('',(-0.0468,0.0593000000000002,0.1036));
#982=CARTESIAN_POINT('',(-0.0477999999999998,0.0587,0.1036));
#983=CARTESIAN_POINT('',(-0.0477999999999998,0.0587,0.1046));
#984=CARTESIAN_POINT('',(-0.0473999999999999,0.0587000000000001,0.1036));
#985=CARTESIAN_POINT('',(-0.0473999999999999,0.0587000000000001,0.1046));
#986=CARTESIAN_POINT('',(-0.0472,0.0589000000000002,0.1036));
#987=CARTESIAN_POINT('',(-0.0472,0.0589000000000002,0.1046));
#988=CARTESIAN_POINT('',(-0.0472,0.0593000000000002,0.1036));
#989=CARTESIAN_POINT('',(-0.0472,0.0593000000000002,0.1046));
#990=MECHANICAL_DESIGN_GEOMETRIC_PRESENTATION_REPRESENTATION('',(#535),
#991);
#991=(
GEOMETRIC_REPRESENTATION_CONTEXT(3)
GLOBAL_UNCERTAINTY_ASSIGNED_CONTEXT((#992))
GLOBAL_UNIT_ASSIGNED_CONTEXT((#995,#994,#993))
REPRESENTATION_CONTEXT('Plug_Grommet_TPU','TOP_LEVEL_ASSEMBLY_PART')
);
#992=UNCERTAINTY_MEASURE_WITH_UNIT(LENGTH_MEASURE(2.E-5),#995,
'DISTANCE_ACCURACY_VALUE','Maximum Tolerance applied to model');
#993=(
NAMED_UNIT(*)
SI_UNIT($,.STERADIAN.)
SOLID_ANGLE_UNIT()
);
#994=(
NAMED_UNIT(*)
PLANE_ANGLE_UNIT()
SI_UNIT($,.RADIAN.)
);
#995=(
LENGTH_UNIT()
NAMED_UNIT(*)
SI_UNIT($,.METRE.)
);
#996=PRODUCT_DEFINITION_SHAPE('','',#997);
#997=PRODUCT_DEFINITION('','',#999,#998);
#998=PRODUCT_DEFINITION_CONTEXT('',#1005,'design');
#999=PRODUCT_DEFINITION_FORMATION_WITH_SPECIFIED_SOURCE('','',#1001,
 .NOT_KNOWN.);
#1000=PRODUCT_RELATED_PRODUCT_CATEGORY('','',(#1001));
#1001=PRODUCT('Plug_Grommet_TPU','Plug_Grommet_TPU','Plug_Grommet_TPU',
(#1003));
#1002=PRODUCT_CATEGORY('','');
#1003=PRODUCT_CONTEXT('',#1005,'mechanical');
#1004=APPLICATION_PROTOCOL_DEFINITION('international standard',
'ap242_managed_model_based_3d_engineering',2020,#1005);
#1005=APPLICATION_CONTEXT('managed model based 3d engineering');
ENDSEC;
END-ISO-10303-21;
