ISO-10303-21;
HEADER;
/* Generated by software containing ST-Developer
 * from STEP Tools, Inc. (www.steptools.com) 
 */
/* OPTION: using custom renumber hook */

FILE_DESCRIPTION(
/* description */ ('STEP AP242 Edition 2',
'CAx-IF Rec.Pracs.---Representation and Presentation of Product Manufa
cturing Information (PMI)---4.0---2014-10-13',
'CAx-IF Rec.Pracs.---3D Tessellated Geometry---0.4---2014-09-14','2;1',
'CAx-IF Rec.Pracs.---User Defined Attributes---1.5---2016-08-15'),
/* implementation_level */ '2;1');

FILE_NAME(
/* name */ 'Pneuma_101 - Logo_Detail',
/* time_stamp */ '2026-04-29T18:02:18Z',
/* author */ (''),
/* organization */ (''),
/* preprocessor_version */ 'ST-DEVELOPER v20',
/* originating_system */ 'ONSHAPE BY PTC INC, 1.214',
/* authorisation */ '  ');

FILE_SCHEMA (('AP242_MANAGED_MODEL_BASED_3D_ENGINEERING_MIM_LF { 1 0 10303 442 3 1 4 }'));
ENDSEC;

DATA;
#10=SHAPE_REPRESENTATION_RELATIONSHIP('','',#559,#11);
#11=ADVANCED_BREP_SHAPE_REPRESENTATION('',(#557),#944);
#12=CYLINDRICAL_SURFACE('',#595,0.00238);
#13=CYLINDRICAL_SURFACE('',#599,0.005);
#14=CYLINDRICAL_SURFACE('',#602,0.005);
#15=CYLINDRICAL_SURFACE('',#605,0.005);
#16=CYLINDRICAL_SURFACE('',#612,0.00238);
#17=CYLINDRICAL_SURFACE('',#613,0.00238);
#18=CYLINDRICAL_SURFACE('',#614,0.00238);
#19=CYLINDRICAL_SURFACE('',#615,0.00238);
#20=CIRCLE('',#563,0.005);
#21=CIRCLE('',#564,0.0046);
#22=CIRCLE('',#566,0.0046);
#23=CIRCLE('',#567,0.005);
#24=CIRCLE('',#571,0.0046);
#25=CIRCLE('',#572,0.005);
#26=CIRCLE('',#575,0.00238);
#27=CIRCLE('',#576,0.00198);
#28=CIRCLE('',#578,0.00198);
#29=CIRCLE('',#579,0.00238);
#30=CIRCLE('',#582,0.00198);
#31=CIRCLE('',#583,0.00238);
#32=CIRCLE('',#586,0.00238);
#33=CIRCLE('',#587,0.00198000000000003);
#34=CIRCLE('',#589,0.00198000000000004);
#35=CIRCLE('',#590,0.00238);
#36=CIRCLE('',#596,0.00238);
#37=CIRCLE('',#600,0.005);
#38=CIRCLE('',#603,0.005);
#39=CIRCLE('',#606,0.005);
#40=CIRCLE('',#608,0.00238);
#41=CIRCLE('',#609,0.00238);
#42=CIRCLE('',#610,0.00238);
#43=CIRCLE('',#611,0.00238);
#44=CONICAL_SURFACE('',#562,0.0046,0.785398163397445);
#45=CONICAL_SURFACE('',#565,0.0046,0.785398163397448);
#46=CONICAL_SURFACE('',#570,0.0046,0.785398163397448);
#47=CONICAL_SURFACE('',#574,0.00198,0.78539816339745);
#48=CONICAL_SURFACE('',#577,0.00198,0.78539816339745);
#49=CONICAL_SURFACE('',#581,0.00198,0.785398163397446);
#50=CONICAL_SURFACE('',#585,0.00198000000000004,0.785398163397407);
#51=CONICAL_SURFACE('',#588,0.00198000000000004,0.785398163397407);
#52=ORIENTED_EDGE('',*,*,#198,.T.);
#53=ORIENTED_EDGE('',*,*,#199,.F.);
#54=ORIENTED_EDGE('',*,*,#200,.T.);
#55=ORIENTED_EDGE('',*,*,#201,.F.);
#56=ORIENTED_EDGE('',*,*,#202,.T.);
#57=ORIENTED_EDGE('',*,*,#203,.T.);
#58=ORIENTED_EDGE('',*,*,#200,.F.);
#59=ORIENTED_EDGE('',*,*,#204,.F.);
#60=ORIENTED_EDGE('',*,*,#205,.T.);
#61=ORIENTED_EDGE('',*,*,#206,.F.);
#62=ORIENTED_EDGE('',*,*,#198,.F.);
#63=ORIENTED_EDGE('',*,*,#207,.T.);
#64=ORIENTED_EDGE('',*,*,#208,.T.);
#65=ORIENTED_EDGE('',*,*,#209,.F.);
#66=ORIENTED_EDGE('',*,*,#202,.F.);
#67=ORIENTED_EDGE('',*,*,#210,.F.);
#68=ORIENTED_EDGE('',*,*,#211,.T.);
#69=ORIENTED_EDGE('',*,*,#212,.F.);
#70=ORIENTED_EDGE('',*,*,#205,.F.);
#71=ORIENTED_EDGE('',*,*,#213,.F.);
#72=ORIENTED_EDGE('',*,*,#208,.F.);
#73=ORIENTED_EDGE('',*,*,#214,.F.);
#74=ORIENTED_EDGE('',*,*,#211,.F.);
#75=ORIENTED_EDGE('',*,*,#215,.T.);
#76=ORIENTED_EDGE('',*,*,#216,.T.);
#77=ORIENTED_EDGE('',*,*,#217,.F.);
#78=ORIENTED_EDGE('',*,*,#218,.T.);
#79=ORIENTED_EDGE('',*,*,#219,.F.);
#80=ORIENTED_EDGE('',*,*,#220,.T.);
#81=ORIENTED_EDGE('',*,*,#221,.F.);
#82=ORIENTED_EDGE('',*,*,#218,.F.);
#83=ORIENTED_EDGE('',*,*,#222,.T.);
#84=ORIENTED_EDGE('',*,*,#223,.T.);
#85=ORIENTED_EDGE('',*,*,#224,.T.);
#86=ORIENTED_EDGE('',*,*,#216,.F.);
#87=ORIENTED_EDGE('',*,*,#225,.F.);
#88=ORIENTED_EDGE('',*,*,#220,.F.);
#89=ORIENTED_EDGE('',*,*,#226,.F.);
#90=ORIENTED_EDGE('',*,*,#223,.F.);
#91=ORIENTED_EDGE('',*,*,#227,.F.);
#92=ORIENTED_EDGE('',*,*,#228,.T.);
#93=ORIENTED_EDGE('',*,*,#229,.F.);
#94=ORIENTED_EDGE('',*,*,#230,.T.);
#95=ORIENTED_EDGE('',*,*,#231,.F.);
#96=ORIENTED_EDGE('',*,*,#232,.T.);
#97=ORIENTED_EDGE('',*,*,#233,.F.);
#98=ORIENTED_EDGE('',*,*,#234,.T.);
#99=ORIENTED_EDGE('',*,*,#235,.F.);
#100=ORIENTED_EDGE('',*,*,#232,.F.);
#101=ORIENTED_EDGE('',*,*,#236,.T.);
#102=ORIENTED_EDGE('',*,*,#237,.T.);
#103=ORIENTED_EDGE('',*,*,#238,.T.);
#104=ORIENTED_EDGE('',*,*,#230,.F.);
#105=ORIENTED_EDGE('',*,*,#239,.F.);
#106=ORIENTED_EDGE('',*,*,#234,.F.);
#107=ORIENTED_EDGE('',*,*,#240,.F.);
#108=ORIENTED_EDGE('',*,*,#237,.F.);
#109=ORIENTED_EDGE('',*,*,#241,.F.);
#110=ORIENTED_EDGE('',*,*,#222,.F.);
#111=ORIENTED_EDGE('',*,*,#217,.T.);
#112=ORIENTED_EDGE('',*,*,#224,.F.);
#113=ORIENTED_EDGE('',*,*,#226,.T.);
#114=ORIENTED_EDGE('',*,*,#236,.F.);
#115=ORIENTED_EDGE('',*,*,#231,.T.);
#116=ORIENTED_EDGE('',*,*,#238,.F.);
#117=ORIENTED_EDGE('',*,*,#240,.T.);
#118=ORIENTED_EDGE('',*,*,#228,.F.);
#119=ORIENTED_EDGE('',*,*,#242,.F.);
#120=ORIENTED_EDGE('',*,*,#229,.T.);
#121=ORIENTED_EDGE('',*,*,#204,.T.);
#122=ORIENTED_EDGE('',*,*,#199,.T.);
#123=ORIENTED_EDGE('',*,*,#206,.T.);
#124=ORIENTED_EDGE('',*,*,#212,.T.);
#125=ORIENTED_EDGE('',*,*,#214,.T.);
#126=ORIENTED_EDGE('',*,*,#210,.T.);
#127=ORIENTED_EDGE('',*,*,#243,.F.);
#128=ORIENTED_EDGE('',*,*,#213,.T.);
#129=ORIENTED_EDGE('',*,*,#244,.T.);
#130=ORIENTED_EDGE('',*,*,#245,.T.);
#131=ORIENTED_EDGE('',*,*,#244,.F.);
#132=ORIENTED_EDGE('',*,*,#207,.F.);
#133=ORIENTED_EDGE('',*,*,#246,.T.);
#134=ORIENTED_EDGE('',*,*,#247,.T.);
#135=ORIENTED_EDGE('',*,*,#246,.F.);
#136=ORIENTED_EDGE('',*,*,#201,.T.);
#137=ORIENTED_EDGE('',*,*,#248,.T.);
#138=ORIENTED_EDGE('',*,*,#249,.F.);
#139=ORIENTED_EDGE('',*,*,#248,.F.);
#140=ORIENTED_EDGE('',*,*,#203,.F.);
#141=ORIENTED_EDGE('',*,*,#250,.T.);
#142=ORIENTED_EDGE('',*,*,#251,.T.);
#143=ORIENTED_EDGE('',*,*,#250,.F.);
#144=ORIENTED_EDGE('',*,*,#209,.T.);
#145=ORIENTED_EDGE('',*,*,#252,.T.);
#146=ORIENTED_EDGE('',*,*,#253,.T.);
#147=ORIENTED_EDGE('',*,*,#252,.F.);
#148=ORIENTED_EDGE('',*,*,#215,.F.);
#149=ORIENTED_EDGE('',*,*,#243,.T.);
#150=ORIENTED_EDGE('',*,*,#254,.T.);
#151=ORIENTED_EDGE('',*,*,#255,.T.);
#152=ORIENTED_EDGE('',*,*,#256,.T.);
#153=ORIENTED_EDGE('',*,*,#257,.T.);
#154=ORIENTED_EDGE('',*,*,#258,.F.);
#155=ORIENTED_EDGE('',*,*,#242,.T.);
#156=ORIENTED_EDGE('',*,*,#254,.F.);
#157=ORIENTED_EDGE('',*,*,#245,.F.);
#158=ORIENTED_EDGE('',*,*,#247,.F.);
#159=ORIENTED_EDGE('',*,*,#249,.T.);
#160=ORIENTED_EDGE('',*,*,#251,.F.);
#161=ORIENTED_EDGE('',*,*,#253,.F.);
#162=ORIENTED_EDGE('',*,*,#259,.F.);
#163=ORIENTED_EDGE('',*,*,#260,.T.);
#164=ORIENTED_EDGE('',*,*,#261,.T.);
#165=ORIENTED_EDGE('',*,*,#262,.T.);
#166=ORIENTED_EDGE('',*,*,#263,.F.);
#167=ORIENTED_EDGE('',*,*,#235,.T.);
#168=ORIENTED_EDGE('',*,*,#264,.T.);
#169=ORIENTED_EDGE('',*,*,#262,.F.);
#170=ORIENTED_EDGE('',*,*,#265,.F.);
#171=ORIENTED_EDGE('',*,*,#239,.T.);
#172=ORIENTED_EDGE('',*,*,#266,.T.);
#173=ORIENTED_EDGE('',*,*,#260,.F.);
#174=ORIENTED_EDGE('',*,*,#267,.F.);
#175=ORIENTED_EDGE('',*,*,#221,.T.);
#176=ORIENTED_EDGE('',*,*,#268,.T.);
#177=ORIENTED_EDGE('',*,*,#257,.F.);
#178=ORIENTED_EDGE('',*,*,#269,.F.);
#179=ORIENTED_EDGE('',*,*,#225,.T.);
#180=ORIENTED_EDGE('',*,*,#270,.T.);
#181=ORIENTED_EDGE('',*,*,#255,.F.);
#182=ORIENTED_EDGE('',*,*,#266,.F.);
#183=ORIENTED_EDGE('',*,*,#233,.T.);
#184=ORIENTED_EDGE('',*,*,#263,.T.);
#185=ORIENTED_EDGE('',*,*,#261,.F.);
#186=ORIENTED_EDGE('',*,*,#264,.F.);
#187=ORIENTED_EDGE('',*,*,#241,.T.);
#188=ORIENTED_EDGE('',*,*,#265,.T.);
#189=ORIENTED_EDGE('',*,*,#259,.T.);
#190=ORIENTED_EDGE('',*,*,#268,.F.);
#191=ORIENTED_EDGE('',*,*,#227,.T.);
#192=ORIENTED_EDGE('',*,*,#269,.T.);
#193=ORIENTED_EDGE('',*,*,#258,.T.);
#194=ORIENTED_EDGE('',*,*,#270,.F.);
#195=ORIENTED_EDGE('',*,*,#219,.T.);
#196=ORIENTED_EDGE('',*,*,#267,.T.);
#197=ORIENTED_EDGE('',*,*,#256,.F.);
#198=EDGE_CURVE('',#271,#272,#316,.T.);
#199=EDGE_CURVE('',#273,#272,#317,.T.);
#200=EDGE_CURVE('',#273,#274,#318,.T.);
#201=EDGE_CURVE('',#271,#274,#319,.T.);
#202=EDGE_CURVE('',#275,#276,#320,.T.);
#203=EDGE_CURVE('',#276,#274,#20,.T.);
#204=EDGE_CURVE('',#275,#273,#21,.T.);
#205=EDGE_CURVE('',#277,#278,#321,.T.);
#206=EDGE_CURVE('',#272,#278,#22,.T.);
#207=EDGE_CURVE('',#271,#277,#23,.T.);
#208=EDGE_CURVE('',#279,#280,#322,.T.);
#209=EDGE_CURVE('',#276,#280,#323,.T.);
#210=EDGE_CURVE('',#279,#275,#324,.T.);
#211=EDGE_CURVE('',#281,#282,#325,.T.);
#212=EDGE_CURVE('',#278,#282,#326,.T.);
#213=EDGE_CURVE('',#281,#277,#327,.T.);
#214=EDGE_CURVE('',#282,#279,#24,.T.);
#215=EDGE_CURVE('',#281,#280,#25,.T.);
#216=EDGE_CURVE('',#283,#284,#328,.T.);
#217=EDGE_CURVE('',#285,#284,#329,.T.);
#218=EDGE_CURVE('',#285,#286,#330,.T.);
#219=EDGE_CURVE('',#283,#286,#331,.T.);
#220=EDGE_CURVE('',#287,#288,#332,.T.);
#221=EDGE_CURVE('',#286,#288,#26,.T.);
#222=EDGE_CURVE('',#285,#287,#27,.T.);
#223=EDGE_CURVE('',#289,#290,#333,.T.);
#224=EDGE_CURVE('',#290,#284,#28,.T.);
#225=EDGE_CURVE('',#289,#283,#29,.T.);
#226=EDGE_CURVE('',#290,#287,#334,.T.);
#227=EDGE_CURVE('',#288,#289,#335,.T.);
#228=EDGE_CURVE('',#291,#291,#30,.T.);
#229=EDGE_CURVE('',#292,#292,#31,.T.);
#230=EDGE_CURVE('',#293,#294,#336,.T.);
#231=EDGE_CURVE('',#295,#294,#337,.T.);
#232=EDGE_CURVE('',#295,#296,#338,.T.);
#233=EDGE_CURVE('',#293,#296,#339,.T.);
#234=EDGE_CURVE('',#297,#298,#340,.T.);
#235=EDGE_CURVE('',#296,#298,#32,.T.);
#236=EDGE_CURVE('',#295,#297,#33,.T.);
#237=EDGE_CURVE('',#299,#300,#341,.T.);
#238=EDGE_CURVE('',#300,#294,#34,.T.);
#239=EDGE_CURVE('',#299,#293,#35,.T.);
#240=EDGE_CURVE('',#300,#297,#342,.T.);
#241=EDGE_CURVE('',#298,#299,#343,.T.);
#242=EDGE_CURVE('',#301,#301,#36,.T.);
#243=EDGE_CURVE('',#281,#302,#344,.T.);
#244=EDGE_CURVE('',#277,#303,#345,.T.);
#245=EDGE_CURVE('',#303,#302,#346,.T.);
#246=EDGE_CURVE('',#271,#304,#347,.T.);
#247=EDGE_CURVE('',#304,#303,#37,.T.);
#248=EDGE_CURVE('',#274,#305,#348,.T.);
#249=EDGE_CURVE('',#304,#305,#349,.T.);
#250=EDGE_CURVE('',#276,#306,#350,.T.);
#251=EDGE_CURVE('',#306,#305,#38,.T.);
#252=EDGE_CURVE('',#280,#307,#351,.T.);
#253=EDGE_CURVE('',#307,#306,#352,.T.);
#254=EDGE_CURVE('',#302,#307,#39,.T.);
#255=EDGE_CURVE('',#308,#309,#40,.T.);
#256=EDGE_CURVE('',#309,#310,#353,.T.);
#257=EDGE_CURVE('',#310,#311,#41,.T.);
#258=EDGE_CURVE('',#308,#311,#354,.T.);
#259=EDGE_CURVE('',#312,#313,#355,.T.);
#260=EDGE_CURVE('',#312,#314,#42,.T.);
#261=EDGE_CURVE('',#314,#315,#356,.T.);
#262=EDGE_CURVE('',#315,#313,#43,.T.);
#263=EDGE_CURVE('',#296,#315,#357,.T.);
#264=EDGE_CURVE('',#298,#313,#358,.T.);
#265=EDGE_CURVE('',#299,#312,#359,.T.);
#266=EDGE_CURVE('',#293,#314,#360,.T.);
#267=EDGE_CURVE('',#286,#310,#361,.T.);
#268=EDGE_CURVE('',#288,#311,#362,.T.);
#269=EDGE_CURVE('',#289,#308,#363,.T.);
#270=EDGE_CURVE('',#283,#309,#364,.T.);
#271=VERTEX_POINT('',#792);
#272=VERTEX_POINT('',#793);
#273=VERTEX_POINT('',#795);
#274=VERTEX_POINT('',#797);
#275=VERTEX_POINT('',#801);
#276=VERTEX_POINT('',#802);
#277=VERTEX_POINT('',#807);
#278=VERTEX_POINT('',#808);
#279=VERTEX_POINT('',#813);
#280=VERTEX_POINT('',#814);
#281=VERTEX_POINT('',#819);
#282=VERTEX_POINT('',#820);
#283=VERTEX_POINT('',#828);
#284=VERTEX_POINT('',#829);
#285=VERTEX_POINT('',#831);
#286=VERTEX_POINT('',#833);
#287=VERTEX_POINT('',#837);
#288=VERTEX_POINT('',#838);
#289=VERTEX_POINT('',#843);
#290=VERTEX_POINT('',#844);
#291=VERTEX_POINT('',#852);
#292=VERTEX_POINT('',#854);
#293=VERTEX_POINT('',#857);
#294=VERTEX_POINT('',#858);
#295=VERTEX_POINT('',#860);
#296=VERTEX_POINT('',#862);
#297=VERTEX_POINT('',#866);
#298=VERTEX_POINT('',#867);
#299=VERTEX_POINT('',#872);
#300=VERTEX_POINT('',#873);
#301=VERTEX_POINT('',#884);
#302=VERTEX_POINT('',#888);
#303=VERTEX_POINT('',#890);
#304=VERTEX_POINT('',#894);
#305=VERTEX_POINT('',#898);
#306=VERTEX_POINT('',#902);
#307=VERTEX_POINT('',#906);
#308=VERTEX_POINT('',#912);
#309=VERTEX_POINT('',#913);
#310=VERTEX_POINT('',#915);
#311=VERTEX_POINT('',#917);
#312=VERTEX_POINT('',#920);
#313=VERTEX_POINT('',#921);
#314=VERTEX_POINT('',#923);
#315=VERTEX_POINT('',#925);
#316=LINE('',#791,#365);
#317=LINE('',#794,#366);
#318=LINE('',#796,#367);
#319=LINE('',#798,#368);
#320=LINE('',#800,#369);
#321=LINE('',#806,#370);
#322=LINE('',#812,#371);
#323=LINE('',#815,#372);
#324=LINE('',#816,#373);
#325=LINE('',#818,#374);
#326=LINE('',#821,#375);
#327=LINE('',#822,#376);
#328=LINE('',#827,#377);
#329=LINE('',#830,#378);
#330=LINE('',#832,#379);
#331=LINE('',#834,#380);
#332=LINE('',#836,#381);
#333=LINE('',#842,#382);
#334=LINE('',#848,#383);
#335=LINE('',#849,#384);
#336=LINE('',#856,#385);
#337=LINE('',#859,#386);
#338=LINE('',#861,#387);
#339=LINE('',#863,#388);
#340=LINE('',#865,#389);
#341=LINE('',#871,#390);
#342=LINE('',#877,#391);
#343=LINE('',#878,#392);
#344=LINE('',#887,#393);
#345=LINE('',#889,#394);
#346=LINE('',#891,#395);
#347=LINE('',#893,#396);
#348=LINE('',#897,#397);
#349=LINE('',#899,#398);
#350=LINE('',#901,#399);
#351=LINE('',#905,#400);
#352=LINE('',#907,#401);
#353=LINE('',#914,#402);
#354=LINE('',#918,#403);
#355=LINE('',#919,#404);
#356=LINE('',#924,#405);
#357=LINE('',#928,#406);
#358=LINE('',#929,#407);
#359=LINE('',#931,#408);
#360=LINE('',#932,#409);
#361=LINE('',#934,#410);
#362=LINE('',#935,#411);
#363=LINE('',#937,#412);
#364=LINE('',#938,#413);
#365=VECTOR('',#624,1.);
#366=VECTOR('',#625,1.);
#367=VECTOR('',#626,1.);
#368=VECTOR('',#627,1.);
#369=VECTOR('',#630,1.);
#370=VECTOR('',#637,1.);
#371=VECTOR('',#644,1.);
#372=VECTOR('',#645,1.);
#373=VECTOR('',#646,1.);
#374=VECTOR('',#649,1.);
#375=VECTOR('',#650,1.);
#376=VECTOR('',#651,1.);
#377=VECTOR('',#660,1.);
#378=VECTOR('',#661,1.);
#379=VECTOR('',#662,1.);
#380=VECTOR('',#663,1.);
#381=VECTOR('',#666,1.);
#382=VECTOR('',#673,1.);
#383=VECTOR('',#680,1.);
#384=VECTOR('',#681,1.);
#385=VECTOR('',#690,1.);
#386=VECTOR('',#691,1.);
#387=VECTOR('',#692,1.);
#388=VECTOR('',#693,1.);
#389=VECTOR('',#696,1.);
#390=VECTOR('',#703,1.);
#391=VECTOR('',#710,1.);
#392=VECTOR('',#711,1.);
#393=VECTOR('',#726,1.);
#394=VECTOR('',#727,1.);
#395=VECTOR('',#728,1.);
#396=VECTOR('',#731,1.);
#397=VECTOR('',#736,1.);
#398=VECTOR('',#737,1.);
#399=VECTOR('',#740,1.);
#400=VECTOR('',#745,1.);
#401=VECTOR('',#746,1.);
#402=VECTOR('',#755,1.);
#403=VECTOR('',#758,1.);
#404=VECTOR('',#759,1.);
#405=VECTOR('',#762,1.);
#406=VECTOR('',#767,1.);
#407=VECTOR('',#768,1.);
#408=VECTOR('',#771,1.);
#409=VECTOR('',#772,1.);
#410=VECTOR('',#775,1.);
#411=VECTOR('',#776,1.);
#412=VECTOR('',#779,1.);
#413=VECTOR('',#780,1.);
#414=EDGE_LOOP('',(#52,#53,#54,#55));
#415=EDGE_LOOP('',(#56,#57,#58,#59));
#416=EDGE_LOOP('',(#60,#61,#62,#63));
#417=EDGE_LOOP('',(#64,#65,#66,#67));
#418=EDGE_LOOP('',(#68,#69,#70,#71));
#419=EDGE_LOOP('',(#72,#73,#74,#75));
#420=EDGE_LOOP('',(#76,#77,#78,#79));
#421=EDGE_LOOP('',(#80,#81,#82,#83));
#422=EDGE_LOOP('',(#84,#85,#86,#87));
#423=EDGE_LOOP('',(#88,#89,#90,#91));
#424=EDGE_LOOP('',(#92));
#425=EDGE_LOOP('',(#93));
#426=EDGE_LOOP('',(#94,#95,#96,#97));
#427=EDGE_LOOP('',(#98,#99,#100,#101));
#428=EDGE_LOOP('',(#102,#103,#104,#105));
#429=EDGE_LOOP('',(#106,#107,#108,#109));
#430=EDGE_LOOP('',(#110,#111,#112,#113));
#431=EDGE_LOOP('',(#114,#115,#116,#117));
#432=EDGE_LOOP('',(#118));
#433=EDGE_LOOP('',(#119));
#434=EDGE_LOOP('',(#120));
#435=EDGE_LOOP('',(#121,#122,#123,#124,#125,#126));
#436=EDGE_LOOP('',(#127,#128,#129,#130));
#437=EDGE_LOOP('',(#131,#132,#133,#134));
#438=EDGE_LOOP('',(#135,#136,#137,#138));
#439=EDGE_LOOP('',(#139,#140,#141,#142));
#440=EDGE_LOOP('',(#143,#144,#145,#146));
#441=EDGE_LOOP('',(#147,#148,#149,#150));
#442=EDGE_LOOP('',(#151,#152,#153,#154));
#443=EDGE_LOOP('',(#155));
#444=EDGE_LOOP('',(#156,#157,#158,#159,#160,#161));
#445=EDGE_LOOP('',(#162,#163,#164,#165));
#446=EDGE_LOOP('',(#166,#167,#168,#169));
#447=EDGE_LOOP('',(#170,#171,#172,#173));
#448=EDGE_LOOP('',(#174,#175,#176,#177));
#449=EDGE_LOOP('',(#178,#179,#180,#181));
#450=EDGE_LOOP('',(#182,#183,#184,#185));
#451=EDGE_LOOP('',(#186,#187,#188,#189));
#452=EDGE_LOOP('',(#190,#191,#192,#193));
#453=EDGE_LOOP('',(#194,#195,#196,#197));
#454=FACE_BOUND('',#414,.T.);
#455=FACE_BOUND('',#415,.T.);
#456=FACE_BOUND('',#416,.T.);
#457=FACE_BOUND('',#417,.T.);
#458=FACE_BOUND('',#418,.T.);
#459=FACE_BOUND('',#419,.T.);
#460=FACE_BOUND('',#420,.T.);
#461=FACE_BOUND('',#421,.T.);
#462=FACE_BOUND('',#422,.T.);
#463=FACE_BOUND('',#423,.T.);
#464=FACE_BOUND('',#424,.T.);
#465=FACE_BOUND('',#425,.T.);
#466=FACE_BOUND('',#426,.T.);
#467=FACE_BOUND('',#427,.T.);
#468=FACE_BOUND('',#428,.T.);
#469=FACE_BOUND('',#429,.T.);
#470=FACE_BOUND('',#430,.T.);
#471=FACE_BOUND('',#431,.T.);
#472=FACE_BOUND('',#432,.T.);
#473=FACE_BOUND('',#433,.T.);
#474=FACE_BOUND('',#434,.T.);
#475=FACE_BOUND('',#435,.T.);
#476=FACE_BOUND('',#436,.T.);
#477=FACE_BOUND('',#437,.T.);
#478=FACE_BOUND('',#438,.T.);
#479=FACE_BOUND('',#439,.T.);
#480=FACE_BOUND('',#440,.T.);
#481=FACE_BOUND('',#441,.T.);
#482=FACE_BOUND('',#442,.T.);
#483=FACE_BOUND('',#443,.T.);
#484=FACE_BOUND('',#444,.T.);
#485=FACE_BOUND('',#445,.T.);
#486=FACE_BOUND('',#446,.T.);
#487=FACE_BOUND('',#447,.T.);
#488=FACE_BOUND('',#448,.T.);
#489=FACE_BOUND('',#449,.T.);
#490=FACE_BOUND('',#450,.T.);
#491=FACE_BOUND('',#451,.T.);
#492=FACE_BOUND('',#452,.T.);
#493=FACE_BOUND('',#453,.T.);
#494=PLANE('',#561);
#495=PLANE('',#568);
#496=PLANE('',#569);
#497=PLANE('',#573);
#498=PLANE('',#580);
#499=PLANE('',#584);
#500=PLANE('',#591);
#501=PLANE('',#592);
#502=PLANE('',#593);
#503=PLANE('',#594);
#504=PLANE('',#597);
#505=PLANE('',#598);
#506=PLANE('',#601);
#507=PLANE('',#604);
#508=PLANE('',#607);
#509=PLANE('',#616);
#510=PLANE('',#617);
#511=PLANE('',#618);
#512=PLANE('',#619);
#513=ADVANCED_FACE('',(#454),#494,.F.);
#514=ADVANCED_FACE('',(#455),#44,.T.);
#515=ADVANCED_FACE('',(#456),#45,.T.);
#516=ADVANCED_FACE('',(#457),#495,.T.);
#517=ADVANCED_FACE('',(#458),#496,.T.);
#518=ADVANCED_FACE('',(#459),#46,.T.);
#519=ADVANCED_FACE('',(#460),#497,.T.);
#520=ADVANCED_FACE('',(#461),#47,.T.);
#521=ADVANCED_FACE('',(#462),#48,.T.);
#522=ADVANCED_FACE('',(#463),#498,.F.);
#523=ADVANCED_FACE('',(#464,#465),#49,.T.);
#524=ADVANCED_FACE('',(#466),#499,.T.);
#525=ADVANCED_FACE('',(#467),#50,.T.);
#526=ADVANCED_FACE('',(#468),#51,.T.);
#527=ADVANCED_FACE('',(#469),#500,.F.);
#528=ADVANCED_FACE('',(#470),#501,.F.);
#529=ADVANCED_FACE('',(#471),#502,.F.);
#530=ADVANCED_FACE('',(#472),#503,.F.);
#531=ADVANCED_FACE('',(#473,#474),#12,.T.);
#532=ADVANCED_FACE('',(#475),#504,.T.);
#533=ADVANCED_FACE('',(#476),#505,.F.);
#534=ADVANCED_FACE('',(#477),#13,.T.);
#535=ADVANCED_FACE('',(#478),#506,.T.);
#536=ADVANCED_FACE('',(#479),#14,.T.);
#537=ADVANCED_FACE('',(#480),#507,.F.);
#538=ADVANCED_FACE('',(#481),#15,.T.);
#539=ADVANCED_FACE('',(#482,#483,#484,#485),#508,.F.);
#540=ADVANCED_FACE('',(#486),#16,.T.);
#541=ADVANCED_FACE('',(#487),#17,.T.);
#542=ADVANCED_FACE('',(#488),#18,.T.);
#543=ADVANCED_FACE('',(#489),#19,.T.);
#544=ADVANCED_FACE('',(#490),#509,.T.);
#545=ADVANCED_FACE('',(#491),#510,.F.);
#546=ADVANCED_FACE('',(#492),#511,.F.);
#547=ADVANCED_FACE('',(#493),#512,.T.);
#548=CLOSED_SHELL('',(#513,#514,#515,#516,#517,#518,#519,#520,#521,#522,
#523,#524,#525,#526,#527,#528,#529,#530,#531,#532,#533,#534,#535,#536,#537,
#538,#539,#540,#541,#542,#543,#544,#545,#546,#547));
#549=STYLED_ITEM('',(#550),#557);
#550=PRESENTATION_STYLE_ASSIGNMENT((#551));
#551=SURFACE_STYLE_USAGE(.BOTH.,#552);
#552=SURFACE_SIDE_STYLE('',(#553));
#553=SURFACE_STYLE_FILL_AREA(#554);
#554=FILL_AREA_STYLE('',(#555));
#555=FILL_AREA_STYLE_COLOUR('',#556);
#556=COLOUR_RGB('',0.8,0.0470588235294118,0.384313725490196);
#557=MANIFOLD_SOLID_BREP('Logo_Detail',#548);
#558=SHAPE_DEFINITION_REPRESENTATION(#949,#559);
#559=SHAPE_REPRESENTATION('Logo_Detail',(#560),#944);
#560=AXIS2_PLACEMENT_3D('',#789,#620,#621);
#561=AXIS2_PLACEMENT_3D('',#790,#622,#623);
#562=AXIS2_PLACEMENT_3D('',#799,#628,#629);
#563=AXIS2_PLACEMENT_3D('',#803,#631,#632);
#564=AXIS2_PLACEMENT_3D('',#804,#633,#634);
#565=AXIS2_PLACEMENT_3D('',#805,#635,#636);
#566=AXIS2_PLACEMENT_3D('',#809,#638,#639);
#567=AXIS2_PLACEMENT_3D('',#810,#640,#641);
#568=AXIS2_PLACEMENT_3D('',#811,#642,#643);
#569=AXIS2_PLACEMENT_3D('',#817,#647,#648);
#570=AXIS2_PLACEMENT_3D('',#823,#652,#653);
#571=AXIS2_PLACEMENT_3D('',#824,#654,#655);
#572=AXIS2_PLACEMENT_3D('',#825,#656,#657);
#573=AXIS2_PLACEMENT_3D('',#826,#658,#659);
#574=AXIS2_PLACEMENT_3D('',#835,#664,#665);
#575=AXIS2_PLACEMENT_3D('',#839,#667,#668);
#576=AXIS2_PLACEMENT_3D('',#840,#669,#670);
#577=AXIS2_PLACEMENT_3D('',#841,#671,#672);
#578=AXIS2_PLACEMENT_3D('',#845,#674,#675);
#579=AXIS2_PLACEMENT_3D('',#846,#676,#677);
#580=AXIS2_PLACEMENT_3D('',#847,#678,#679);
#581=AXIS2_PLACEMENT_3D('',#850,#682,#683);
#582=AXIS2_PLACEMENT_3D('',#851,#684,#685);
#583=AXIS2_PLACEMENT_3D('',#853,#686,#687);
#584=AXIS2_PLACEMENT_3D('',#855,#688,#689);
#585=AXIS2_PLACEMENT_3D('',#864,#694,#695);
#586=AXIS2_PLACEMENT_3D('',#868,#697,#698);
#587=AXIS2_PLACEMENT_3D('',#869,#699,#700);
#588=AXIS2_PLACEMENT_3D('',#870,#701,#702);
#589=AXIS2_PLACEMENT_3D('',#874,#704,#705);
#590=AXIS2_PLACEMENT_3D('',#875,#706,#707);
#591=AXIS2_PLACEMENT_3D('',#876,#708,#709);
#592=AXIS2_PLACEMENT_3D('',#879,#712,#713);
#593=AXIS2_PLACEMENT_3D('',#880,#714,#715);
#594=AXIS2_PLACEMENT_3D('',#881,#716,#717);
#595=AXIS2_PLACEMENT_3D('',#882,#718,#719);
#596=AXIS2_PLACEMENT_3D('',#883,#720,#721);
#597=AXIS2_PLACEMENT_3D('',#885,#722,#723);
#598=AXIS2_PLACEMENT_3D('',#886,#724,#725);
#599=AXIS2_PLACEMENT_3D('',#892,#729,#730);
#600=AXIS2_PLACEMENT_3D('',#895,#732,#733);
#601=AXIS2_PLACEMENT_3D('',#896,#734,#735);
#602=AXIS2_PLACEMENT_3D('',#900,#738,#739);
#603=AXIS2_PLACEMENT_3D('',#903,#741,#742);
#604=AXIS2_PLACEMENT_3D('',#904,#743,#744);
#605=AXIS2_PLACEMENT_3D('',#908,#747,#748);
#606=AXIS2_PLACEMENT_3D('',#909,#749,#750);
#607=AXIS2_PLACEMENT_3D('',#910,#751,#752);
#608=AXIS2_PLACEMENT_3D('',#911,#753,#754);
#609=AXIS2_PLACEMENT_3D('',#916,#756,#757);
#610=AXIS2_PLACEMENT_3D('',#922,#760,#761);
#611=AXIS2_PLACEMENT_3D('',#926,#763,#764);
#612=AXIS2_PLACEMENT_3D('',#927,#765,#766);
#613=AXIS2_PLACEMENT_3D('',#930,#769,#770);
#614=AXIS2_PLACEMENT_3D('',#933,#773,#774);
#615=AXIS2_PLACEMENT_3D('',#936,#777,#778);
#616=AXIS2_PLACEMENT_3D('',#939,#781,#782);
#617=AXIS2_PLACEMENT_3D('',#940,#783,#784);
#618=AXIS2_PLACEMENT_3D('',#941,#785,#786);
#619=AXIS2_PLACEMENT_3D('',#942,#787,#788);
#620=DIRECTION('',(0.,0.,1.));
#621=DIRECTION('',(1.,0.,0.));
#622=DIRECTION('',(0.707106781186551,0.632455532033673,-0.316227766016836));
#623=DIRECTION('',(0.,-0.447213595499958,-0.894427190999916));
#624=DIRECTION('',(-0.707106781186544,0.632455532033679,-0.316227766016839));
#625=DIRECTION('',(0.,0.447213595499958,0.894427190999916));
#626=DIRECTION('',(0.70710678118655,-0.632455532033671,0.316227766016842));
#627=DIRECTION('',(0.,-0.447213595499958,-0.894427190999916));
#628=DIRECTION('',(1.,0.,0.));
#629=DIRECTION('',(0.,0.,-1.));
#630=DIRECTION('',(0.707106781186554,0.,-0.707106781186541));
#631=DIRECTION('',(-1.,0.,0.));
#632=DIRECTION('',(0.,0.,1.));
#633=DIRECTION('',(-1.,0.,0.));
#634=DIRECTION('',(0.,0.,1.));
#635=DIRECTION('',(1.,0.,0.));
#636=DIRECTION('',(0.,0.,-1.));
#637=DIRECTION('',(-0.707106781186553,-0.632455532033669,-0.31622776601684));
#638=DIRECTION('',(-1.,0.,0.));
#639=DIRECTION('',(0.,0.,1.));
#640=DIRECTION('',(-1.,0.,0.));
#641=DIRECTION('',(0.,0.,1.));
#642=DIRECTION('',(-0.707106781186548,0.,-0.707106781186548));
#643=DIRECTION('',(0.,1.,0.));
#644=DIRECTION('',(0.707106781186548,0.,-0.707106781186548));
#645=DIRECTION('',(0.,1.,0.));
#646=DIRECTION('',(0.,-1.,0.));
#647=DIRECTION('',(-0.707106781186541,0.632455532033681,0.316227766016841));
#648=DIRECTION('',(0.,-0.447213595499958,0.894427190999916));
#649=DIRECTION('',(-0.707106781186544,-0.632455532033679,-0.316227766016839));
#650=DIRECTION('',(0.,0.447213595499958,-0.894427190999916));
#651=DIRECTION('',(0.,-0.447213595499958,0.894427190999916));
#652=DIRECTION('',(1.,0.,0.));
#653=DIRECTION('',(0.,0.,-1.));
#654=DIRECTION('',(-1.,0.,0.));
#655=DIRECTION('',(0.,0.,1.));
#656=DIRECTION('',(-1.,0.,0.));
#657=DIRECTION('',(0.,0.,1.));
#658=DIRECTION('',(0.707106781186542,0.632455532033681,-0.31622776601684));
#659=DIRECTION('',(0.,0.447213595499958,0.894427190999916));
#660=DIRECTION('',(0.707106781186548,-0.632455532033678,0.316227766016833));
#661=DIRECTION('',(0.,0.447213595499958,0.894427190999916));
#662=DIRECTION('',(-0.707106781186545,0.632455532033676,-0.316227766016844));
#663=DIRECTION('',(0.,-0.447213595499958,-0.894427190999916));
#664=DIRECTION('',(-1.,0.,0.));
#665=DIRECTION('',(0.,0.,1.));
#666=DIRECTION('',(-0.707106781186551,-0.632455532033681,0.316227766016822));
#667=DIRECTION('',(-1.,0.,0.));
#668=DIRECTION('',(0.,0.,1.));
#669=DIRECTION('',(-1.,0.,0.));
#670=DIRECTION('',(0.,0.,1.));
#671=DIRECTION('',(-1.,0.,0.));
#672=DIRECTION('',(0.,0.,1.));
#673=DIRECTION('',(0.707106781186548,0.632455532033678,-0.316227766016833));
#674=DIRECTION('',(-1.,0.,0.));
#675=DIRECTION('',(0.,0.,1.));
#676=DIRECTION('',(-1.,0.,0.));
#677=DIRECTION('',(0.,0.,1.));
#678=DIRECTION('',(-0.707106781186546,0.632455532033677,-0.316227766016838));
#679=DIRECTION('',(0.,-0.447213595499958,-0.894427190999916));
#680=DIRECTION('',(0.,-0.447213595499958,-0.894427190999916));
#681=DIRECTION('',(0.,0.447213595499958,0.894427190999916));
#682=DIRECTION('',(-1.,0.,0.));
#683=DIRECTION('',(0.,0.,1.));
#684=DIRECTION('',(-1.,0.,0.));
#685=DIRECTION('',(0.,0.,1.));
#686=DIRECTION('',(-1.,0.,0.));
#687=DIRECTION('',(0.,0.,1.));
#688=DIRECTION('',(0.707106781186514,0.632455532033706,-0.316227766016853));
#689=DIRECTION('',(0.,0.447213595499958,0.894427190999916));
#690=DIRECTION('',(0.707106781186575,-0.632455532033654,0.316227766016821));
#691=DIRECTION('',(0.,0.447213595499958,0.894427190999916));
#692=DIRECTION('',(-0.707106781186575,0.632455532033654,-0.316227766016821));
#693=DIRECTION('',(0.,-0.447213595499958,-0.894427190999916));
#694=DIRECTION('',(-1.,0.,0.));
#695=DIRECTION('',(0.,0.,1.));
#696=DIRECTION('',(-0.70710678118657,-0.632455532033661,0.316227766016818));
#697=DIRECTION('',(-1.,0.,0.));
#698=DIRECTION('',(0.,0.,1.));
#699=DIRECTION('',(-1.,0.,0.));
#700=DIRECTION('',(0.,0.,1.));
#701=DIRECTION('',(-1.,0.,0.));
#702=DIRECTION('',(0.,0.,1.));
#703=DIRECTION('',(0.707106781186567,0.632455532033658,-0.316227766016829));
#704=DIRECTION('',(-1.,0.,0.));
#705=DIRECTION('',(0.,0.,1.));
#706=DIRECTION('',(-1.,0.,0.));
#707=DIRECTION('',(0.,0.,1.));
#708=DIRECTION('',(-0.707106781186524,0.632455532033697,-0.316227766016849));
#709=DIRECTION('',(0.,-0.447213595499958,-0.894427190999916));
#710=DIRECTION('',(0.,-0.447213595499958,-0.894427190999916));
#711=DIRECTION('',(0.,0.447213595499958,0.894427190999916));
#712=DIRECTION('',(-1.,0.,0.));
#713=DIRECTION('',(0.,-1.,0.));
#714=DIRECTION('',(-1.,0.,0.));
#715=DIRECTION('',(0.,-1.,0.));
#716=DIRECTION('',(-1.,0.,0.));
#717=DIRECTION('',(0.,-1.,0.));
#718=DIRECTION('',(-1.,0.,0.));
#719=DIRECTION('',(0.,0.,1.));
#720=DIRECTION('',(-1.,0.,0.));
#721=DIRECTION('',(0.,0.,1.));
#722=DIRECTION('',(-1.,0.,0.));
#723=DIRECTION('',(0.,-1.,0.));
#724=DIRECTION('',(0.,-0.894427190999916,-0.447213595499958));
#725=DIRECTION('',(0.,0.447213595499958,-0.894427190999916));
#726=DIRECTION('',(1.,0.,0.));
#727=DIRECTION('',(1.,0.,0.));
#728=DIRECTION('',(0.,0.447213595499958,-0.894427190999916));
#729=DIRECTION('',(1.,0.,0.));
#730=DIRECTION('',(0.,0.,-1.));
#731=DIRECTION('',(1.,0.,0.));
#732=DIRECTION('',(-1.,0.,0.));
#733=DIRECTION('',(0.,0.,1.));
#734=DIRECTION('',(0.,-0.894427190999916,0.447213595499958));
#735=DIRECTION('',(0.,-0.447213595499958,-0.894427190999916));
#736=DIRECTION('',(1.,0.,0.));
#737=DIRECTION('',(0.,-0.447213595499958,-0.894427190999916));
#738=DIRECTION('',(1.,0.,0.));
#739=DIRECTION('',(0.,0.,-1.));
#740=DIRECTION('',(1.,0.,0.));
#741=DIRECTION('',(-1.,0.,0.));
#742=DIRECTION('',(0.,0.,1.));
#743=DIRECTION('',(0.,0.,1.));
#744=DIRECTION('',(1.,0.,0.));
#745=DIRECTION('',(1.,0.,0.));
#746=DIRECTION('',(0.,-1.,0.));
#747=DIRECTION('',(1.,0.,0.));
#748=DIRECTION('',(0.,0.,-1.));
#749=DIRECTION('',(-1.,0.,0.));
#750=DIRECTION('',(0.,0.,1.));
#751=DIRECTION('',(-1.,0.,0.));
#752=DIRECTION('',(0.,-1.,0.));
#753=DIRECTION('',(-1.,0.,0.));
#754=DIRECTION('',(0.,0.,1.));
#755=DIRECTION('',(0.,-0.447213595499958,-0.894427190999916));
#756=DIRECTION('',(-1.,0.,0.));
#757=DIRECTION('',(0.,0.,1.));
#758=DIRECTION('',(0.,-0.447213595499958,-0.894427190999916));
#759=DIRECTION('',(0.,-0.447213595499958,-0.894427190999916));
#760=DIRECTION('',(-1.,0.,0.));
#761=DIRECTION('',(0.,0.,1.));
#762=DIRECTION('',(0.,-0.447213595499958,-0.894427190999916));
#763=DIRECTION('',(-1.,0.,0.));
#764=DIRECTION('',(0.,0.,1.));
#765=DIRECTION('',(-1.,0.,0.));
#766=DIRECTION('',(0.,0.,1.));
#767=DIRECTION('',(-1.,0.,0.));
#768=DIRECTION('',(-1.,0.,0.));
#769=DIRECTION('',(-1.,0.,0.));
#770=DIRECTION('',(0.,0.,1.));
#771=DIRECTION('',(-1.,0.,0.));
#772=DIRECTION('',(-1.,0.,0.));
#773=DIRECTION('',(-1.,0.,0.));
#774=DIRECTION('',(0.,0.,1.));
#775=DIRECTION('',(-1.,0.,0.));
#776=DIRECTION('',(-1.,0.,0.));
#777=DIRECTION('',(-1.,0.,0.));
#778=DIRECTION('',(0.,0.,1.));
#779=DIRECTION('',(-1.,0.,0.));
#780=DIRECTION('',(-1.,0.,0.));
#781=DIRECTION('',(0.,0.894427190999916,-0.447213595499958));
#782=DIRECTION('',(0.,0.447213595499958,0.894427190999916));
#783=DIRECTION('',(0.,0.894427190999916,-0.447213595499958));
#784=DIRECTION('',(0.,0.447213595499958,0.894427190999916));
#785=DIRECTION('',(0.,0.894427190999916,-0.447213595499958));
#786=DIRECTION('',(0.,0.447213595499958,0.894427190999916));
#787=DIRECTION('',(0.,0.894427190999916,-0.447213595499958));
#788=DIRECTION('',(0.,0.447213595499958,0.894427190999916));
#789=CARTESIAN_POINT('',(0.,0.,0.));
#790=CARTESIAN_POINT('',(-0.0126,0.0454778640470004,-0.0434639320245002));
#791=CARTESIAN_POINT('',(-0.0126,0.0492278640470004,-0.0359639320245002));
#792=CARTESIAN_POINT('',(-0.0126,0.0492278640470004,-0.0359639320245002));
#793=CARTESIAN_POINT('',(-0.013,0.0495856349234004,-0.0361428174627002));
#794=CARTESIAN_POINT('',(-0.013,0.0642256349238004,-0.00686281746190029));
#795=CARTESIAN_POINT('',(-0.013,0.0420856349234004,-0.0511428174627002));
#796=CARTESIAN_POINT('',(-0.013,0.0420856349234004,-0.0511428174627002));
#797=CARTESIAN_POINT('',(-0.0126,0.0417278640470005,-0.0509639320245002));
#798=CARTESIAN_POINT('',(-0.0126,0.0454778640470004,-0.0434639320245002));
#799=CARTESIAN_POINT('',(-0.013,0.046200000002,-0.053200000002));
#800=CARTESIAN_POINT('',(-0.013,0.046200000002,-0.057800000002));
#801=CARTESIAN_POINT('',(-0.013,0.046200000002,-0.057800000002));
#802=CARTESIAN_POINT('',(-0.0126,0.046200000002,-0.058200000002));
#803=CARTESIAN_POINT('',(-0.0126,0.046200000002,-0.053200000002));
#804=CARTESIAN_POINT('',(-0.013,0.046200000002,-0.053200000002));
#805=CARTESIAN_POINT('',(-0.013,0.053700000002,-0.038200000002));
#806=CARTESIAN_POINT('',(-0.0126,0.0581721359569996,-0.0359639320245002));
#807=CARTESIAN_POINT('',(-0.0126,0.0581721359569996,-0.0359639320245002));
#808=CARTESIAN_POINT('',(-0.013,0.0578143650805996,-0.0361428174627002));
#809=CARTESIAN_POINT('',(-0.013,0.053700000002,-0.038200000002));
#810=CARTESIAN_POINT('',(-0.0126,0.053700000002,-0.038200000002));
#811=CARTESIAN_POINT('',(-0.013,0.0105,-0.057800000002));
#812=CARTESIAN_POINT('',(-0.013,0.061200000002,-0.057800000002));
#813=CARTESIAN_POINT('',(-0.013,0.061200000002,-0.057800000002));
#814=CARTESIAN_POINT('',(-0.0126,0.061200000002,-0.058200000002));
#815=CARTESIAN_POINT('',(-0.0126,0.061200000002,-0.058200000002));
#816=CARTESIAN_POINT('',(-0.013,0.046200000002,-0.057800000002));
#817=CARTESIAN_POINT('',(-0.013,0.0258943650793996,0.0276971825396998));
#818=CARTESIAN_POINT('',(-0.0126,0.0656721359569996,-0.0509639320245002));
#819=CARTESIAN_POINT('',(-0.0126,0.0656721359569996,-0.0509639320245002));
#820=CARTESIAN_POINT('',(-0.013,0.0653143650805996,-0.0511428174627002));
#821=CARTESIAN_POINT('',(-0.013,0.0653143650805996,-0.0511428174627002));
#822=CARTESIAN_POINT('',(-0.0126,0.0581721359569996,-0.0359639320245002));
#823=CARTESIAN_POINT('',(-0.013,0.061200000002,-0.053200000002));
#824=CARTESIAN_POINT('',(-0.013,0.061200000002,-0.053200000002));
#825=CARTESIAN_POINT('',(-0.0126,0.061200000002,-0.053200000002));
#826=CARTESIAN_POINT('',(-0.01,0.0704687367169798,-0.0249843683584899));
#827=CARTESIAN_POINT('',(-0.01,0.0595787367165798,-0.0467643683592899));
#828=CARTESIAN_POINT('',(-0.01,0.0595787367165798,-0.0467643683592899));
#829=CARTESIAN_POINT('',(-0.0096,0.0592209658401798,-0.0465854829210899));
#830=CARTESIAN_POINT('',(-0.0096,0.0592209658401798,-0.0465854829210899));
#831=CARTESIAN_POINT('',(-0.0096,0.0554709658401799,-0.0540854829210899));
#832=CARTESIAN_POINT('',(-0.0096,0.0554709658401799,-0.0540854829210899));
#833=CARTESIAN_POINT('',(-0.01,0.0558287367165799,-0.0542643683592899));
#834=CARTESIAN_POINT('',(-0.01,0.0558287367165798,-0.0542643683592899));
#835=CARTESIAN_POINT('',(-0.0096,0.0537000000020001,-0.053200000002));
#836=CARTESIAN_POINT('',(-0.0096,0.0519290341638202,-0.05231451708291));
#837=CARTESIAN_POINT('',(-0.0096,0.0519290341638202,-0.05231451708291));
#838=CARTESIAN_POINT('',(-0.01,0.0515712632874203,-0.0521356316447101));
#839=CARTESIAN_POINT('',(-0.01,0.0537000000020001,-0.053200000002));
#840=CARTESIAN_POINT('',(-0.0096,0.0537000000020001,-0.053200000002));
#841=CARTESIAN_POINT('',(-0.0096,0.057450000002,-0.045700000002));
#842=CARTESIAN_POINT('',(-0.01,0.0553212632874202,-0.0446356316447101));
#843=CARTESIAN_POINT('',(-0.01,0.0553212632874202,-0.0446356316447101));
#844=CARTESIAN_POINT('',(-0.0096,0.0556790341638202,-0.0448145170829101));
#845=CARTESIAN_POINT('',(-0.0096,0.057450000002,-0.045700000002));
#846=CARTESIAN_POINT('',(-0.01,0.057450000002,-0.045700000002));
#847=CARTESIAN_POINT('',(-0.0096,0.0725690341642201,-0.0110345170821101));
#848=CARTESIAN_POINT('',(-0.0096,0.0725690341642201,-0.0110345170821101));
#849=CARTESIAN_POINT('',(-0.01,0.0662112632878202,-0.0228556316439101));
#850=CARTESIAN_POINT('',(-0.0096,0.061200000002,-0.053200000002));
#851=CARTESIAN_POINT('',(-0.0096,0.061200000002,-0.053200000002));
#852=CARTESIAN_POINT('',(-0.0096,0.061200000002,-0.051220000002));
#853=CARTESIAN_POINT('',(-0.01,0.061200000002,-0.053200000002));
#854=CARTESIAN_POINT('',(-0.01,0.061200000002,-0.050820000002));
#855=CARTESIAN_POINT('',(-0.01,0.0644687367169798,-0.0219843683584899));
#856=CARTESIAN_POINT('',(-0.01,0.0558287367165798,-0.0392643683592899));
#857=CARTESIAN_POINT('',(-0.01,0.0558287367165798,-0.0392643683592899));
#858=CARTESIAN_POINT('',(-0.0096,0.0554709658401799,-0.03908548292109));
#859=CARTESIAN_POINT('',(-0.0096,0.0554709658401799,-0.03908548292109));
#860=CARTESIAN_POINT('',(-0.0096,0.0479709658401799,-0.0540854829210899));
#861=CARTESIAN_POINT('',(-0.0096,0.0479709658401799,-0.0540854829210899));
#862=CARTESIAN_POINT('',(-0.01,0.0483287367165798,-0.0542643683592899));
#863=CARTESIAN_POINT('',(-0.01,0.0483287367165798,-0.0542643683592899));
#864=CARTESIAN_POINT('',(-0.0096,0.046200000002,-0.053200000002));
#865=CARTESIAN_POINT('',(-0.0096,0.0444290341638201,-0.05231451708291));
#866=CARTESIAN_POINT('',(-0.0096,0.0444290341638201,-0.05231451708291));
#867=CARTESIAN_POINT('',(-0.01,0.0440712632874202,-0.0521356316447101));
#868=CARTESIAN_POINT('',(-0.01,0.046200000002,-0.053200000002));
#869=CARTESIAN_POINT('',(-0.0096,0.046200000002,-0.053200000002));
#870=CARTESIAN_POINT('',(-0.0096,0.053700000002,-0.038200000002));
#871=CARTESIAN_POINT('',(-0.01,0.0515712632874202,-0.0371356316447101));
#872=CARTESIAN_POINT('',(-0.01,0.0515712632874202,-0.0371356316447101));
#873=CARTESIAN_POINT('',(-0.0096,0.0519290341638201,-0.03731451708291));
#874=CARTESIAN_POINT('',(-0.0096,0.053700000002,-0.038200000002));
#875=CARTESIAN_POINT('',(-0.01,0.053700000002,-0.038200000002));
#876=CARTESIAN_POINT('',(-0.0096,0.0665690341642201,-0.00803451708211012));
#877=CARTESIAN_POINT('',(-0.0096,0.0665690341642201,-0.00803451708211012));
#878=CARTESIAN_POINT('',(-0.01,0.0602112632878202,-0.01985563164391));
#879=CARTESIAN_POINT('',(-0.0096,0.0105,0.02));
#880=CARTESIAN_POINT('',(-0.0096,0.0105,0.02));
#881=CARTESIAN_POINT('',(-0.0096,0.0105,0.02));
#882=CARTESIAN_POINT('',(-0.0092,0.061200000002,-0.053200000002));
#883=CARTESIAN_POINT('',(-0.012,0.061200000002,-0.053200000002));
#884=CARTESIAN_POINT('',(-0.012,0.061200000002,-0.050820000002));
#885=CARTESIAN_POINT('',(-0.013,0.0105,0.02));
#886=CARTESIAN_POINT('',(-0.013,0.0619221359569996,-0.0434639320245002));
#887=CARTESIAN_POINT('',(-0.013,0.0656721359569996,-0.0509639320245002));
#888=CARTESIAN_POINT('',(-0.012,0.0656721359569996,-0.0509639320245002));
#889=CARTESIAN_POINT('',(-0.013,0.0581721359569996,-0.0359639320245002));
#890=CARTESIAN_POINT('',(-0.012,0.0581721359569996,-0.0359639320245002));
#891=CARTESIAN_POINT('',(-0.012,0.0619221359569996,-0.0434639320245002));
#892=CARTESIAN_POINT('',(-0.013,0.053700000002,-0.038200000002));
#893=CARTESIAN_POINT('',(-0.013,0.0492278640470004,-0.0359639320245002));
#894=CARTESIAN_POINT('',(-0.012,0.0492278640470004,-0.0359639320245002));
#895=CARTESIAN_POINT('',(-0.012,0.053700000002,-0.038200000002));
#896=CARTESIAN_POINT('',(-0.013,0.0454778640470004,-0.0434639320245002));
#897=CARTESIAN_POINT('',(-0.013,0.0417278640470005,-0.0509639320245002));
#898=CARTESIAN_POINT('',(-0.012,0.0417278640470005,-0.0509639320245002));
#899=CARTESIAN_POINT('',(-0.012,0.0454778640470004,-0.0434639320245002));
#900=CARTESIAN_POINT('',(-0.013,0.046200000002,-0.053200000002));
#901=CARTESIAN_POINT('',(-0.013,0.046200000002,-0.058200000002));
#902=CARTESIAN_POINT('',(-0.012,0.046200000002,-0.058200000002));
#903=CARTESIAN_POINT('',(-0.012,0.046200000002,-0.053200000002));
#904=CARTESIAN_POINT('',(-0.013,0.053700000002,-0.058200000002));
#905=CARTESIAN_POINT('',(-0.013,0.061200000002,-0.058200000002));
#906=CARTESIAN_POINT('',(-0.012,0.061200000002,-0.058200000002));
#907=CARTESIAN_POINT('',(-0.012,0.053700000002,-0.058200000002));
#908=CARTESIAN_POINT('',(-0.013,0.061200000002,-0.053200000002));
#909=CARTESIAN_POINT('',(-0.012,0.061200000002,-0.053200000002));
#910=CARTESIAN_POINT('',(-0.012,0.0105,0.02));
#911=CARTESIAN_POINT('',(-0.012,0.057450000002,-0.045700000002));
#912=CARTESIAN_POINT('',(-0.012,0.0553212632874202,-0.0446356316447102));
#913=CARTESIAN_POINT('',(-0.012,0.0595787367165798,-0.0467643683592899));
#914=CARTESIAN_POINT('',(-0.012,0.0764687367169798,-0.01298436835849));
#915=CARTESIAN_POINT('',(-0.012,0.0558287367165798,-0.0542643683592899));
#916=CARTESIAN_POINT('',(-0.012,0.0537000000020001,-0.053200000002));
#917=CARTESIAN_POINT('',(-0.012,0.0515712632874203,-0.0521356316447101));
#918=CARTESIAN_POINT('',(-0.012,0.0722112632878202,-0.0108556316439102));
#919=CARTESIAN_POINT('',(-0.012,0.0662112632878201,-0.00785563164391015));
#920=CARTESIAN_POINT('',(-0.012,0.0515712632874202,-0.0371356316447101));
#921=CARTESIAN_POINT('',(-0.012,0.0440712632874202,-0.0521356316447101));
#922=CARTESIAN_POINT('',(-0.012,0.053700000002,-0.038200000002));
#923=CARTESIAN_POINT('',(-0.012,0.0558287367165798,-0.0392643683592899));
#924=CARTESIAN_POINT('',(-0.012,0.0704687367169798,-0.00998436835848998));
#925=CARTESIAN_POINT('',(-0.012,0.0483287367165798,-0.0542643683592899));
#926=CARTESIAN_POINT('',(-0.012,0.046200000002,-0.053200000002));
#927=CARTESIAN_POINT('',(-0.0092,0.046200000002,-0.053200000002));
#928=CARTESIAN_POINT('',(-0.0092,0.0483287367165798,-0.0542643683592899));
#929=CARTESIAN_POINT('',(-0.0092,0.0440712632874202,-0.0521356316447101));
#930=CARTESIAN_POINT('',(-0.0092,0.053700000002,-0.038200000002));
#931=CARTESIAN_POINT('',(-0.0092,0.0515712632874202,-0.0371356316447101));
#932=CARTESIAN_POINT('',(-0.0092,0.0558287367165798,-0.0392643683592899));
#933=CARTESIAN_POINT('',(-0.0092,0.0537000000020001,-0.053200000002));
#934=CARTESIAN_POINT('',(-0.0092,0.0558287367165799,-0.0542643683592899));
#935=CARTESIAN_POINT('',(-0.0092,0.0515712632874203,-0.0521356316447101));
#936=CARTESIAN_POINT('',(-0.0092,0.057450000002,-0.045700000002));
#937=CARTESIAN_POINT('',(-0.0092,0.0553212632874202,-0.0446356316447101));
#938=CARTESIAN_POINT('',(-0.0092,0.0595787367165798,-0.0467643683592899));
#939=CARTESIAN_POINT('',(-0.0092,0.0644687367169798,-0.0219843683584899));
#940=CARTESIAN_POINT('',(-0.0092,0.0602112632878202,-0.01985563164391));
#941=CARTESIAN_POINT('',(-0.0092,0.0662112632878202,-0.0228556316439101));
#942=CARTESIAN_POINT('',(-0.0092,0.0704687367169798,-0.0249843683584899));
#943=MECHANICAL_DESIGN_GEOMETRIC_PRESENTATION_REPRESENTATION('',(#549),
#944);
#944=(
GEOMETRIC_REPRESENTATION_CONTEXT(3)
GLOBAL_UNCERTAINTY_ASSIGNED_CONTEXT((#945))
GLOBAL_UNIT_ASSIGNED_CONTEXT((#948,#947,#946))
REPRESENTATION_CONTEXT('Logo_Detail','TOP_LEVEL_ASSEMBLY_PART')
);
#945=UNCERTAINTY_MEASURE_WITH_UNIT(LENGTH_MEASURE(1.E-6),#948,
'DISTANCE_ACCURACY_VALUE','Maximum Tolerance applied to model');
#946=(
NAMED_UNIT(*)
SI_UNIT($,.STERADIAN.)
SOLID_ANGLE_UNIT()
);
#947=(
NAMED_UNIT(*)
PLANE_ANGLE_UNIT()
SI_UNIT($,.RADIAN.)
);
#948=(
LENGTH_UNIT()
NAMED_UNIT(*)
SI_UNIT($,.METRE.)
);
#949=PRODUCT_DEFINITION_SHAPE('','',#950);
#950=PRODUCT_DEFINITION('','',#952,#951);
#951=PRODUCT_DEFINITION_CONTEXT('',#958,'design');
#952=PRODUCT_DEFINITION_FORMATION_WITH_SPECIFIED_SOURCE('','',#954,
 .NOT_KNOWN.);
#953=PRODUCT_RELATED_PRODUCT_CATEGORY('','',(#954));
#954=PRODUCT('Logo_Detail','Logo_Detail','Logo_Detail',(#956));
#955=PRODUCT_CATEGORY('','');
#956=PRODUCT_CONTEXT('',#958,'mechanical');
#957=APPLICATION_PROTOCOL_DEFINITION('international standard',
'ap242_managed_model_based_3d_engineering',2020,#958);
#958=APPLICATION_CONTEXT('managed model based 3d engineering');
ENDSEC;
END-ISO-10303-21;
